{
.formatVersion = 3;
classes = (
{
name = _kern45;
}
);
familyName = "Rock Jack Writing";
customParameters = (
{
name = glyphOrder;
value = (
A,
B,
C,
D,
E,
F,
G,
H,
I,
J,
K,
L,
M,
N,
O,
P,
Q,
R,
S,
T,
U,
V,
W,
X,
Y,
Z,
z,
y,
x,
w,
v,
u,
t,
s,
r,
q,
p,
o,
n,
m,
l,
k,
j,
i,
h,
g,
f,
e,
d,
c,
b,
a,
germandbls,
exclam,
quotedbl,
numbersign,
dollar,
percent,
ampersand,
quotesingle,
parenleft,
parenright,
asterisk,
plus,
comma,
hyphen,
period,
slash,
zero,
one,
two,
three,
four,
five,
six,
seven,
eight,
nine,
colon,
semicolon,
less,
equal,
greater,
question,
underscore,
asciicircum,
bracketright,
backslash,
bracketleft,
braceleft,
bar,
braceright,
asciitilde,
at,
Euro,
exclamdown,
cent,
sterling,
currency,
yen,
section,
copyright,
registered,
degree,
quotesinglbase,
quotedblbase,
florin,
ellipsis,
dagger,
daggerdbl,
guilsinglleft,
guilsinglright,
guillemotright,
guillemotleft,
quoteright,
quoteleft,
quotedblright,
quotedblleft,
periodcentered,
bullet,
endash,
emdash,
trademark,
fraction,
questiondown,
multiply,
divide,
minus,
brokenbar,
circumflex,
dieresis,
acute,
grave,
macron,
dotlessi,
caron,
ogonek,
hungarumlaut,
ring,
dotaccent,
breve,
cedilla,
tilde,
mu,
paragraph,
plusminus,
eth,
Thorn,
thorn,
ninesuperior,
eightsuperior,
sevensuperior,
sixsuperior,
fivesuperior,
foursuperior,
threesuperior,
twosuperior,
onesuperior,
zerosuperior,
zeroinferior,
oneinferior,
twoinferior,
threeinferior,
fourinferior,
fiveinferior,
sixinferior,
seveninferior,
eightinferior,
nineinferior,
exclamdbl,
onehalf,
onethird,
onequarter,
oneeighth,
twothirds,
threequarters,
threeeighths,
fiveeighths,
seveneighths,
greaterequal,
lessequal,
approxequal,
notequal,
logicalnot,
estimated,
partialdiff,
afii61352,
infinity,
franc,
lira,
peseta,
colonmonetary,
Eng,
eng,
longs,
perthousand,
Aacute,
Abreve,
Acircumflex,
Agrave,
Adieresis,
Amacron,
Aogonek,
Aring,
Atilde,
AE,
AEacute,
Cacute,
Ccaron,
Ccedilla,
Ccircumflex,
Cdotaccent,
Dcaron,
Dcroat,
Eth,
Eacute,
Ebreve,
Ecaron,
Ecircumflex,

glyphs = (
{
glyphname = A;
layers = (
{
layerId = "EC70D3AE-AF6B-4669-B6F7-9C23D381EC59";
name = img;
width = 366;
},
{
layerId = "D6B6D460-257B-488B-8647-D4C61C54A5BD";
shapes = (
{
closed = 1;
nodes = (
(283,601,o),
(296,338,o),
(308,264,c),
(313,227,o),
(317,190,o),
(321,153,c),
(322,133,o),
(328,113,o),
(325,93,cs),
(321,58,o),
(269,64,o),
(259,93,cs),
(252,112,o),
(253,132,o),
(250,152,cs),
(246,181,o),
(243,210,o),
(240,239,c),
(228,331,o),
(224,426,o),
(193,513,c),
(158,415,o),
(132,314,o),
(116,211,cs),
(112,183,o),
(109,156,o),
(106,129,c),
(103,116,o),
(106,99,o),
(93,91,cs),
(78,82,o),
(59,87,o),
(48,99,cs),
(36,113,o),
(43,136,o),
(42,153,c),
(45,197,o),
(51,240,o),
(58,283,cs),
(73,372,o),
(96,458,o),
(127,542,c),
(135,568,o),
(150,594,o),
(181,594,c)
);
},
{
closed = 1;
nodes = (
(80,214,l),
(80,214,o),
(174,252,o),
(259,248,cs),
(344,244,o),
(276,185,o),
(276,185,c),
(276,185,o),
(176,190,o),
(76,164,c)
);
}
);
width = 366;
}
);
leftKerningGroup = _kern2;
rightKerningGroup = _kern1;
unicode = 65;
},
{
glyphname = B;
layers = (
{
layerId = "EC70D3AE-AF6B-4669-B6F7-9C23D381EC59";
name = img;
width = 396;
},
{
layerId = "D6B6D460-257B-488B-8647-D4C61C54A5BD";
shapes = (
{
closed = 1;
nodes = (
(113,81,o),
(98,99,o),
(95,121,c),
(89,147,o),
(86,173,o),
(82,200,cs),
(72,268,o),
(67,336,o),
(66,404,cs),
(65,451,o),
(66,497,o),
(69,543,c),
(72,560,o),
(65,583,o),
(83,592,cs),
(97,599,o),
(113,595,o),
(123,584,c),
(132,576,o),
(131,565,o),
(130,554,cs),
(129,540,o),
(129,525,o),
(128,511,cs),
(127,470,o),
(128,429,o),
(129,388,cs),
(131,330,o),
(136,273,o),
(143,216,cs),
(147,189,o),
(151,161,o),
(156,134,cs),
(159,113,o),
(166,87,o),
(136,83,c)
);
},
{
closed = 1;
nodes = (
(146,89,o),
(126,93,o),
(110,105,cs),
(88,120,o),
(96,149,o),
(123,150,c),
(173,148,o),
(221,154,o),
(258,191,cs),
(272,206,o),
(294,230,o),
(279,251,c),
(255,274,o),
(218,278,o),
(186,282,c),
(170,283,o),
(154,284,o),
(138,283,c),
(120,284,o),
(102,295,o),
(98,313,cs),
(94,333,o),
(116,342,o),
(127,354,cs),
(137,364,o),
(147,375,o),
(156,385,c),
(180,416,o),
(224,455,o),
(223,496,c),
(212,542,o),
(160,542,o),
(123,535,c),
(100,533,o),
(75,517,o),
(53,532,cs),
(37,542,o),
(36,569,o),
(56,575,cs),
(93,585,o),
(130,595,o),
(168,592,cs),
(220,588,o),
(274,557,o),
(289,505,c),
(306,438,o),
(248,384,o),
(208,337,c),
(296,328,o),
(402,262,o),
(333,167,cs),
(294,116,o),
(229,87,o),
(166,89,c)
);
}
);
width = 396;
}
);
leftKerningGroup = _kern4;
rightKerningGroup = _kern3;
unicode = 66;
},
{
glyphname = C;
layers = (
{
layerId = "EC70D3AE-AF6B-4669-B6F7-9C23D381EC59";
name = img;
width = 403;
},
{
layerId = "D6B6D460-257B-488B-8647-D4C61C54A5BD";
shapes = (
{
closed = 1;
nodes = (
(257,589,o),
(303,536,o),
(322,480,cs),
(326,470,o),
(329,460,o),
(332,450,cs),
(341,416,o),
(287,411,o),
(275,445,cs),
(217,611,o),
(143,496,o),
(122,388,c),
(113,329,o),
(107,266,o),
(129,210,c),
(157,150,o),
(208,132,o),
(261,176,c),
(281,188,o),
(295,220,o),
(318,222,cs),
(337,224,o),
(358,212,o),
(362,192,c),
(364,177,o),
(352,166,o),
(343,155,cs),
(319,129,o),
(290,105,o),
(256,95,cs),
(143,62,o),
(48,163,o),
(42,271,c),
(33,371,o),
(64,588,o),
(194,590,c)
);
}
);
width = 403;
}
);
leftKerningGroup = _kern6;
rightKerningGroup = _kern5;
unicode = 67;
},
{
glyphname = D;
layers = (
{
layerId = "EC70D3AE-AF6B-4669-B6F7-9C23D381EC59";
name = img;
width = 397;
},
{
layerId = "D6B6D460-257B-488B-8647-D4C61C54A5BD";
shapes = (
{
closed = 1;
nodes = (
(173,95,o),
(124,123,o),
(93,162,c),
(79,182,o),
(33,249,o),
(61,267,cs),
(81,280,o),
(110,270,o),
(118,249,cs),
(135,207,o),
(174,140,o),
(228,164,c),
(267,186,o),
(281,234,o),
(284,276,c),
(287,352,o),
(286,449,o),
(237,511,c),
(173,580,o),
(115,339,o),
(109,299,c),
(102,278,o),
(71,281,o),
(58,295,c),
(43,307,o),
(53,339,o),
(55,356,c),
(65,417,o),
(87,476,o),
(119,528,cs),
(170,614,o),
(276,585,o),
(315,505,c),
(347,446,o),
(354,378,o),
(356,313,cs),
(359,220,o),
(333,109,o),
(224,98,c)
);
},
{
closed = 1;
nodes = (
(88,81,o),
(73,99,o),
(70,121,c),
(64,147,o),
(61,173,o),
(57,200,cs),
(48,268,o),
(42,336,o),
(41,404,cs),
(40,451,o),
(41,497,o),
(44,543,c),
(47,560,o),
(41,583,o),
(58,592,cs),
(72,599,o),
(89,595,o),
(99,584,cs),
(107,576,o),
(106,565,o),
(105,554,c),
(105,540,o),
(104,525,o),
(104,511,c),
(102,470,o),
(103,429,o),
(104,388,c),
(107,330,o),
(111,273,o),
(119,216,c),
(122,189,o),
(127,161,o),
(131,134,cs),
(135,113,o),
(141,87,o),
(112,83,c)
);
}
);
width = 397;
}
);
leftKerningGroup = _kern4;
rightKerningGroup = _kern7;
unicode = 68;
},
{
glyphname = E;
layers = (
{
layerId = "EC70D3AE-AF6B-4669-B6F7-9C23D381EC59";
name = img;
width = 376;
},
{
layerId = "D6B6D460-257B-488B-8647-D4C61C54A5BD";
shapes = (
{
closed = 1;
nodes = (
(221,593,o),
(235,592,o),
(249,589,cs),
(273,584,o),
(284,551,o),
(258,541,c),
(237,535,o),
(214,532,o),
(192,531,c),
(156,527,o),
(135,537,o),
(128,492,cs),
(116,423,o),
(111,351,o),
(118,281,c),
(122,254,o),
(133,159,o),
(165,156,c),
(207,154,o),
(234,194,o),
(251,227,c),
(261,243,o),
(267,267,o),
(287,271,cs),
(311,275,o),
(341,256,o),
(334,230,c),
(316,179,o),
(284,127,o),
(233,104,cs),
(183,82,o),
(117,93,o),
(86,141,c),
(30,236,o),
(35,373,o),
(50,479,c),
(61,591,o),
(109,592,o),
(207,593,c)
);
},
{
closed = 1;
nodes = (
(54,381,o),
(98,377,o),
(120,381,c),
(136,383,o),
(152,384,o),
(168,386,c),
(191,387,o),
(215,392,o),
(236,382,c),
(251,376,o),
(263,356,o),
(251,342,c),
(229,321,o),
(193,328,o),
(165,324,c),
(150,323,o),
(135,323,o),
(120,322,c),
(95,322,o),
(61,320,o),
(55,350,c)
);
}
);
width = 376;
}
);
leftKerningGroup = _kern9;
rightKerningGroup = _kern8;
unicode = 69;
},
{
glyphname = F;
layers = (
{
layerId = "EC70D3AE-AF6B-4669-B6F7-9C23D381EC59";
name = img;
width = 347;
},
{
layerId = "D6B6D460-257B-488B-8647-D4C61C54A5BD";
shapes = (
{
closed = 1;
nodes = (
(302,493,o),
(266,494,o),
(253,512,cs),
(246,523,o),
(234,532,o),
(221,534,cs),
(170,540,o),
(140,485,o),
(133,442,cs),
(125,396,o),
(131,350,o),
(134,304,cs),
(138,247,o),
(146,191,o),
(161,135,c),
(162,122,o),
(164,105,o),
(147,98,cs),
(130,92,o),
(107,98,o),
(99,115,c),
(89,130,o),
(84,148,o),
(80,166,cs),
(75,187,o),
(71,208,o),
(68,230,cs),
(63,270,o),
(60,310,o),
(57,350,cs),
(51,413,o),
(52,482,o),
(90,536,cs),
(113,569,o),
(151,593,o),
(192,595,cs),
(240,598,o),
(300,570,o),
(307,518,c)
);
},
{
closed = 1;
nodes = (
(40,341,o),
(84,336,o),
(106,341,c),
(122,342,o),
(138,344,o),
(154,345,cs),
(177,347,o),
(201,351,o),
(223,341,cs),
(238,335,o),
(249,316,o),
(238,302,c),
(216,280,o),
(180,287,o),
(151,283,c),
(136,282,o),
(121,282,o),
(106,281,c),
(82,281,o),
(48,279,o),
(41,309,c)
);
}
);
width = 347;
}
);
unicode = 70;
},
{
glyphname = G;
layers = (
{
layerId = "EC70D3AE-AF6B-4669-B6F7-9C23D381EC59";
name = img;
width = 408;
},
{
layerId = "D6B6D460-257B-488B-8647-D4C61C54A5BD";
shapes = (
{
closed = 1;
nodes = (
(372,142,o),
(266,72,o),
(179,92,cs),
(74,119,o),
(33,227,o),
(41,327,cs),
(44,377,o),
(50,427,o),
(68,474,cs),
(87,524,o),
(120,579,o),
(177,589,c),
(217,593,o),
(257,577,o),
(283,547,cs),
(308,520,o),
(322,484,o),
(332,448,cs),
(334,442,o),
(333,436,o),
(328,430,cs),
(310,411,o),
(279,425,o),
(273,449,c),
(260,480,o),
(244,531,o),
(202,528,c),
(118,494,o),
(94,283,o),
(129,209,cs),
(185,86,o),
(329,185,o),
(290,293,cs),
(289,296,o),
(281,293,o),
(278,293,c),
(255,291,o),
(233,287,o),
(211,283,cs),
(202,282,o),
(194,281,o),
(186,284,cs),
(152,295,o),
(153,329,o),
(188,338,cs),
(295,365,o),
(364,369,o),
(367,237,c)
);
}
);
width = 408;
}
);
leftKerningGroup = _kern6;
rightKerningGroup = _kern5;
unicode = 71;
},
{
glyphname = H;
layers = (
{
layerId = "EC70D3AE-AF6B-4669-B6F7-9C23D381EC59";
name = img;
width = 465;
},
{
layerId = "D6B6D460-257B-488B-8647-D4C61C54A5BD";
shapes = (
{
closed = 1;
nodes = (
(88,81,o),
(73,99,o),
(70,121,c),
(52,214,o),
(43,309,o),
(41,404,cs),
(40,451,o),
(41,497,o),
(44,543,c),
(47,560,o),
(41,583,o),
(58,592,cs),
(72,599,o),
(89,595,o),
(99,584,cs),
(107,576,o),
(106,565,o),
(105,554,cs),
(100,441,o),
(104,328,o),
(119,216,cs),
(122,189,o),
(127,161,o),
(131,134,cs),
(135,113,o),
(141,87,o),
(112,83,c)
);
},
{
closed = 1;
nodes = (
(378,81,o),
(363,99,o),
(360,121,c),
(342,214,o),
(333,309,o),
(331,404,cs),
(330,451,o),
(331,497,o),
(334,543,c),
(337,560,o),
(330,583,o),
(348,592,cs),
(362,599,o),
(378,595,o),
(388,584,c),
(397,576,o),
(396,565,o),
(395,554,cs),
(389,441,o),
(394,328,o),
(408,216,cs),
(412,189,o),
(416,161,o),
(421,134,cs),
(425,113,o),
(431,87,o),
(401,83,c)
);
},
{
closed = 1;
nodes = (
(72,297,l),
(72,297,o),
(250,360,o),
(355,365,c),
(378,304,l),
(378,304,o),
(167,280,o),
(79,236,c)
);
}
);
width = 465;
}
);
leftKerningGroup = _kern4;
rightKerningGroup = _kern10;
unicode = 72;
},
{
glyphname = I;
layers = (
{
layerId = "EC70D3AE-AF6B-4669-B6F7-9C23D381EC59";
name = img;
width = 175;
},
{
layerId = "D6B6D460-257B-488B-8647-D4C61C54A5BD";
shapes = (
{
closed = 1;
nodes = (
(88,81,o),
(73,99,o),
(70,121,c),
(52,214,o),
(43,309,o),
(41,404,cs),
(40,451,o),
(41,497,o),
(44,543,c),
(47,560,o),
(41,583,o),
(58,592,cs),
(72,599,o),
(89,595,o),
(99,584,cs),
(107,576,o),
(106,565,o),
(105,554,cs),
(100,441,o),
(104,328,o),
(119,216,cs),
(122,189,o),
(127,161,o),
(131,134,cs),
(135,113,o),
(141,87,o),
(112,83,c)
);
}
);
width = 175;
}
);
leftKerningGroup = _kern4;
rightKerningGroup = _kern10;
unicode = 73;
},
{
glyphname = J;
layers = (
{
layerId = "EC70D3AE-AF6B-4669-B6F7-9C23D381EC59";
name = img;
width = 383;
},
{
layerId = "D6B6D460-257B-488B-8647-D4C61C54A5BD";
shapes = (
{
closed = 1;
nodes = (
(147,104,o),
(93,136,o),
(60,177,c),
(40,212,o),
(87,229,o),
(112,210,cs),
(143,188,o),
(182,144,o),
(222,172,c),
(257,198,o),
(264,245,o),
(268,286,c),
(271,330,o),
(271,375,o),
(267,420,cs),
(264,451,o),
(258,483,o),
(250,514,cs),
(248,523,o),
(245,533,o),
(240,541,c),
(236,544,o),
(230,540,o),
(225,539,cs),
(212,535,o),
(199,530,o),
(185,526,cs),
(165,519,o),
(144,512,o),
(124,506,cs),
(98,498,o),
(62,481,o),
(44,510,c),
(29,541,o),
(69,547,o),
(89,556,c),
(112,564,o),
(135,572,o),
(158,580,c),
(204,598,o),
(257,613,o),
(293,569,c),
(335,511,o),
(343,393,o),
(343,323,c),
(341,271,o),
(339,218,o),
(315,171,c),
(295,128,o),
(249,98,o),
(200,101,cs)
);
}
);
width = 383;
}
);
leftKerningGroup = _kern12;
rightKerningGroup = _kern11;
unicode = 74;
},
{
glyphname = K;
layers = (
{
layerId = "EC70D3AE-AF6B-4669-B6F7-9C23D381EC59";
name = img;
width = 390;
},
{
layerId = "D6B6D460-257B-488B-8647-D4C61C54A5BD";
shapes = (
{
closed = 1;
nodes = (
(271,131,o),
(251,156,o),
(226,169,c),
(187,195,o),
(143,213,o),
(98,224,cs),
(81,228,o),
(66,250,o),
(77,267,cs),
(93,293,o),
(111,319,o),
(128,345,cs),
(174,417,o),
(223,486,o),
(273,556,c),
(283,568,o),
(292,592,o),
(309,594,cs),
(320,595,o),
(332,592,o),
(340,585,cs),
(351,576,o),
(353,560,o),
(344,550,c),
(302,487,o),
(263,424,o),
(221,361,cs),
(200,329,o),
(179,297,o),
(158,265,c),
(157,265,o),
(157,264,o),
(158,264,c),
(175,258,o),
(191,251,o),
(207,243,cs),
(236,229,o),
(326,182,o),
(326,149,c),
(325,135,o),
(312,126,o),
(299,127,c)
);
},
{
closed = 1;
nodes = (
(88,81,o),
(73,99,o),
(70,121,c),
(52,214,o),
(43,309,o),
(41,404,cs),
(40,451,o),
(41,497,o),
(44,543,c),
(47,560,o),
(41,583,o),
(58,592,cs),
(72,599,o),
(89,595,o),
(99,584,cs),
(107,576,o),
(106,565,o),
(105,554,cs),
(100,441,o),
(104,328,o),
(119,216,cs),
(122,189,o),
(127,161,o),
(131,134,cs),
(135,113,o),
(141,87,o),
(112,83,c)
);
}
);
width = 390;
}
);
leftKerningGroup = _kern4;
rightKerningGroup = _kern13;
unicode = 75;
},
{
glyphname = L;
layers = (
{
layerId = "EC70D3AE-AF6B-4669-B6F7-9C23D381EC59";
name = img;
width = 399;
},
{
layerId = "D6B6D460-257B-488B-8647-D4C61C54A5BD";
shapes = (
{
closed = 1;
nodes = (
(353,158,o),
(323,164,o),
(301,161,c),
(279,160,o),
(257,159,o),
(236,157,cs),
(201,155,o),
(166,151,o),
(131,144,c),
(130,144,o),
(130,144,o),
(130,145,c),
(128,153,o),
(127,160,o),
(126,167,cs),
(120,203,o),
(116,239,o),
(112,275,cs),
(105,346,o),
(102,417,o),
(103,489,c),
(104,510,o),
(104,532,o),
(105,554,c),
(109,576,o),
(100,591,o),
(77,595,c),
(59,597,o),
(45,587,o),
(46,568,c),
(44,550,o),
(44,531,o),
(43,513,cs),
(40,448,o),
(40,383,o),
(45,319,c),
(47,279,o),
(52,240,o),
(57,201,c),
(62,170,o),
(64,138,o),
(74,108,cs),
(82,84,o),
(104,81,o),
(126,86,c),
(140,87,o),
(154,89,o),
(168,91,cs),
(214,98,o),
(260,102,o),
(306,104,c),
(327,104,o),
(360,102,o),
(358,132,c)
);
}
);
width = 399;
}
);
leftKerningGroup = _kern4;
rightKerningGroup = _kern14;
unicode = 76;
},
{
glyphname = M;
layers = (
{
layerId = "EC70D3AE-AF6B-4669-B6F7-9C23D381EC59";
name = img;
width = 540;
},
{
layerId = "D6B6D460-257B-488B-8647-D4C61C54A5BD";
shapes = (
{
closed = 1;
nodes = (
(251,275,o),
(229,294,o),
(214,316,cs),
(186,358,o),
(157,401,o),
(129,444,cs),
(105,480,o),
(82,515,o),
(61,552,cs),
(57,559,o),
(56,566,o),
(60,573,cs),
(69,591,o),
(95,589,o),
(108,575,c),
(169,501,o),
(220,413,o),
(277,338,c),
(320,403,o),
(354,474,o),
(388,544,c),
(393,556,o),
(398,568,o),
(404,579,c),
(409,591,o),
(418,601,o),
(431,602,cs),
(452,604,o),
(477,585,o),
(469,563,cs),
(454,522,o),
(434,484,o),
(415,445,cs),
(393,401,o),
(369,357,o),
(344,314,cs),
(331,290,o),
(307,270,o),
(278,273,cs)
);
},
{
closed = 1;
nodes = (
(88,81,o),
(73,99,o),
(70,121,c),
(52,214,o),
(43,309,o),
(41,404,cs),
(40,451,o),
(41,497,o),
(44,543,c),
(47,560,o),
(41,583,o),
(58,592,cs),
(72,599,o),
(89,595,o),
(99,584,cs),
(107,576,o),
(106,565,o),
(105,554,cs),
(100,441,o),
(104,328,o),
(119,216,cs),
(122,189,o),
(127,161,o),
(131,134,cs),
(135,113,o),
(141,87,o),
(112,83,c)
);
},
{
closed = 1;
nodes = (
(454,81,o),
(438,99,o),
(435,121,c),
(417,214,o),
(408,309,o),
(406,404,cs),
(406,451,o),
(406,497,o),
(409,543,c),
(412,560,o),
(406,583,o),
(424,592,cs),
(437,599,o),
(454,595,o),
(464,584,cs),
(472,576,o),
(471,565,o),
(470,554,cs),
(465,441,o),
(469,328,o),
(484,216,cs),
(487,189,o),
(492,161,o),
(496,134,cs),
(500,113,o),
(507,87,o),
(477,83,c)
);
}
);
width = 540;
}
);
leftKerningGroup = _kern4;
rightKerningGroup = _kern10;
unicode = 77;
},
{
glyphname = N;
layers = (
{
layerId = "EC70D3AE-AF6B-4669-B6F7-9C23D381EC59";
name = img;
width = 461;
},
{
layerId = "D6B6D460-257B-488B-8647-D4C61C54A5BD";
shapes = (
{
closed = 1;
nodes = (
(356,88,o),
(326,138,o),
(304,162,c),
(219,264,o),
(146,376,o),
(84,494,cs),
(70,520,o),
(57,546,o),
(47,573,c),
(45,594,o),
(70,603,o),
(86,596,cs),
(94,593,o),
(100,588,o),
(105,580,cs),
(118,556,o),
(132,534,o),
(145,510,cs),
(187,435,o),
(232,362,o),
(282,292,cs),
(313,248,o),
(346,204,o),
(381,162,c),
(393,145,o),
(416,127,o),
(420,107,c),
(421,91,o),
(404,81,o),
(389,83,cs)
);
},
{
closed = 1;
nodes = (
(88,81,o),
(73,99,o),
(70,121,c),
(52,214,o),
(43,309,o),
(41,404,cs),
(40,451,o),
(41,497,o),
(44,543,c),
(47,560,o),
(41,583,o),
(58,592,cs),
(72,599,o),
(89,595,o),
(99,584,cs),
(107,576,o),
(106,565,o),
(105,554,cs),
(100,441,o),
(104,328,o),
(119,216,cs),
(122,189,o),
(127,161,o),
(131,134,cs),
(135,113,o),
(141,87,o),
(112,83,c)
);
},
{
closed = 1;
nodes = (
(373,81,o),
(357,99,o),
(354,121,c),
(336,214,o),
(327,309,o),
(325,404,cs),
(325,451,o),
(326,497,o),
(328,543,c),
(331,560,o),
(325,583,o),
(343,592,cs),
(356,599,o),
(373,595,o),
(383,584,c),
(392,576,o),
(390,565,o),
(389,554,cs),
(384,441,o),
(389,328,o),
(403,216,cs),
(406,189,o),
(411,161,o),
(416,134,cs),
(419,113,o),
(426,87,o),
(396,83,c)
);
}
);
width = 461;
}
);
leftKerningGroup = _kern4;
rightKerningGroup = _kern10;
unicode = 78;
},
{
glyphname = O;
layers = (
{
layerId = "EC70D3AE-AF6B-4669-B6F7-9C23D381EC59";
name = img;
width = 410;
},
{
layerId = "D6B6D460-257B-488B-8647-D4C61C54A5BD";
shapes = (
{
closed = 1;
nodes = (
(52,98,o),
(19,316,o),
(53,431,cs),
(68,483,o),
(89,540,o),
(138,569,cs),
(184,596,o),
(242,574,o),
(276,537,cs),
(341,466,o),
(375,366,o),
(369,270,cs),
(365,185,o),
(300,101,o),
(210,100,cs)
);
},
{
closed = 1;
nodes = (
(299,331,o),
(291,366,o),
(280,399,cs),
(269,430,o),
(216,555,o),
(173,509,cs),
(129,460,o),
(113,387,o),
(112,323,cs),
(112,270,o),
(116,177,o),
(180,160,cs),
(257,139,o),
(301,236,o),
(299,297,c)
);
}
);
width = 410;
}
);
leftKerningGroup = _kern6;
rightKerningGroup = _kern5;
unicode = 79;
},
{
glyphname = P;
layers = (
{
layerId = "EC70D3AE-AF6B-4669-B6F7-9C23D381EC59";
name = img;
width = 353;
},
{
layerId = "D6B6D460-257B-488B-8647-D4C61C54A5BD";
shapes = (
{
closed = 1;
nodes = (
(134,88,o),
(114,81,o),
(100,84,c),
(80,87,o),
(71,105,o),
(68,123,cs),
(42,264,o),
(35,407,o),
(44,549,c),
(46,564,o),
(41,585,o),
(57,592,cs),
(79,603,o),
(110,585,o),
(104,560,c),
(99,463,o),
(102,365,o),
(112,268,c),
(116,213,o),
(128,159,o),
(134,105,c)
);
},
{
closed = 1;
nodes = (
(85,194,o),
(57,218,o),
(75,239,c),
(87,256,o),
(109,261,o),
(126,273,c),
(191,311,o),
(245,381,o),
(246,458,c),
(244,526,o),
(194,549,o),
(133,547,c),
(107,550,o),
(72,535,o),
(55,563,c),
(43,586,o),
(67,599,o),
(87,598,c),
(134,604,o),
(184,604,o),
(228,583,c),
(324,541,o),
(333,421,o),
(283,339,c),
(255,286,o),
(171,195,o),
(107,195,c)
);
}
);
width = 353;
}
);
leftKerningGroup = _kern4;
rightKerningGroup = _kern15;
unicode = 80;
},
{
glyphname = Q;
layers = (
{
layerId = "EC70D3AE-AF6B-4669-B6F7-9C23D381EC59";
name = img;
width = 410;
},
{
layerId = "D6B6D460-257B-488B-8647-D4C61C54A5BD";
shapes = (
{
closed = 1;
nodes = (
(319,20,o),
(304,9,o),
(289,10,cs),
(268,11,o),
(258,30,o),
(247,45,cs),
(232,64,o),
(222,86,o),
(211,108,cs),
(200,131,o),
(205,153,o),
(234,152,cs),
(250,151,o),
(261,138,o),
(270,126,cs),
(289,98,o),
(307,68,o),
(318,35,c)
);
},
{
closed = 1;
nodes = (
(52,98,o),
(19,316,o),
(53,431,cs),
(68,483,o),
(89,540,o),
(138,569,cs),
(184,596,o),
(242,574,o),
(276,537,cs),
(341,466,o),
(375,366,o),
(369,270,cs),
(365,185,o),
(300,101,o),
(210,100,cs)
);
},
{
closed = 1;
nodes = (
(299,331,o),
(291,366,o),
(280,399,cs),
(269,430,o),
(216,555,o),
(173,509,cs),
(129,460,o),
(113,387,o),
(112,323,cs),
(112,270,o),
(116,177,o),
(180,160,cs),
(257,139,o),
(301,236,o),
(299,297,c)
);
}
);
width = 410;
}
);
leftKerningGroup = _kern6;
rightKerningGroup = _kern5;
unicode = 81;
},
{
glyphname = R;
layers = (
{
layerId = "EC70D3AE-AF6B-4669-B6F7-9C23D381EC59";
name = img;
width = 353;
},
{
layerId = "D6B6D460-257B-488B-8647-D4C61C54A5BD";
shapes = (
{
closed = 1;
nodes = (
(93,237,o),
(137,229,o),
(157,219,c),
(182,210,o),
(208,203,o),
(233,196,cs),
(242,194,o),
(250,191,o),
(257,185,cs),
(280,166,o),
(263,140,o),
(235,143,c),
(206,145,o),
(98,167,o),
(96,202,cs)
);
},
{
closed = 1;
nodes = (
(134,88,o),
(114,81,o),
(100,84,c),
(80,87,o),
(71,105,o),
(68,123,cs),
(42,264,o),
(35,407,o),
(44,549,c),
(46,564,o),
(41,585,o),
(57,592,cs),
(79,603,o),
(110,585,o),
(104,560,c),
(99,463,o),
(102,365,o),
(112,268,c),
(116,213,o),
(128,159,o),
(134,105,c)
);
},
{
closed = 1;
nodes = (
(85,194,o),
(57,218,o),
(75,239,c),
(87,256,o),
(109,261,o),
(126,273,c),
(191,311,o),
(245,381,o),
(246,458,c),
(244,526,o),
(194,549,o),
(133,547,c),
(107,550,o),
(72,535,o),
(55,563,c),
(43,586,o),
(67,599,o),
(87,598,c),
(134,604,o),
(184,604,o),
(228,583,c),
(324,541,o),
(333,421,o),
(283,339,c),
(255,286,o),
(171,195,o),
(107,195,c)
);
}
);
width = 353;
}
);
leftKerningGroup = _kern4;
rightKerningGroup = _kern15;
unicode = 82;
},
{
glyphname = S;
layers = (
{
layerId = "EC70D3AE-AF6B-4669-B6F7-9C23D381EC59";
name = img;
width = 333;
},
{
layerId = "D6B6D460-257B-488B-8647-D4C61C54A5BD";
shapes = (
{
closed = 1;
nodes = (
(134,94,o),
(94,105,o),
(74,136,c),
(62,160,o),
(92,179,o),
(113,169,cs),
(127,163,o),
(141,156,o),
(156,158,c),
(182,160,o),
(202,185,o),
(205,210,cs),
(208,234,o),
(196,257,o),
(182,275,c),
(131,332,o),
(52,375,o),
(42,458,cs),
(31,536,o),
(108,610,o),
(186,595,c),
(225,589,o),
(261,568,o),
(283,536,c),
(292,525,o),
(298,508,o),
(286,498,cs),
(270,485,o),
(246,492,o),
(236,509,cs),
(209,551,o),
(149,542,o),
(127,499,cs),
(78,403,o),
(236,351,o),
(268,264,c),
(307,189,o),
(254,96,o),
(169,94,c)
);
}
);
width = 333;
}
);
leftKerningGroup = _kern16;
rightKerningGroup = _kern16;
unicode = 83;
},
{
glyphname = T;
layers = (
{
layerId = "EC70D3AE-AF6B-4669-B6F7-9C23D381EC59";
name = img;
width = 410;
},
{
layerId = "D6B6D460-257B-488B-8647-D4C61C54A5BD";
shapes = (
{
closed = 1;
nodes = (
(51,517,o),
(23,555,o),
(53,569,cs),
(119,598,o),
(192,608,o),
(263,611,c),
(291,610,o),
(322,615,o),
(349,603,c),
(372,594,o),
(379,564,o),
(352,553,c),
(328,545,o),
(301,552,o),
(276,550,c),
(208,549,o),
(142,535,o),
(76,521,c)
);
},
{
closed = 1;
nodes = (
(253,88,o),
(233,81,o),
(219,84,c),
(199,87,o),
(190,105,o),
(187,123,cs),
(161,264,o),
(154,407,o),
(163,549,c),
(165,564,o),
(160,585,o),
(177,592,c),
(198,603,o),
(229,585,o),
(224,560,c),
(218,463,o),
(221,365,o),
(231,268,c),
(235,213,o),
(247,159,o),
(253,105,c)
);
}
);
width = 410;
}
);
leftKerningGroup = _kern17;
rightKerningGroup = _kern17;
unicode = 84;
},
{
glyphname = U;
layers = (
{
layerId = "EC70D3AE-AF6B-4669-B6F7-9C23D381EC59";
name = img;
width = 401;
},
{
layerId = "D6B6D460-257B-488B-8647-D4C61C54A5BD";
shapes = (
{
closed = 1;
nodes = (
(159,90,o),
(103,125,o),
(80,178,c),
(59,234,o),
(55,295,o),
(47,354,c),
(43,400,o),
(31,566,o),
(54,598,c),
(73,615,o),
(109,599,o),
(108,573,c),
(111,532,o),
(108,491,o),
(110,450,cs),
(112,396,o),
(117,341,o),
(125,287,c),
(135,238,o),
(136,151,o),
(204,153,c),
(271,159,o),
(278,240,o),
(284,293,cs),
(292,379,o),
(287,466,o),
(280,552,c),
(280,567,o),
(273,585,o),
(284,596,cs),
(300,612,o),
(327,607,o),
(341,592,cs),
(349,584,o),
(348,571,o),
(350,560,c),
(358,473,o),
(365,386,o),
(358,299,cs),
(351,203,o),
(332,98,o),
(216,92,c)
);
}
);
width = 401;
}
);
leftKerningGroup = _kern18;
rightKerningGroup = _kern18;
unicode = 85;
},
{
glyphname = V;
layers = (
{
layerId = "EC70D3AE-AF6B-4669-B6F7-9C23D381EC59";
name = img;
width = 421;
},
{
layerId = "D6B6D460-257B-488B-8647-D4C61C54A5BD";
shapes = (
{
closed = 1;
nodes = (
(39,583,o),
(68,589,o),
(83,581,cs),
(92,576,o),
(98,570,o),
(100,561,c),
(109,532,o),
(116,504,o),
(122,475,cs),
(136,403,o),
(152,331,o),
(174,261,c),
(187,224,o),
(198,185,o),
(218,151,c),
(218,150,o),
(219,150,o),
(220,151,cs),
(223,154,o),
(226,157,o),
(228,161,cs),
(264,255,o),
(286,355,o),
(300,454,cs),
(305,485,o),
(308,516,o),
(311,547,cs),
(312,559,o),
(313,571,o),
(315,584,cs),
(318,608,o),
(350,610,o),
(367,597,c),
(378,590,o),
(381,578,o),
(380,566,c),
(380,555,o),
(380,543,o),
(379,532,cs),
(376,482,o),
(370,432,o),
(362,382,c),
(346,297,o),
(326,212,o),
(293,132,cs),
(271,81,o),
(207,73,o),
(169,112,cs),
(140,141,o),
(131,184,o),
(116,221,c),
(81,332,o),
(53,446,o),
(41,562,cs)
);
}
);
width = 421;
}
);
leftKerningGroup = _kern19;
rightKerningGroup = _kern19;
unicode = 86;
},
{
glyphname = W;
layers = (
{
layerId = "EC70D3AE-AF6B-4669-B6F7-9C23D381EC59";
name = img;
width = 698;
},
{
layerId = "D6B6D460-257B-488B-8647-D4C61C54A5BD";
shapes = (
{
closed = 1;
nodes = (
(39,583,o),
(68,589,o),
(83,581,cs),
(92,576,o),
(98,570,o),
(100,561,c),
(109,532,o),
(116,504,o),
(122,475,cs),
(136,403,o),
(152,331,o),
(174,261,c),
(187,224,o),
(198,185,o),
(218,151,c),
(218,150,o),
(219,150,o),
(220,151,cs),
(223,154,o),
(226,157,o),
(228,161,cs),
(264,255,o),
(286,355,o),
(300,454,cs),
(305,485,o),
(308,516,o),
(311,547,cs),
(312,559,o),
(313,571,o),
(315,584,cs),
(318,608,o),
(350,610,o),
(367,597,c),
(378,590,o),
(381,578,o),
(380,566,c),
(380,555,o),
(380,543,o),
(379,532,cs),
(376,482,o),
(370,432,o),
(362,382,c),
(346,297,o),
(326,212,o),
(293,132,cs),
(271,81,o),
(207,73,o),
(169,112,cs),
(140,141,o),
(131,184,o),
(116,221,c),
(81,332,o),
(53,446,o),
(41,562,cs)
);
},
{
closed = 1;
nodes = (
(316,583,o),
(345,589,o),
(360,581,cs),
(369,576,o),
(376,591,o),
(379,582,cs),
(387,553,o),
(393,504,o),
(399,475,cs),
(413,403,o),
(429,331,o),
(451,261,c),
(464,224,o),
(475,185,o),
(495,151,c),
(495,150,o),
(496,150,o),
(497,151,cs),
(500,154,o),
(503,157,o),
(505,161,cs),
(541,255,o),
(563,355,o),
(577,454,cs),
(582,485,o),
(585,516,o),
(588,547,cs),
(589,559,o),
(590,571,o),
(592,584,cs),
(595,608,o),
(627,610,o),
(644,597,c),
(655,590,o),
(658,578,o),
(657,566,c),
(657,555,o),
(657,543,o),
(656,532,cs),
(653,482,o),
(647,432,o),
(639,382,c),
(623,297,o),
(603,212,o),
(570,132,cs),
(548,81,o),
(484,73,o),
(446,112,cs),
(417,141,o),
(408,184,o),
(393,221,c),
(358,332,o),
(330,446,o),
(318,562,cs)
);
}
);
width = 698;
}
);
leftKerningGroup = _kern19;
rightKerningGroup = _kern19;
unicode = 87;
},
{
glyphname = X;
layers = (
{
layerId = "EC70D3AE-AF6B-4669-B6F7-9C23D381EC59";
name = img;
width = 406;
},
{
layerId = "D6B6D460-257B-488B-8647-D4C61C54A5BD";
shapes = (
{
closed = 1;
nodes = (
(307,95,o),
(295,122,o),
(282,142,cs),
(244,202,o),
(206,262,o),
(170,323,cs),
(137,379,o),
(105,435,o),
(75,493,c),
(64,516,o),
(48,539,o),
(42,565,c),
(41,581,o),
(56,592,o),
(71,590,c),
(95,589,o),
(106,565,o),
(117,547,c),
(189,417,o),
(262,287,o),
(344,162,c),
(351,149,o),
(362,137,o),
(365,122,c),
(367,105,o),
(350,93,o),
(335,94,cs)
);
},
{
closed = 1;
nodes = (
(43,143,o),
(54,163,o),
(63,183,cs),
(100,261,o),
(138,339,o),
(175,417,cs),
(199,467,o),
(225,515,o),
(250,564,c),
(260,580,o),
(263,605,o),
(285,606,c),
(303,608,o),
(322,596,o),
(325,578,c),
(325,574,o),
(325,570,o),
(322,566,cs),
(315,553,o),
(310,539,o),
(304,526,cs),
(257,417,o),
(206,309,o),
(154,202,c),
(147,186,o),
(139,170,o),
(131,154,cs),
(120,134,o),
(113,111,o),
(95,96,cs),
(76,81,o),
(40,95,o),
(41,121,c)
);
}
);
width = 406;
}
);
unicode = 88;
},
{
glyphname = Y;
layers = (
{
layerId = "EC70D3AE-AF6B-4669-B6F7-9C23D381EC59";
name = img;
width = 442;
},
{
layerId = "D6B6D460-257B-488B-8647-D4C61C54A5BD";
shapes = (
{
closed = 1;
nodes = (
(135,281,o),
(121,362,o),
(96,409,c),
(76,457,o),
(59,506,o),
(45,557,cs),
(38,582,o),
(36,607,o),
(70,606,c),
(100,602,o),
(104,570,o),
(112,548,c),
(131,485,o),
(156,425,o),
(185,366,c),
(187,360,o),
(190,355,o),
(193,349,cs),
(194,346,o),
(199,356,o),
(200,357,c),
(252,434,o),
(299,514,o),
(344,595,c),
(357,613,o),
(386,605,o),
(397,589,c),
(411,571,o),
(391,551,o),
(384,534,c),
(345,461,o),
(303,390,o),
(256,321,c),
(244,302,o),
(226,283,o),
(201,282,cs)
);
},
{
closed = 1;
nodes = (
(171,96,o),
(172,125,o),
(167,155,cs),
(163,182,o),
(159,209,o),
(157,235,c),
(156,263,o),
(155,291,o),
(157,318,c),
(157,331,o),
(162,343,o),
(175,348,cs),
(191,354,o),
(209,350,o),
(221,337,cs),
(228,330,o),
(230,320,o),
(229,310,cs),
(228,291,o),
(228,272,o),
(228,252,c),
(227,222,o),
(229,191,o),
(231,161,cs),
(232,147,o),
(233,133,o),
(235,119,cs),
(236,106,o),
(223,97,o),
(211,96,c)
);
}
);
width = 442;
}
);
leftKerningGroup = _kern20;
rightKerningGroup = _kern20;
unicode = 89;
},
{
glyphname = Z;
layers = (
{
layerId = "EC70D3AE-AF6B-4669-B6F7-9C23D381EC59";
name = img;
width = 356;
},
{
layerId = "D6B6D460-257B-488B-8647-D4C61C54A5BD";
shapes = (
{
closed = 1;
nodes = (
(318,120,o),
(294,113,o),
(277,110,cs),
(240,103,o),
(203,99,o),
(166,98,c),
(147,98,o),
(128,98,o),
(108,100,cs),
(97,101,o),
(85,100,o),
(75,105,cs),
(62,112,o),
(50,129,o),
(58,143,cs),
(125,261,o),
(187,384,o),
(229,514,cs),
(232,525,o),
(236,535,o),
(235,546,c),
(235,549,o),
(231,547,o),
(230,548,c),
(197,546,o),
(165,539,o),
(134,531,cs),
(117,527,o),
(101,522,o),
(85,516,cs),
(74,512,o),
(62,515,o),
(53,521,cs),
(42,528,o),
(35,545,o),
(45,556,c),
(61,569,o),
(82,573,o),
(101,580,c),
(145,593,o),
(192,605,o),
(238,601,c),
(308,591,o),
(309,533,o),
(287,478,c),
(256,382,o),
(211,292,o),
(165,203,cs),
(157,187,o),
(149,172,o),
(141,156,cs),
(139,153,o),
(149,156,o),
(150,155,c),
(179,156,o),
(207,158,o),
(235,162,c),
(262,168,o),
(306,177,o),
(315,141,c)
);
}
);
width = 356;
}
);
leftKerningGroup = _kern4;
rightKerningGroup = _kern10;
unicode = 90;
},
{
glyphname = z;
layers = (
{
layerId = "EC70D3AE-AF6B-4669-B6F7-9C23D381EC59";
name = img;
width = 318;
},
{
layerId = "D6B6D460-257B-488B-8647-D4C61C54A5BD";
shapes = (
{
closed = 1;
nodes = (
(278,119,o),
(257,115,o),
(241,112,cs),
(221,108,o),
(202,105,o),
(182,102,c),
(143,98,o),
(96,75,o),
(62,102,c),
(27,133,o),
(47,172,o),
(77,198,c),
(125,253,o),
(167,313,o),
(198,380,cs),
(199,383,o),
(207,399,o),
(204,400,c),
(179,402,o),
(154,401,o),
(130,398,cs),
(115,396,o),
(100,394,o),
(86,391,c),
(68,385,o),
(45,394,o),
(41,414,c),
(39,442,o),
(75,441,o),
(94,447,c),
(139,455,o),
(192,463,o),
(235,446,cs),
(268,432,o),
(279,396,o),
(264,364,cs),
(230,287,o),
(185,214,o),
(128,153,c),
(156,156,o),
(184,162,o),
(211,166,c),
(237,171,o),
(272,173,o),
(277,139,c)
);
}
);
width = 318;
}
);
leftKerningGroup = _kern41;
rightKerningGroup = _kern41;
unicode = 122;
},
{
glyphname = y;
layers = (
{
layerId = "EC70D3AE-AF6B-4669-B6F7-9C23D381EC59";
name = img;
width = 387;
},
{
layerId = "D6B6D460-257B-488B-8647-D4C61C54A5BD";
shapes = (
{
closed = 1;
nodes = (
(41,297,o),
(53,361,o),
(70,422,c),
(74,432,o),
(73,445,o),
(84,450,cs),
(103,459,o),
(130,449,o),
(133,427,c),
(124,366,o),
(109,305,o),
(108,243,c),
(107,234,o),
(107,183,o),
(115,182,c),
(130,191,o),
(139,205,o),
(150,219,cs),
(162,236,o),
(174,253,o),
(184,272,c),
(207,311,o),
(223,354,o),
(241,396,cs),
(247,409,o),
(253,423,o),
(260,436,cs),
(264,444,o),
(270,449,o),
(279,450,c),
(299,454,o),
(324,437,o),
(317,415,cs),
(292,328,o),
(232,179,o),
(153,131,c),
(111,110,o),
(55,133,o),
(45,180,c),
(40,197,o),
(40,216,o),
(40,234,c)
);
},
{
closed = 1;
nodes = (
(277,274,o),
(263,349,o),
(259,425,c),
(260,448,o),
(294,455,o),
(308,441,c),
(323,429,o),
(322,400,o),
(327,382,c),
(343,265,o),
(366,110,o),
(314,0,cs),
(282,-67,o),
(196,-108,o),
(127,-72,cs),
(101,-58,o),
(70,-35,o),
(70,-2,c),
(69,8,o),
(73,18,o),
(83,22,c),
(100,31,o),
(119,22,o),
(129,6,c),
(139,-4,o),
(143,-18,o),
(158,-22,c),
(180,-31,o),
(202,-21,o),
(219,-8,c),
(278,42,o),
(275,127,o),
(277,197,c)
);
}
);
width = 387;
}
);
leftKerningGroup = _kern39;
rightKerningGroup = _kern39;
unicode = 121;
},
{
glyphname = x;
layers = (
{
layerId = "EC70D3AE-AF6B-4669-B6F7-9C23D381EC59";
name = img;
width = 379;
},
{
layerId = "D6B6D460-257B-488B-8647-D4C61C54A5BD";
shapes = (
{
closed = 1;
nodes = (
(63,90,o),
(112,74,o),
(126,103,c),
(166,178,o),
(205,254,o),
(247,328,cs),
(269,368,o),
(295,405,o),
(314,446,c),
(315,467,o),
(293,480,o),
(274,479,c),
(266,479,o),
(258,476,o),
(254,469,cs),
(234,440,o),
(215,410,o),
(197,380,cs),
(149,296,o),
(102,211,o),
(65,121,c)
);
},
{
closed = 1;
nodes = (
(287,215,o),
(227,292,o),
(166,367,cs),
(143,394,o),
(120,420,o),
(96,446,cs),
(91,452,o),
(83,454,o),
(74,453,cs),
(56,451,o),
(36,435,o),
(41,414,c),
(65,376,o),
(98,344,o),
(125,307,c),
(178,241,o),
(229,173,o),
(280,105,c),
(298,79,o),
(345,102,o),
(338,132,c)
);
}
);
width = 379;
}
);
unicode = 120;
},
{
glyphname = w;
layers = (
{
layerId = "EC70D3AE-AF6B-4669-B6F7-9C23D381EC59";
name = img;
width = 581;
},
{
layerId = "D6B6D460-257B-488B-8647-D4C61C54A5BD";
shapes = (
{
closed = 1;
nodes = (
(140,99,o),
(112,124,o),
(101,155,c),
(83,200,o),
(70,248,o),
(60,295,cs),
(53,328,o),
(47,361,o),
(43,394,cs),
(42,404,o),
(40,415,o),
(40,425,c),
(42,438,o),
(57,444,o),
(69,443,cs),
(92,440,o),
(100,426,o),
(102,404,c),
(106,384,o),
(110,364,o),
(115,344,cs),
(129,283,o),
(145,222,o),
(166,162,c),
(166,162,o),
(167,161,o),
(167,162,c),
(175,172,o),
(179,183,o),
(184,194,c),
(208,256,o),
(229,319,o),
(245,383,cs),
(250,404,o),
(255,425,o),
(258,446,c),
(260,453,o),
(263,457,o),
(269,460,cs),
(287,470,o),
(313,459,o),
(318,439,c),
(314,404,o),
(306,369,o),
(299,335,c),
(282,268,o),
(259,202,o),
(230,139,cs),
(220,118,o),
(198,102,o),
(174,101,cs)
);
},
{
closed = 1;
nodes = (
(363,99,o),
(335,124,o),
(324,155,c),
(306,200,o),
(293,248,o),
(283,295,cs),
(276,328,o),
(270,361,o),
(266,394,cs),
(265,404,o),
(263,415,o),
(263,425,c),
(265,438,o),
(284,459,o),
(296,458,cs),
(318,456,o),
(323,426,o),
(325,404,c),
(329,384,o),
(333,364,o),
(338,344,cs),
(352,283,o),
(369,222,o),
(389,162,c),
(390,162,o),
(390,161,o),
(390,162,c),
(398,172,o),
(402,183,o),
(407,194,c),
(431,256,o),
(452,319,o),
(468,383,cs),
(473,404,o),
(478,425,o),
(482,446,cs),
(483,453,o),
(486,457,o),
(492,460,cs),
(510,470,o),
(536,459,o),
(541,439,c),
(537,404,o),
(529,369,o),
(522,335,c),
(505,268,o),
(482,202,o),
(453,139,cs),
(443,118,o),
(421,102,o),
(397,101,cs)
);
}
);
width = 581;
}
);
leftKerningGroup = _kern40;
rightKerningGroup = _kern40;
unicode = 119;
},
{
glyphname = v;
layers = (
{
layerId = "EC70D3AE-AF6B-4669-B6F7-9C23D381EC59";
name = img;
width = 358;
},
{
layerId = "D6B6D460-257B-488B-8647-D4C61C54A5BD";
shapes = (
{
closed = 1;
nodes = (
(140,99,o),
(112,124,o),
(101,155,c),
(83,200,o),
(70,248,o),
(60,295,cs),
(53,328,o),
(47,361,o),
(43,394,cs),
(42,404,o),
(40,415,o),
(40,425,c),
(42,438,o),
(57,444,o),
(69,443,cs),
(92,440,o),
(100,426,o),
(102,404,c),
(106,384,o),
(110,364,o),
(115,344,cs),
(129,283,o),
(145,222,o),
(166,162,c),
(166,162,o),
(167,161,o),
(167,162,c),
(175,172,o),
(179,183,o),
(184,194,c),
(208,256,o),
(229,319,o),
(245,383,cs),
(250,404,o),
(255,425,o),
(258,446,c),
(260,453,o),
(263,457,o),
(269,460,cs),
(287,470,o),
(313,459,o),
(318,439,c),
(314,404,o),
(306,369,o),
(299,335,c),
(282,268,o),
(259,202,o),
(230,139,cs),
(220,118,o),
(198,102,o),
(174,101,cs)
);
}
);
width = 358;
}
);
leftKerningGroup = _kern40;
rightKerningGroup = _kern40;
unicode = 118;
},
{
glyphname = u;
layers = (
{
layerId = "EC70D3AE-AF6B-4669-B6F7-9C23D381EC59";
name = img;
width = 364;
},
{
layerId = "D6B6D460-257B-488B-8647-D4C61C54A5BD";
shapes = (
{
closed = 1;
nodes = (
(251,89,o),
(254,130,o),
(254,160,c),
(256,236,o),
(258,312,o),
(261,388,c),
(263,407,o),
(259,427,o),
(265,444,c),
(276,461,o),
(303,459,o),
(315,445,c),
(326,435,o),
(322,419,o),
(323,406,c),
(324,337,o),
(322,267,o),
(320,198,c),
(320,169,o),
(320,141,o),
(316,112,c),
(315,99,o),
(305,92,o),
(292,91,cs)
);
},
{
closed = 1;
nodes = (
(41,297,o),
(53,361,o),
(70,422,c),
(74,432,o),
(73,445,o),
(84,450,cs),
(103,459,o),
(130,449,o),
(133,427,c),
(124,366,o),
(109,305,o),
(108,243,c),
(107,234,o),
(107,183,o),
(115,182,c),
(130,191,o),
(139,205,o),
(150,219,cs),
(162,236,o),
(174,253,o),
(184,272,c),
(207,311,o),
(223,354,o),
(241,396,cs),
(247,409,o),
(253,423,o),
(260,436,cs),
(264,444,o),
(270,449,o),
(279,450,c),
(299,454,o),
(324,437,o),
(317,415,cs),
(292,328,o),
(232,179,o),
(153,131,c),
(111,110,o),
(55,133,o),
(45,180,c),
(40,197,o),
(40,216,o),
(40,234,c)
);
}
);
width = 364;
}
);
leftKerningGroup = _kern39;
rightKerningGroup = _kern39;
unicode = 117;
},
{
glyphname = t;
layers = (
{
layerId = "EC70D3AE-AF6B-4669-B6F7-9C23D381EC59";
name = img;
width = 307;
},
{
layerId = "D6B6D460-257B-488B-8647-D4C61C54A5BD";
shapes = (
{
closed = 1;
nodes = (
(115,595,o),
(127,588,o),
(133,576,cs),
(139,563,o),
(128,538,o),
(127,523,cs),
(125,507,o),
(123,491,o),
(121,474,cs),
(112,406,o),
(109,338,o),
(112,269,c),
(116,233,o),
(113,152,o),
(166,161,c),
(184,162,o),
(206,147,o),
(203,128,c),
(196,99,o),
(158,98,o),
(135,104,cs),
(68,123,o),
(46,187,o),
(44,250,c),
(38,336,o),
(43,423,o),
(59,508,c),
(64,531,o),
(69,554,o),
(75,576,c),
(76,590,o),
(89,596,o),
(102,595,c)
);
},
{
closed = 1;
nodes = (
(0,457,o),
(37,451,o),
(58,454,c),
(86,455,o),
(115,457,o),
(144,458,cs),
(161,459,o),
(179,460,o),
(196,461,c),
(211,461,o),
(227,464,o),
(242,459,cs),
(262,453,o),
(277,425,o),
(258,410,c),
(237,396,o),
(185,404,o),
(158,402,c),
(118,401,o),
(79,401,o),
(39,401,cs),
(22,401,o),
(4,410,o),
(1,427,c)
);
}
);
width = 307;
}
);
leftKerningGroup = _kern38;
rightKerningGroup = _kern37;
unicode = 116;
},
{
glyphname = s;
layers = (
{
layerId = "EC70D3AE-AF6B-4669-B6F7-9C23D381EC59";
name = img;
width = 242;
},
{
layerId = "D6B6D460-257B-488B-8647-D4C61C54A5BD";
shapes = (
{
closed = 1;
nodes = (
(39,147,o),
(55,157,o),
(69,157,c),
(82,158,o),
(97,155,o),
(108,164,c),
(130,178,o),
(135,211,o),
(118,230,cs),
(104,247,o),
(86,259,o),
(73,277,c),
(30,329,o),
(43,412,o),
(105,443,c),
(125,454,o),
(148,457,o),
(171,455,c),
(205,454,o),
(216,405,o),
(177,404,cs),
(161,403,o),
(146,395,o),
(135,383,cs),
(121,368,o),
(116,345,o),
(121,325,cs),
(124,310,o),
(135,299,o),
(146,289,cs),
(162,274,o),
(178,259,o),
(188,240,cs),
(210,200,o),
(201,146,o),
(164,118,c),
(134,92,o),
(51,81,o),
(41,131,c)
);
}
);
width = 242;
}
);
leftKerningGroup = _kern36;
rightKerningGroup = _kern35;
unicode = 115;
},
{
glyphname = r;
layers = (
{
layerId = "EC70D3AE-AF6B-4669-B6F7-9C23D381EC59";
name = img;
width = 306;
},
{
layerId = "D6B6D460-257B-488B-8647-D4C61C54A5BD";
shapes = (
{
closed = 1;
nodes = (
(82,453,o),
(98,441,o),
(100,425,cs),
(101,410,o),
(101,394,o),
(103,379,c),
(106,336,o),
(110,294,o),
(115,251,cs),
(117,230,o),
(119,209,o),
(122,189,cs),
(124,170,o),
(130,152,o),
(129,133,c),
(122,99,o),
(68,111,o),
(64,142,c),
(59,171,o),
(55,201,o),
(51,230,c),
(46,281,o),
(42,331,o),
(41,381,cs),
(40,398,o),
(40,415,o),
(40,432,cs),
(40,446,o),
(54,453,o),
(66,453,cs)
);
},
{
closed = 1;
nodes = (
(263,373,o),
(244,367,o),
(231,371,c),
(191,381,o),
(164,339,o),
(146,310,cs),
(133,288,o),
(125,263,o),
(120,238,c),
(113,215,o),
(126,185,o),
(93,182,cs),
(79,181,o),
(67,188,o),
(60,199,c),
(56,208,o),
(58,219,o),
(57,228,c),
(59,270,o),
(72,310,o),
(93,346,cs),
(118,390,o),
(164,432,o),
(218,425,cs),
(238,423,o),
(267,414,o),
(265,389,cs)
);
}
);
width = 306;
}
);
leftKerningGroup = _kern30;
rightKerningGroup = _kern43;
unicode = 114;
},
{
glyphname = q;
layers = (
{
layerId = "EC70D3AE-AF6B-4669-B6F7-9C23D381EC59";
name = img;
width = 342;
},
{
layerId = "D6B6D460-257B-488B-8647-D4C61C54A5BD";
shapes = (
{
closed = 1;
nodes = (
(243,-116,o),
(225,-97,o),
(227,-75,c),
(227,-52,o),
(229,-30,o),
(230,-7,cs),
(232,57,o),
(234,122,o),
(233,186,c),
(218,158,o),
(201,128,o),
(174,109,cs),
(126,74,o),
(61,103,o),
(47,159,c),
(30,240,o),
(46,349,o),
(109,409,c),
(154,455,o),
(225,449,o),
(258,392,cs),
(264,381,o),
(269,370,o),
(273,358,cs),
(274,356,o),
(275,355,o),
(276,354,c),
(282,350,o),
(287,344,o),
(289,337,cs),
(303,270,o),
(301,201,o),
(302,133,c),
(301,84,o),
(300,34,o),
(298,-15,cs),
(297,-30,o),
(296,-46,o),
(296,-62,c),
(294,-83,o),
(294,-114,o),
(265,-115,cs)
);
},
{
closed = 1;
nodes = (
(112,195,o),
(111,165,o),
(121,153,c),
(156,171,o),
(179,226,o),
(194,261,cs),
(204,286,o),
(215,312,o),
(221,338,c),
(212,353,o),
(207,374,o),
(191,383,c),
(178,382,o),
(167,371,o),
(159,362,cs),
(122,322,o),
(111,265,o),
(111,212,c)
);
}
);
width = 342;
}
);
leftKerningGroup = _kern33;
rightKerningGroup = _kern33;
unicode = 113;
},
{
glyphname = p;
layers = (
{
layerId = "EC70D3AE-AF6B-4669-B6F7-9C23D381EC59";
name = img;
width = 401;
},
{
layerId = "D6B6D460-257B-488B-8647-D4C61C54A5BD";
shapes = (
{
closed = 1;
nodes = (
(358,216,o),
(235,139,o),
(138,143,c),
(117,145,o),
(84,148,o),
(73,168,cs),
(70,173,o),
(69,179,o),
(70,185,c),
(70,186,o),
(70,187,o),
(70,187,c),
(63,195,o),
(63,205,o),
(65,214,c),
(68,249,o),
(80,282,o),
(99,311,cs),
(135,365,o),
(199,400,o),
(264,403,cs),
(312,405,o),
(359,371,o),
(361,321,c)
);
},
{
closed = 1;
nodes = (
(291,350,o),
(276,344,o),
(258,341,cs),
(229,335,o),
(203,321,o),
(181,301,cs),
(153,275,o),
(133,242,o),
(125,206,c),
(122,201,o),
(157,207,o),
(160,208,cs),
(215,220,o),
(283,265,o),
(291,325,c)
);
},
{
closed = 1;
nodes = (
(135,-127,o),
(80,-120,o),
(73,-88,c),
(61,-42,o),
(58,8,o),
(52,56,cs),
(40,167,o),
(38,280,o),
(45,392,cs),
(46,418,o),
(45,441,o),
(77,439,c),
(90,437,o),
(102,428,o),
(105,414,cs),
(107,404,o),
(105,393,o),
(105,383,c),
(100,276,o),
(104,169,o),
(115,63,cs),
(119,12,o),
(130,-38,o),
(135,-89,c)
);
}
);
width = 401;
}
);
rightKerningGroup = _kern24;
unicode = 112;
},
{
glyphname = o;
layers = (
{
layerId = "EC70D3AE-AF6B-4669-B6F7-9C23D381EC59";
name = img;
width = 340;
},
{
layerId = "D6B6D460-257B-488B-8647-D4C61C54A5BD";
shapes = (
{
closed = 1;
nodes = (
(302,201,o),
(285,157,o),
(249,132,cs),
(169,78,o),
(63,131,o),
(44,221,cs),
(31,277,o),
(51,340,o),
(90,380,c),
(116,405,o),
(154,417,o),
(189,409,cs),
(262,393,o),
(296,311,o),
(299,244,c)
);
},
{
closed = 1;
nodes = (
(225,275,o),
(208,332,o),
(181,347,c),
(135,346,o),
(115,278,o),
(115,240,c),
(114,208,o),
(127,176,o),
(163,173,c),
(203,171,o),
(227,209,o),
(225,245,c)
);
}
);
width = 340;
}
);
leftKerningGroup = _kern26;
rightKerningGroup = _kern25;
unicode = 111;
},
{
glyphname = n;
layers = (
{
layerId = "EC70D3AE-AF6B-4669-B6F7-9C23D381EC59";
name = img;
width = 382;
},
{
layerId = "D6B6D460-257B-488B-8647-D4C61C54A5BD";
shapes = (
{
closed = 1;
nodes = (
(106,443,o),
(102,405,o),
(104,376,cs),
(108,335,o),
(110,293,o),
(112,252,c),
(113,200,o),
(121,147,o),
(116,95,c),
(107,72,o),
(74,75,o),
(60,92,c),
(52,100,o),
(54,113,o),
(52,123,c),
(49,149,o),
(48,176,o),
(47,202,cs),
(45,252,o),
(43,302,o),
(42,352,cs),
(42,365,o),
(42,379,o),
(41,392,c),
(42,415,o),
(34,438,o),
(65,442,c)
);
},
{
closed = 1;
nodes = (
(279,141,o),
(276,174,o),
(273,198,cs),
(271,219,o),
(269,241,o),
(265,262,cs),
(258,294,o),
(255,328,o),
(244,359,c),
(240,365,o),
(236,378,o),
(227,376,c),
(216,372,o),
(207,363,o),
(199,355,cs),
(163,315,o),
(139,266,o),
(123,215,cs),
(118,200,o),
(114,185,o),
(111,170,c),
(109,164,o),
(108,158,o),
(103,155,cs),
(88,143,o),
(66,149,o),
(55,163,cs),
(43,177,o),
(52,200,o),
(54,217,c),
(68,288,o),
(115,386,o),
(181,422,c),
(210,436,o),
(246,434,o),
(272,414,c),
(303,388,o),
(313,346,o),
(323,308,c),
(330,277,o),
(334,246,o),
(338,215,cs),
(341,196,o),
(343,176,o),
(340,157,cs),
(338,142,o),
(322,136,o),
(309,138,cs)
);
}
);
width = 382;
}
);
leftKerningGroup = _kern30;
rightKerningGroup = _kern28;
unicode = 110;
},
{
glyphname = m;
layers = (
{
layerId = "EC70D3AE-AF6B-4669-B6F7-9C23D381EC59";
name = img;
width = 594;
},
{
layerId = "D6B6D460-257B-488B-8647-D4C61C54A5BD";
shapes = (
{
closed = 1;
nodes = (
(279,93,o),
(273,112,o),
(269,138,cs),
(265,162,o),
(263,186,o),
(260,210,cs),
(252,265,o),
(245,323,o),
(221,374,c),
(221,375,o),
(220,375,o),
(219,374,c),
(198,357,o),
(183,334,o),
(170,310,cs),
(146,263,o),
(135,211,o),
(126,159,cs),
(123,144,o),
(121,128,o),
(118,112,cs),
(116,96,o),
(100,90,o),
(86,92,c),
(56,100,o),
(56,117,o),
(60,145,c),
(64,186,o),
(70,227,o),
(81,267,cs),
(98,327,o),
(146,444,o),
(223,434,cs),
(284,425,o),
(295,355,o),
(309,306,c),
(336,375,o),
(407,487,o),
(486,408,c),
(518,362,o),
(527,297,o),
(539,243,c),
(543,216,o),
(547,190,o),
(550,163,cs),
(552,144,o),
(561,101,o),
(537,94,cs),
(522,89,o),
(503,95,o),
(494,109,c),
(486,131,o),
(485,155,o),
(482,177,cs),
(477,221,o),
(469,264,o),
(459,307,cs),
(454,330,o),
(448,353,o),
(437,374,c),
(437,374,o),
(436,375,o),
(436,374,c),
(414,358,o),
(400,334,o),
(387,311,c),
(363,264,o),
(352,212,o),
(342,161,cs),
(340,150,o),
(338,139,o),
(337,128,cs),
(334,109,o),
(332,92,o),
(309,92,c)
);
},
{
closed = 1;
nodes = (
(106,443,o),
(102,405,o),
(104,376,cs),
(108,335,o),
(110,293,o),
(112,252,c),
(113,200,o),
(121,147,o),
(116,95,c),
(107,72,o),
(74,75,o),
(60,92,c),
(52,100,o),
(54,113,o),
(52,123,c),
(49,149,o),
(48,176,o),
(47,202,cs),
(45,252,o),
(43,302,o),
(42,352,cs),
(42,365,o),
(42,379,o),
(41,392,c),
(42,415,o),
(34,438,o),
(65,442,c)
);
}
);
width = 594;
}
);
leftKerningGroup = _kern30;
rightKerningGroup = _kern28;
unicode = 109;
},
{
glyphname = l;
layers = (
{
layerId = "EC70D3AE-AF6B-4669-B6F7-9C23D381EC59";
name = img;
width = 175;
},
{
layerId = "D6B6D460-257B-488B-8647-D4C61C54A5BD";
shapes = (
{
closed = 1;
nodes = (
(135,88,o),
(115,81,o),
(101,84,c),
(75,88,o),
(70,115,o),
(67,137,c),
(43,274,o),
(35,414,o),
(45,553,c),
(47,567,o),
(43,585,o),
(58,592,cs),
(72,599,o),
(89,595,o),
(99,584,cs),
(112,570,o),
(103,550,o),
(104,534,c),
(101,445,o),
(104,356,o),
(113,268,c),
(117,213,o),
(129,160,o),
(135,105,c)
);
}
);
width = 175;
}
);
leftKerningGroup = _kern23;
rightKerningGroup = _kern32;
unicode = 108;
},
{
glyphname = k;
layers = (
{
layerId = "EC70D3AE-AF6B-4669-B6F7-9C23D381EC59";
name = img;
width = 349;
},
{
layerId = "D6B6D460-257B-488B-8647-D4C61C54A5BD";
shapes = (
{
closed = 1;
nodes = (
(260,153,o),
(240,159,o),
(220,165,c),
(180,179,o),
(140,192,o),
(101,206,cs),
(86,212,o),
(74,225,o),
(75,242,c),
(78,257,o),
(91,267,o),
(100,279,cs),
(131,318,o),
(164,355,o),
(201,387,c),
(217,398,o),
(247,431,o),
(265,427,c),
(281,426,o),
(299,414,o),
(298,396,cs),
(297,389,o),
(293,384,o),
(288,380,cs),
(277,369,o),
(267,357,o),
(256,346,cs),
(227,314,o),
(197,282,o),
(170,249,cs),
(169,247,o),
(169,247,o),
(170,247,c),
(182,243,o),
(194,239,o),
(206,234,cs),
(237,222,o),
(283,212,o),
(304,187,c),
(316,169,o),
(301,151,o),
(282,152,cs)
);
},
{
closed = 1;
nodes = (
(135,88,o),
(115,81,o),
(101,84,c),
(75,88,o),
(70,115,o),
(67,137,c),
(43,274,o),
(35,414,o),
(45,553,c),
(47,567,o),
(43,585,o),
(58,592,cs),
(72,599,o),
(89,595,o),
(99,584,cs),
(112,570,o),
(103,550,o),
(104,534,c),
(101,445,o),
(104,356,o),
(113,268,c),
(117,213,o),
(129,160,o),
(135,105,c)
);
}
);
width = 349;
}
);
leftKerningGroup = _kern23;
rightKerningGroup = _kern31;
unicode = 107;
},
{
glyphname = j;
layers = (
{
layerId = "EC70D3AE-AF6B-4669-B6F7-9C23D381EC59";
name = img;
width = 185;
},
{
layerId = "D6B6D460-257B-488B-8647-D4C61C54A5BD";
shapes = (
{
closed = 1;
nodes = (
(103,-52,o),
(86,-43,o),
(82,-27,cs),
(79,-11,o),
(78,6,o),
(76,22,c),
(74,67,o),
(70,241,o),
(68,285,cs),
(66,330,o),
(65,376,o),
(65,421,c),
(68,453,o),
(121,446,o),
(125,415,cs),
(128,385,o),
(130,355,o),
(132,326,cs),
(135,273,o),
(140,91,o),
(143,39,cs),
(144,21,o),
(145,3,o),
(144,-15,c),
(145,-35,o),
(140,-50,o),
(118,-51,cs)
);
},
{
closed = 1;
nodes = (
(106,535,o),
(129,519,o),
(132,496,cs),
(133,483,o),
(127,471,o),
(115,465,c),
(92,451,o),
(56,463,o),
(45,488,c),
(31,515,o),
(56,539,o),
(83,537,cs)
);
}
);
width = 185;
}
);
leftKerningGroup = _kern30;
rightKerningGroup = _kern29;
unicode = 106;
},
{
glyphname = i;
layers = (
{
layerId = "EC70D3AE-AF6B-4669-B6F7-9C23D381EC59";
name = img;
width = 182;
},
{
layerId = "D6B6D460-257B-488B-8647-D4C61C54A5BD";
shapes = (
{
closed = 1;
nodes = (
(100,78,o),
(83,87,o),
(79,103,cs),
(76,119,o),
(75,136,o),
(73,152,c),
(71,197,o),
(70,241,o),
(68,285,cs),
(66,330,o),
(65,376,o),
(65,421,c),
(68,453,o),
(121,446,o),
(125,415,cs),
(128,385,o),
(130,355,o),
(132,326,cs),
(135,273,o),
(137,221,o),
(140,169,cs),
(141,151,o),
(142,133,o),
(141,115,c),
(142,95,o),
(137,80,o),
(115,79,cs)
);
},
{
closed = 1;
nodes = (
(106,535,o),
(129,519,o),
(132,496,cs),
(133,483,o),
(127,471,o),
(115,465,c),
(92,451,o),
(56,463,o),
(45,488,c),
(31,515,o),
(56,539,o),
(83,537,cs)
);
}
);
width = 182;
}
);
leftKerningGroup = _kern30;
rightKerningGroup = _kern29;
unicode = 105;
},
{
glyphname = h;
layers = (
{
layerId = "EC70D3AE-AF6B-4669-B6F7-9C23D381EC59";
name = img;
width = 394;
},
{
layerId = "D6B6D460-257B-488B-8647-D4C61C54A5BD";
shapes = (
{
closed = 1;
nodes = (
(135,88,o),
(115,81,o),
(101,84,c),
(75,88,o),
(70,115,o),
(67,137,c),
(43,274,o),
(35,414,o),
(45,553,c),
(47,567,o),
(43,585,o),
(58,592,cs),
(72,599,o),
(89,595,o),
(99,584,cs),
(112,570,o),
(103,550,o),
(104,534,c),
(101,445,o),
(104,356,o),
(113,268,c),
(117,213,o),
(129,160,o),
(135,105,c)
);
},
{
closed = 1;
nodes = (
(291,141,o),
(289,174,o),
(286,198,cs),
(283,219,o),
(281,241,o),
(277,262,cs),
(271,294,o),
(267,328,o),
(256,359,c),
(253,365,o),
(249,378,o),
(240,376,c),
(228,372,o),
(219,363,o),
(211,355,cs),
(175,315,o),
(151,266,o),
(136,215,cs),
(131,200,o),
(127,185,o),
(123,170,cs),
(122,164,o),
(121,158,o),
(115,155,c),
(101,143,o),
(79,149,o),
(67,163,cs),
(56,177,o),
(65,200,o),
(66,217,c),
(80,288,o),
(127,386,o),
(193,422,c),
(222,436,o),
(259,434,o),
(284,414,cs),
(316,388,o),
(326,346,o),
(335,308,cs),
(342,277,o),
(347,246,o),
(351,215,cs),
(353,196,o),
(356,176,o),
(352,157,c),
(351,142,o),
(335,136,o),
(322,138,c)
);
}
);
width = 394;
}
);
leftKerningGroup = _kern23;
rightKerningGroup = _kern28;
unicode = 104;
},
{
glyphname = g;
layers = (
{
layerId = "EC70D3AE-AF6B-4669-B6F7-9C23D381EC59";
name = img;
width = 345;
},
{
layerId = "D6B6D460-257B-488B-8647-D4C61C54A5BD";
shapes = (
{
closed = 1;
nodes = (
(222,443,o),
(258,401,o),
(272,357,c),
(278,350,o),
(286,346,o),
(287,336,c),
(294,310,o),
(298,284,o),
(301,257,cs),
(308,175,o),
(310,34,o),
(269,-38,cs),
(243,-86,o),
(187,-120,o),
(131,-109,cs),
(99,-102,o),
(67,-83,o),
(51,-53,c),
(46,-40,o),
(39,-20,o),
(52,-10,cs),
(70,3,o),
(97,-5,o),
(106,-24,c),
(121,-63,o),
(160,-59,o),
(186,-34,c),
(240,15,o),
(236,126,o),
(237,195,c),
(221,164,o),
(204,132,o),
(175,110,cs),
(125,72,o),
(56,104,o),
(45,164,cs),
(27,259,o),
(57,424,o),
(172,439,c)
);
},
{
closed = 1;
nodes = (
(110,192,o),
(110,172,o),
(119,154,c),
(122,151,o),
(131,160,o),
(133,162,cs),
(178,210,o),
(199,275,o),
(220,336,c),
(215,347,o),
(201,382,o),
(188,383,c),
(128,360,o),
(110,269,o),
(110,212,cs)
);
}
);
width = 345;
}
);
leftKerningGroup = _kern33;
rightKerningGroup = _kern33;
unicode = 103;
},
{
glyphname = f;
layers = (
{
layerId = "EC70D3AE-AF6B-4669-B6F7-9C23D381EC59";
name = img;
width = 288;
},
{
layerId = "D6B6D460-257B-488B-8647-D4C61C54A5BD";
shapes = (
{
closed = 1;
nodes = (
(247,481,o),
(210,478,o),
(195,496,c),
(182,508,o),
(194,525,o),
(174,533,c),
(117,532,o),
(109,441,o),
(106,398,cs),
(101,334,o),
(104,270,o),
(111,206,cs),
(113,189,o),
(116,171,o),
(118,154,cs),
(120,137,o),
(126,121,o),
(123,104,c),
(116,73,o),
(68,79,o),
(58,105,c),
(52,116,o),
(51,129,o),
(50,142,cs),
(47,164,o),
(43,186,o),
(41,209,c),
(30,302,o),
(21,439,o),
(60,525,c),
(77,560,o),
(111,587,o),
(150,590,cs),
(196,593,o),
(248,559,o),
(247,509,c)
);
},
{
closed = 1;
nodes = (
(230,375,o),
(190,378,o),
(168,377,c),
(139,377,o),
(109,377,o),
(79,378,c),
(63,378,o),
(47,378,o),
(31,380,c),
(12,381,o),
(-9,404,o),
(6,422,cs),
(19,437,o),
(70,432,o),
(91,434,cs),
(109,435,o),
(128,435,o),
(146,436,c),
(174,435,o),
(222,442,o),
(230,406,c)
);
}
);
width = 288;
}
);
leftKerningGroup = _kern27;
rightKerningGroup = _kern44;
unicode = 102;
},
{
glyphname = e;
layers = (
{
layerId = "EC70D3AE-AF6B-4669-B6F7-9C23D381EC59";
name = img;
width = 338;
},
{
layerId = "D6B6D460-257B-488B-8647-D4C61C54A5BD";
shapes = (
{
closed = 1;
nodes = (
(87,99,o),
(29,192,o),
(43,279,c),
(49,341,o),
(82,416,o),
(153,421,cs),
(195,424,o),
(237,401,o),
(261,366,cs),
(285,333,o),
(300,283,o),
(269,250,c),
(232,214,o),
(163,218,o),
(117,231,cs),
(114,232,o),
(116,226,o),
(116,225,c),
(119,207,o),
(125,190,o),
(138,178,c),
(155,159,o),
(182,168,o),
(202,177,cs),
(223,186,o),
(247,210,o),
(271,205,c),
(286,201,o),
(299,189,o),
(297,173,c),
(292,154,o),
(272,143,o),
(257,131,c),
(234,117,o),
(208,107,o),
(181,105,cs)
);
},
{
closed = 1;
nodes = (
(218,327,o),
(203,341,o),
(192,355,c),
(170,374,o),
(142,347,o),
(133,326,cs),
(129,317,o),
(125,307,o),
(123,297,c),
(122,296,o),
(123,296,o),
(124,296,c),
(133,293,o),
(141,288,o),
(151,287,c),
(170,283,o),
(221,279,o),
(219,308,cs)
);
}
);
width = 338;
}
);
leftKerningGroup = _kern26;
rightKerningGroup = _kern25;
unicode = 101;
},
{
glyphname = d;
layers = (
{
layerId = "EC70D3AE-AF6B-4669-B6F7-9C23D381EC59";
name = img;
width = 375;
},
{
layerId = "D6B6D460-257B-488B-8647-D4C61C54A5BD";
shapes = (
{
closed = 1;
nodes = (
(268,589,o),
(285,580,o),
(291,565,c),
(294,547,o),
(290,528,o),
(290,510,cs),
(290,474,o),
(291,437,o),
(293,401,cs),
(298,331,o),
(307,262,o),
(320,193,cs),
(325,167,o),
(333,141,o),
(335,115,c),
(330,84,o),
(281,92,o),
(274,119,c),
(259,162,o),
(251,207,o),
(243,252,c),
(225,197,o),
(194,97,o),
(132,80,c),
(60,69,o),
(37,144,o),
(41,202,cs),
(45,287,o),
(101,410,o),
(202,395,c),
(204,395,o),
(204,395,o),
(204,397,c),
(206,408,o),
(208,420,o),
(210,431,cs),
(215,466,o),
(220,500,o),
(225,535,c),
(229,556,o),
(223,584,o),
(252,587,cs)
);
},
{
closed = 1;
nodes = (
(109,172,o),
(109,155,o),
(114,140,c),
(114,139,o),
(114,139,o),
(115,140,c),
(146,173,o),
(162,217,o),
(175,259,cs),
(183,287,o),
(189,315,o),
(195,343,c),
(195,348,o),
(178,341,o),
(176,339,cs),
(129,309,o),
(108,241,o),
(108,187,c)
);
}
);
width = 375;
}
);
leftKerningGroup = _kern42;
rightKerningGroup = _kern42;
unicode = 100;
},
{
glyphname = c;
layers = (
{
layerId = "EC70D3AE-AF6B-4669-B6F7-9C23D381EC59";
name = img;
width = 338;
},
{
layerId = "D6B6D460-257B-488B-8647-D4C61C54A5BD";
shapes = (
{
closed = 1;
nodes = (
(298,158,o),
(273,144,o),
(258,133,cs),
(198,90,o),
(114,96,o),
(69,158,cs),
(35,204,o),
(36,265,o),
(50,318,c),
(67,396,o),
(137,448,o),
(214,408,cs),
(252,388,o),
(275,349,o),
(287,309,c),
(289,300,o),
(287,293,o),
(280,288,c),
(263,273,o),
(234,283,o),
(227,304,c),
(211,359,o),
(163,389,o),
(132,325,c),
(114,279,o),
(100,217,o),
(138,177,c),
(173,147,o),
(215,190,o),
(249,203,c),
(267,211,o),
(293,199,o),
(297,179,c)
);
}
);
width = 338;
}
);
leftKerningGroup = _kern26;
rightKerningGroup = _kern25;
unicode = 99;
},
{
glyphname = b;
layers = (
{
layerId = "EC70D3AE-AF6B-4669-B6F7-9C23D381EC59";
name = img;
width = 403;
},
{
layerId = "D6B6D460-257B-488B-8647-D4C61C54A5BD";
shapes = (
{
closed = 1;
nodes = (
(135,72,o),
(80,79,o),
(73,108,c),
(61,151,o),
(58,197,o),
(52,241,cs),
(40,344,o),
(38,448,o),
(45,551,c),
(46,576,o),
(45,597,o),
(77,595,cs),
(90,594,o),
(102,585,o),
(105,572,cs),
(107,562,o),
(105,553,o),
(105,543,c),
(100,445,o),
(104,346,o),
(115,247,cs),
(119,201,o),
(130,154,o),
(135,108,c)
);
},
{
closed = 1;
nodes = (
(360,216,o),
(237,139,o),
(140,143,c),
(119,145,o),
(86,148,o),
(75,168,cs),
(72,173,o),
(71,179,o),
(72,185,c),
(72,186,o),
(72,187,o),
(72,187,c),
(65,195,o),
(65,205,o),
(67,214,c),
(70,249,o),
(82,282,o),
(101,311,cs),
(137,365,o),
(201,400,o),
(266,403,cs),
(314,405,o),
(361,371,o),
(363,321,c)
);
},
{
closed = 1;
nodes = (
(293,350,o),
(278,344,o),
(260,341,cs),
(231,335,o),
(205,321,o),
(183,301,cs),
(155,275,o),
(135,242,o),
(127,206,c),
(124,201,o),
(159,207,o),
(162,208,cs),
(217,220,o),
(285,265,o),
(293,325,c)
);
}
);
width = 403;
}
);
leftKerningGroup = _kern23;
rightKerningGroup = _kern24;
unicode = 98;
},
{
glyphname = a;
layers = (
{
layerId = "EC70D3AE-AF6B-4669-B6F7-9C23D381EC59";
name = img;
width = 406;
},
{
layerId = "D6B6D460-257B-488B-8647-D4C61C54A5BD";
shapes = (
{
closed = 1;
nodes = (
(54,105,o),
(34,163,o),
(43,223,c),
(52,298,o),
(90,378,o),
(159,414,c),
(211,439,o),
(279,426,o),
(314,380,c),
(325,368,o),
(331,354,o),
(341,342,c),
(347,322,o),
(347,299,o),
(351,279,c),
(354,255,o),
(358,232,o),
(362,208,cs),
(363,198,o),
(364,188,o),
(365,178,cs),
(366,167,o),
(366,154,o),
(354,149,cs),
(336,140,o),
(311,149,o),
(306,169,cs),
(298,199,o),
(296,229,o),
(291,259,c),
(247,199,o),
(204,117,o),
(123,106,c)
);
},
{
closed = 1;
nodes = (
(108,177,o),
(108,170,o),
(111,163,c),
(112,158,o),
(122,165,o),
(125,166,c),
(171,193,o),
(199,241,o),
(229,283,cs),
(243,303,o),
(257,323,o),
(274,340,c),
(276,344,o),
(265,353,o),
(263,356,c),
(173,414,o),
(105,255,o),
(109,184,c)
);
}
);
width = 406;
}
);
leftKerningGroup = _kern22;
rightKerningGroup = _kern21;
unicode = 97;
},
{
glyphname = germandbls;
layers = (
{
layerId = "EC70D3AE-AF6B-4669-B6F7-9C23D381EC59";
name = img;
width = 371;
},
{
layerId = "D6B6D460-257B-488B-8647-D4C61C54A5BD";
shapes = (
{
closed = 1;
nodes = (
(170,102,o),
(146,131,o),
(169,150,cs),
(182,160,o),
(198,165,o),
(212,176,cs),
(232,190,o),
(252,209,o),
(257,234,c),
(262,268,o),
(207,279,o),
(182,283,cs),
(162,286,o),
(142,287,o),
(121,288,c),
(104,287,o),
(86,292,o),
(77,308,cs),
(69,321,o),
(75,335,o),
(86,343,c),
(99,357,o),
(112,370,o),
(125,384,c),
(149,414,o),
(212,475,o),
(194,515,cs),
(181,546,o),
(144,551,o),
(114,547,c),
(99,547,o),
(82,538,o),
(67,545,c),
(46,552,o),
(37,585,o),
(63,592,cs),
(97,601,o),
(133,606,o),
(167,598,cs),
(223,585,o),
(276,535,o),
(265,474,cs),
(256,421,o),
(215,381,o),
(182,341,c),
(262,332,o),
(370,275,o),
(316,181,c),
(291,141,o),
(242,100,o),
(193,101,cs)
);
},
{
closed = 1;
nodes = (
(134,88,o),
(114,81,o),
(100,84,c),
(80,87,o),
(71,105,o),
(68,123,cs),
(42,264,o),
(35,407,o),
(44,549,c),
(46,564,o),
(41,585,o),
(57,592,cs),
(79,603,o),
(110,585,o),
(104,560,c),
(99,463,o),
(102,365,o),
(112,268,c),
(116,213,o),
(128,159,o),
(134,105,c)
);
}
);
width = 371;
}
);
rightKerningGroup = _kern3;
unicode = 223;
},
{
glyphname = exclam;
layers = (
{
layerId = "EC70D3AE-AF6B-4669-B6F7-9C23D381EC59";
name = img;
width = 173;
},
{
layerId = "D6B6D460-257B-488B-8647-D4C61C54A5BD";
shapes = (
{
closed = 1;
nodes = (
(80,582,o),
(80,563,o),
(83,538,cs),
(85,522,o),
(87,505,o),
(90,489,cs),
(99,431,o),
(105,372,o),
(112,314,cs),
(116,282,o),
(122,250,o),
(121,218,c),
(121,207,o),
(121,194,o),
(110,189,c),
(93,179,o),
(67,188,o),
(62,208,cs),
(46,265,o),
(46,325,o),
(38,384,cs),
(33,428,o),
(30,472,o),
(26,516,cs),
(24,532,o),
(22,548,o),
(21,563,c),
(18,579,o),
(36,588,o),
(50,587,c)
);
},
{
closed = 1;
nodes = (
(45,98,o),
(30,177,o),
(100,177,c),
(160,173,o),
(176,93,o),
(106,93,c)
);
}
);
width = 173;
}
);
unicode = 33;
},
{
glyphname = quotedbl;
layers = (
{
layerId = "EC70D3AE-AF6B-4669-B6F7-9C23D381EC59";
name = img;
width = 185;
},
{
layerId = "D6B6D460-257B-488B-8647-D4C61C54A5BD";
shapes = (
{
closed = 1;
nodes = (
(85,535,o),
(86,526,o),
(85,518,c),
(78,495,o),
(44,498,o),
(32,515,cs),
(23,526,o),
(25,552,o),
(22,567,c),
(20,592,o),
(15,629,o),
(52,625,cs),
(90,621,o),
(83,573,o),
(86,544,c)
);
},
{
closed = 1;
nodes = (
(164,535,o),
(165,526,o),
(163,518,cs),
(156,495,o),
(122,498,o),
(110,515,cs),
(101,526,o),
(103,552,o),
(101,567,cs),
(99,592,o),
(93,629,o),
(130,625,cs),
(169,621,o),
(162,573,o),
(164,544,c)
);
}
);
width = 185;
}
);
unicode = 34;
},
{
glyphname = numbersign;
layers = (
{
layerId = "EC70D3AE-AF6B-4669-B6F7-9C23D381EC59";
name = img;
width = 446;
},
{
layerId = "D6B6D460-257B-488B-8647-D4C61C54A5BD";
shapes = (
{
closed = 1;
nodes = (
(158,75,o),
(101,83,o),
(98,114,c),
(68,260,o),
(59,411,o),
(68,559,c),
(70,575,o),
(65,596,o),
(82,603,c),
(94,609,o),
(109,606,o),
(119,598,cs),
(126,592,o),
(130,585,o),
(129,575,cs),
(128,562,o),
(128,549,o),
(127,536,cs),
(121,393,o),
(135,251,o),
(160,110,c)
);
},
{
closed = 1;
nodes = (
(40,362,o),
(20,374,o),
(21,394,c),
(23,402,o),
(27,408,o),
(36,411,cs),
(92,428,o),
(149,441,o),
(207,451,cs),
(250,459,o),
(294,466,o),
(338,469,cs),
(364,470,o),
(405,480,o),
(414,446,c),
(415,414,o),
(373,422,o),
(352,417,c),
(319,414,o),
(285,410,o),
(252,405,cs),
(186,396,o),
(122,380,o),
(58,364,c)
);
},
{
closed = 1;
nodes = (
(51,212,o),
(31,223,o),
(32,243,cs),
(33,252,o),
(38,258,o),
(47,261,cs),
(103,278,o),
(160,291,o),
(218,301,cs),
(261,309,o),
(305,315,o),
(349,319,c),
(375,320,o),
(416,329,o),
(425,296,c),
(426,264,o),
(384,271,o),
(363,267,c),
(330,264,o),
(296,260,o),
(263,255,cs),
(197,246,o),
(133,230,o),
(69,213,c)
);
},
{
closed = 1;
nodes = (
(375,75,o),
(318,83,o),
(315,114,c),
(285,260,o),
(276,411,o),
(284,559,c),
(286,575,o),
(282,596,o),
(299,603,c),
(311,609,o),
(326,606,o),
(336,598,cs),
(343,592,o),
(347,585,o),
(346,575,cs),
(345,562,o),
(345,549,o),
(344,536,cs),
(338,393,o),
(352,251,o),
(376,110,c)
);
}
);
width = 446;
}
);
unicode = 35;
},
{
glyphname = dollar;
layers = (
{
layerId = "EC70D3AE-AF6B-4669-B6F7-9C23D381EC59";
name = img;
width = 266;
},
{
layerId = "D6B6D460-257B-488B-8647-D4C61C54A5BD";
shapes = (
{
closed = 1;
nodes = (
(18,507,o),
(54,557,o),
(101,580,c),
(103,602,o),
(92,640,o),
(124,642,cs),
(154,644,o),
(165,614,o),
(163,589,c),
(162,587,o),
(182,586,o),
(185,584,c),
(209,579,o),
(266,559,o),
(238,528,c),
(216,511,o),
(194,538,o),
(170,534,c),
(149,532,o),
(128,523,o),
(113,507,cs),
(97,489,o),
(89,463,o),
(92,439,c),
(102,381,o),
(158,350,o),
(193,308,c),
(242,257,o),
(263,163,o),
(207,110,cs),
(198,102,o),
(187,97,o),
(176,95,c),
(175,94,o),
(175,94,o),
(175,93,cs),
(175,80,o),
(175,68,o),
(175,55,cs),
(175,50,o),
(173,45,o),
(168,41,cs),
(150,28,o),
(120,38,o),
(116,61,c),
(116,72,o),
(116,84,o),
(115,96,c),
(115,97,o),
(115,98,o),
(114,98,c),
(90,105,o),
(19,144,o),
(43,174,c),
(58,191,o),
(83,181,o),
(96,166,c),
(128,144,o),
(163,133,o),
(173,182,c),
(192,298,o),
(27,327,o),
(21,453,cs)
);
}
);
width = 266;
}
);
unicode = 36;
},
{
glyphname = percent;
layers = (
{
layerId = "EC70D3AE-AF6B-4669-B6F7-9C23D381EC59";
name = img;
width = 491;
},
{
layerId = "D6B6D460-257B-488B-8647-D4C61C54A5BD";
shapes = (
{
closed = 1;
nodes = (
(151,99,o),
(140,104,o),
(134,115,cs),
(125,131,o),
(137,149,o),
(142,165,c),
(185,282,o),
(233,398,o),
(287,510,cs),
(297,532,o),
(308,553,o),
(319,575,c),
(323,586,o),
(332,595,o),
(344,595,c),
(360,597,o),
(378,586,o),
(380,569,cs),
(381,562,o),
(378,557,o),
(375,551,cs),
(363,527,o),
(352,503,o),
(340,479,c),
(287,364,o),
(238,247,o),
(196,128,c),
(191,111,o),
(183,95,o),
(163,97,cs)
);
},
{
closed = 1;
nodes = (
(477,75,o),
(281,47,o),
(275,188,c),
(279,322,o),
(457,347,o),
(470,207,c)
);
},
{
closed = 1;
nodes = (
(351,96,o),
(432,196,o),
(403,235,c),
(396,248,o),
(380,250,o),
(370,239,cs),
(354,223,o),
(343,201,o),
(342,178,c)
);
},
{
closed = 1;
nodes = (
(222,369,o),
(26,341,o),
(20,483,c),
(23,617,o),
(202,642,o),
(215,502,c)
);
},
{
closed = 1;
nodes = (
(96,391,o),
(177,491,o),
(148,530,c),
(141,542,o),
(124,545,o),
(115,534,c),
(99,518,o),
(88,496,o),
(87,473,c)
);
}
);
width = 491;
}
);
unicode = 37;
},
{
glyphname = ampersand;
layers = (
{
layerId = "EC70D3AE-AF6B-4669-B6F7-9C23D381EC59";
name = img;
width = 387;
},
{
layerId = "D6B6D460-257B-488B-8647-D4C61C54A5BD";
shapes = (
{
closed = 1;
nodes = (
(201,598,o),
(239,587,o),
(265,560,c),
(334,473,o),
(215,382,o),
(164,318,c),
(163,317,o),
(163,316,o),
(164,316,c),
(175,302,o),
(187,289,o),
(199,276,c),
(211,265,o),
(224,254,o),
(237,245,cs),
(239,244,o),
(239,244,o),
(239,245,c),
(245,256,o),
(249,267,o),
(253,279,cs),
(259,295,o),
(262,312,o),
(264,330,cs),
(266,356,o),
(264,378,o),
(298,376,c),
(360,366,o),
(320,254,o),
(303,218,cs),
(302,216,o),
(297,210,o),
(300,209,cs),
(315,202,o),
(330,197,o),
(345,192,c),
(357,189,o),
(366,179,o),
(367,167,c),
(363,123,o),
(295,159,o),
(272,167,c),
(212,92,o),
(89,51,o),
(31,152,c),
(-1,217,o),
(48,281,o),
(85,330,c),
(16,427,o),
(20,585,o),
(165,597,c)
);
},
{
closed = 1;
nodes = (
(106,426,o),
(115,400,o),
(126,376,c),
(127,375,o),
(127,375,o),
(128,376,c),
(160,413,o),
(198,449,o),
(217,495,c),
(243,571,o),
(98,553,o),
(106,453,c)
);
},
{
closed = 1;
nodes = (
(159,151,o),
(187,176,o),
(208,200,c),
(181,220,o),
(150,249,o),
(126,272,c),
(101,242,o),
(60,158,o),
(124,150,c)
);
}
);
width = 387;
}
);
unicode = 38;
},
{
glyphname = quotesingle;
layers = (
{
layerId = "EC70D3AE-AF6B-4669-B6F7-9C23D381EC59";
name = img;
width = 106;
},
{
layerId = "D6B6D460-257B-488B-8647-D4C61C54A5BD";
shapes = (
{
closed = 1;
nodes = (
(85,535,o),
(86,526,o),
(85,518,c),
(78,495,o),
(44,498,o),
(32,515,cs),
(23,526,o),
(25,552,o),
(22,567,c),
(20,592,o),
(15,629,o),
(52,625,cs),
(90,621,o),
(83,573,o),
(86,544,c)
);
}
);
width = 106;
}
);
unicode = 39;
},
{
glyphname = parenleft;
layers = (
{
layerId = "EC70D3AE-AF6B-4669-B6F7-9C23D381EC59";
name = img;
width = 194;
},
{
layerId = "D6B6D460-257B-488B-8647-D4C61C54A5BD";
shapes = (
{
closed = 1;
nodes = (
(19,408,o),
(58,527,o),
(116,633,cs),
(123,645,o),
(139,648,o),
(152,644,cs),
(165,639,o),
(178,624,o),
(172,609,c),
(159,582,o),
(147,555,o),
(137,527,c),
(91,413,o),
(68,284,o),
(104,164,cs),
(110,144,o),
(117,125,o),
(126,106,c),
(132,91,o),
(145,78,o),
(147,62,c),
(147,29,o),
(98,31,o),
(85,55,c),
(41,123,o),
(23,205,o),
(21,286,cs)
);
}
);
width = 194;
}
);
unicode = 40;
},
{
glyphname = parenright;
layers = (
{
layerId = "EC70D3AE-AF6B-4669-B6F7-9C23D381EC59";
name = img;
width = 194;
},
{
layerId = "D6B6D460-257B-488B-8647-D4C61C54A5BD";
shapes = (
{
closed = 1;
nodes = (
(65,36,o),
(38,57,o),
(50,79,cs),
(66,107,o),
(79,136,o),
(89,166,cs),
(136,314,o),
(90,472,o),
(26,608,c),
(10,633,o),
(34,653,o),
(60,643,cs),
(80,636,o),
(84,611,o),
(94,595,c),
(150,483,o),
(184,357,o),
(170,231,cs),
(163,167,o),
(144,103,o),
(109,49,c),
(104,40,o),
(95,38,o),
(86,37,cs)
);
}
);
width = 194;
}
);
unicode = 41;
},
{
glyphname = asterisk;
layers = (
{
layerId = "EC70D3AE-AF6B-4669-B6F7-9C23D381EC59";
name = img;
width = 213;
},
{
layerId = "D6B6D460-257B-488B-8647-D4C61C54A5BD";
shapes = (
{
closed = 1;
nodes = (
(195,562,o),
(176,561,o),
(159,557,c),
(157,557,o),
(157,557,o),
(158,555,cs),
(162,544,o),
(173,531,o),
(166,519,cs),
(151,496,o),
(119,507,o),
(109,529,c),
(105,517,o),
(102,502,o),
(88,499,cs),
(61,493,o),
(38,514,o),
(50,542,c),
(50,544,o),
(50,544,o),
(49,544,c),
(35,546,o),
(23,555,o),
(21,569,cs),
(19,584,o),
(35,596,o),
(49,593,c),
(54,593,o),
(63,590,o),
(66,595,c),
(72,609,o),
(72,631,o),
(89,637,c),
(109,642,o),
(134,628,o),
(138,607,c),
(140,604,o),
(159,611,o),
(165,609,c),
(179,607,o),
(191,596,o),
(192,584,cs)
);
}
);
width = 213;
}
);
unicode = 42;
},
{
glyphname = plus;
layers = (
{
layerId = "EC70D3AE-AF6B-4669-B6F7-9C23D381EC59";
name = img;
width = 327;
},
{
layerId = "D6B6D460-257B-488B-8647-D4C61C54A5BD";
shapes = (
{
closed = 1;
nodes = (
(136,160,o),
(134,177,o),
(131,204,cs),
(126,242,o),
(126,283,o),
(122,319,c),
(101,317,o),
(80,315,o),
(59,312,c),
(33,307,o),
(2,345,o),
(33,361,c),
(62,370,o),
(96,369,o),
(124,377,c),
(124,389,o),
(124,401,o),
(125,414,cs),
(127,445,o),
(129,477,o),
(132,508,c),
(137,537,o),
(181,533,o),
(192,510,cs),
(199,497,o),
(192,477,o),
(192,461,c),
(191,435,o),
(190,409,o),
(190,383,cs),
(190,381,o),
(190,381,o),
(191,381,c),
(222,382,o),
(253,387,o),
(283,380,cs),
(306,374,o),
(317,342,o),
(291,332,cs),
(279,327,o),
(266,328,o),
(253,328,c),
(239,327,o),
(225,326,o),
(211,326,c),
(208,325,o),
(190,326,o),
(190,323,c),
(191,285,o),
(193,247,o),
(195,210,cs),
(196,182,o),
(206,156,o),
(167,155,c)
);
}
);
width = 327;
}
);
unicode = 43;
},
{
glyphname = comma;
layers = (
{
layerId = "EC70D3AE-AF6B-4669-B6F7-9C23D381EC59";
name = img;
width = 121;
},
{
layerId = "D6B6D460-257B-488B-8647-D4C61C54A5BD";
shapes = (
{
closed = 1;
nodes = (
(101,90,o),
(96,68,o),
(81,54,cs),
(65,38,o),
(34,43,o),
(24,63,c),
(13,81,o),
(33,96,o),
(33,114,cs),
(33,121,o),
(33,129,o),
(34,136,cs),
(37,150,o),
(53,155,o),
(65,153,c),
(87,151,o),
(99,130,o),
(101,110,c)
);
}
);
width = 121;
}
);
unicode = 44;
},
{
glyphname = hyphen;
layers = (
{
layerId = "EC70D3AE-AF6B-4669-B6F7-9C23D381EC59";
name = img;
width = 328;
},
{
layerId = "D6B6D460-257B-488B-8647-D4C61C54A5BD";
shapes = (
{
closed = 1;
nodes = (
(225,324,o),
(177,327,o),
(129,327,cs),
(115,327,o),
(101,327,o),
(87,327,cs),
(72,327,o),
(56,324,o),
(42,329,cs),
(16,338,o),
(12,373,o),
(42,378,c),
(55,379,o),
(68,379,o),
(81,380,cs),
(146,382,o),
(213,383,o),
(278,374,c),
(318,365,o),
(319,319,o),
(274,322,c)
);
}
);
width = 328;
}
);
unicode = 45;
},
{
glyphname = period;
layers = (
{
layerId = "EC70D3AE-AF6B-4669-B6F7-9C23D381EC59";
name = img;
width = 137;
},
{
layerId = "D6B6D460-257B-488B-8647-D4C61C54A5BD";
shapes = (
{
closed = 1;
nodes = (
(110,99,o),
(85,88,o),
(59,95,cs),
(33,101,o),
(16,123,o),
(21,144,cs),
(26,164,o),
(51,175,o),
(77,169,cs),
(104,162,o),
(121,140,o),
(116,120,cs)
);
}
);
width = 137;
}
);
unicode = 46;
},
{
glyphname = slash;
layers = (
{
layerId = "EC70D3AE-AF6B-4669-B6F7-9C23D381EC59";
name = img;
width = 292;
},
{
layerId = "D6B6D460-257B-488B-8647-D4C61C54A5BD";
shapes = (
{
closed = 1;
nodes = (
(42,99,o),
(30,104,o),
(24,115,cs),
(15,131,o),
(28,149,o),
(32,165,c),
(75,282,o),
(123,398,o),
(177,510,cs),
(188,532,o),
(199,553,o),
(209,575,cs),
(214,586,o),
(222,595,o),
(234,595,c),
(251,597,o),
(268,586,o),
(271,569,cs),
(272,562,o),
(268,557,o),
(265,551,cs),
(253,527,o),
(242,503,o),
(231,479,cs),
(178,364,o),
(128,247,o),
(87,128,cs),
(81,111,o),
(74,95,o),
(53,97,c)
);
}
);
width = 292;
}
);
unicode = 47;
},
{
glyphname = zero;
layers = (
{
layerId = "EC70D3AE-AF6B-4669-B6F7-9C23D381EC59";
name = img;
width = 363;
},
{
layerId = "D6B6D460-257B-488B-8647-D4C61C54A5BD";
shapes = (
{
closed = 1;
nodes = (
(328,583,o),
(354,396,o),
(339,276,c),
(334,183,o),
(253,85,o),
(153,104,cs),
(-45,137,o),
(-7,588,o),
(177,589,c)
);
},
{
closed = 1;
nodes = (
(276,406,o),
(265,510,o),
(199,534,c),
(167,540,o),
(141,515,o),
(127,490,c),
(77,406,o),
(63,293,o),
(109,205,c),
(126,169,o),
(163,145,o),
(200,166,c),
(263,198,o),
(278,278,o),
(277,344,cs)
);
}
);
width = 363;
}
);
unicode = 48;
},
{
glyphname = one;
layers = (
{
layerId = "EC70D3AE-AF6B-4669-B6F7-9C23D381EC59";
name = img;
width = 209;
},
{
layerId = "D6B6D460-257B-488B-8647-D4C61C54A5BD";
shapes = (
{
closed = 1;
nodes = (
(28,497,o),
(72,567,o),
(108,589,c),
(143,598,o),
(175,564,o),
(181,532,cs),
(187,504,o),
(186,475,o),
(187,446,c),
(187,370,o),
(188,294,o),
(188,219,c),
(187,182,o),
(191,145,o),
(187,108,c),
(182,83,o),
(146,84,o),
(131,99,cs),
(120,109,o),
(121,125,o),
(120,138,c),
(120,161,o),
(120,183,o),
(120,206,cs),
(119,309,o),
(118,413,o),
(119,516,c),
(102,495,o),
(88,470,o),
(79,445,cs),
(76,438,o),
(72,434,o),
(65,432,cs),
(47,425,o),
(23,436,o),
(20,457,c)
);
}
);
width = 209;
}
);
unicode = 49;
},
{
glyphname = two;
layers = (
{
layerId = "EC70D3AE-AF6B-4669-B6F7-9C23D381EC59";
name = img;
width = 320;
},
{
layerId = "D6B6D460-257B-488B-8647-D4C61C54A5BD";
shapes = (
{
closed = 1;
nodes = (
(300,99,o),
(255,106,o),
(232,106,cs),
(188,106,o),
(144,106,o),
(100,106,cs),
(84,106,o),
(69,105,o),
(53,106,c),
(36,109,o),
(16,124,o),
(21,144,c),
(22,151,o),
(26,156,o),
(31,160,cs),
(54,177,o),
(75,195,o),
(94,215,cs),
(130,252,o),
(163,294,o),
(184,342,cs),
(204,388,o),
(230,480,o),
(188,519,c),
(164,538,o),
(128,527,o),
(110,504,c),
(81,474,o),
(95,443,o),
(72,436,cs),
(54,430,o),
(32,441,o),
(27,459,c),
(26,475,o),
(31,490,o),
(36,505,cs),
(74,611,o),
(233,609,o),
(268,502,c),
(302,377,o),
(227,250,o),
(140,164,c),
(179,163,o),
(218,165,o),
(257,163,c),
(276,164,o),
(297,154,o),
(300,133,c)
);
}
);
width = 320;
}
);
unicode = 50;
},
{
glyphname = three;
layers = (
{
layerId = "EC70D3AE-AF6B-4669-B6F7-9C23D381EC59";
name = img;
width = 332;
},
{
layerId = "D6B6D460-257B-488B-8647-D4C61C54A5BD";
shapes = (
{
closed = 1;
nodes = (
(144,99,o),
(113,109,o),
(87,127,cs),
(67,142,o),
(2,199,o),
(25,225,cs),
(31,232,o),
(40,236,o),
(49,235,cs),
(83,232,o),
(96,196,o),
(121,177,c),
(141,159,o),
(173,148,o),
(198,165,c),
(233,193,o),
(217,248,o),
(185,272,c),
(177,279,o),
(168,284,o),
(158,290,cs),
(141,301,o),
(112,306,o),
(110,331,cs),
(109,344,o),
(119,353,o),
(130,357,cs),
(141,362,o),
(151,368,o),
(161,375,cs),
(194,398,o),
(222,432,o),
(236,470,cs),
(244,490,o),
(250,520,o),
(227,533,cs),
(211,543,o),
(190,542,o),
(172,534,cs),
(137,519,o),
(113,489,o),
(89,461,cs),
(73,442,o),
(35,455,o),
(33,480,cs),
(32,495,o),
(68,531,o),
(79,544,c),
(136,605,o),
(232,619,o),
(291,552,c),
(338,493,o),
(296,410,o),
(252,362,cs),
(240,349,o),
(226,337,o),
(212,327,cs),
(210,326,o),
(210,326,o),
(212,325,cs),
(250,299,o),
(283,259,o),
(286,211,c),
(292,144,o),
(242,95,o),
(175,98,cs)
);
}
);
width = 332;
}
);
unicode = 51;
},
{
glyphname = four;
layers = (
{
layerId = "EC70D3AE-AF6B-4669-B6F7-9C23D381EC59";
name = img;
width = 353;
},
{
layerId = "D6B6D460-257B-488B-8647-D4C61C54A5BD";
shapes = (
{
closed = 1;
nodes = (
(248,100,o),
(259,134,o),
(258,163,c),
(258,190,o),
(258,217,o),
(258,243,c),
(257,246,o),
(260,264,o),
(257,263,c),
(241,263,o),
(224,264,o),
(208,264,cs),
(178,264,o),
(147,265,o),
(117,265,c),
(95,266,o),
(72,263,o),
(52,274,c),
(29,284,o),
(15,311,o),
(22,335,c),
(43,392,o),
(140,560,o),
(191,584,c),
(206,587,o),
(222,580,o),
(229,566,cs),
(234,558,o),
(232,549,o),
(227,542,cs),
(217,526,o),
(207,510,o),
(196,494,cs),
(163,446,o),
(132,396,o),
(105,345,cs),
(104,342,o),
(92,323,o),
(96,324,c),
(115,324,o),
(134,323,o),
(153,323,c),
(182,322,o),
(212,321,o),
(241,321,c),
(247,320,o),
(252,320,o),
(258,320,cs),
(259,320,o),
(259,320,o),
(259,322,c),
(261,398,o),
(262,474,o),
(265,550,c),
(265,566,o),
(263,587,o),
(282,593,cs),
(299,599,o),
(319,592,o),
(329,577,cs),
(333,570,o),
(333,562,o),
(333,554,c),
(332,535,o),
(332,516,o),
(331,498,cs),
(330,459,o),
(328,421,o),
(327,383,cs),
(325,319,o),
(323,256,o),
(320,192,cs),
(319,173,o),
(318,154,o),
(317,136,c),
(317,112,o),
(317,93,o),
(287,94,c)
);
}
);
width = 353;
}
);
unicode = 52;
},
{
glyphname = five;
layers = (
{
layerId = "EC70D3AE-AF6B-4669-B6F7-9C23D381EC59";
name = img;
width = 360;
},
{
layerId = "D6B6D460-257B-488B-8647-D4C61C54A5BD";
shapes = (
{
closed = 1;
nodes = (
(126,92,o),
(66,112,o),
(31,156,cs),
(23,166,o),
(17,180,o),
(22,192,cs),
(28,206,o),
(47,209,o),
(61,204,cs),
(75,198,o),
(86,187,o),
(99,178,c),
(151,136,o),
(240,149,o),
(268,214,c),
(291,262,o),
(256,308,o),
(204,304,c),
(179,303,o),
(155,293,o),
(130,288,cs),
(68,275,o),
(36,311,o),
(39,371,c),
(36,432,o),
(34,493,o),
(32,554,c),
(30,567,o),
(39,576,o),
(51,578,c),
(92,595,o),
(338,616,o),
(311,537,c),
(307,529,o),
(298,525,o),
(289,524,c),
(225,532,o),
(160,542,o),
(96,530,c),
(102,468,o),
(106,407,o),
(110,345,c),
(371,435,o),
(430,119,o),
(181,93,c)
);
}
);
width = 360;
}
);
unicode = 53;
},
{
glyphname = six;
layers = (
{
layerId = "EC70D3AE-AF6B-4669-B6F7-9C23D381EC59";
name = img;
width = 349;
},
{
layerId = "D6B6D460-257B-488B-8647-D4C61C54A5BD";
shapes = (
{
closed = 1;
nodes = (
(329,166,o),
(249,93,o),
(166,97,cs),
(41,102,o),
(12,241,o),
(22,344,cs),
(31,449,o),
(90,607,o),
(221,588,c),
(247,585,o),
(323,541,o),
(284,512,c),
(271,505,o),
(252,509,o),
(242,520,cs),
(239,524,o),
(235,527,o),
(231,528,cs),
(163,540,o),
(129,460,o),
(112,408,cs),
(106,390,o),
(101,371,o),
(99,352,c),
(98,351,o),
(99,350,o),
(100,351,c),
(137,366,o),
(178,374,o),
(217,367,cs),
(275,357,o),
(329,311,o),
(329,249,cs)
);
},
{
closed = 1;
nodes = (
(257,298,o),
(209,310,o),
(176,302,cs),
(148,295,o),
(123,282,o),
(98,270,c),
(95,267,o),
(98,259,o),
(98,255,c),
(100,242,o),
(102,230,o),
(106,218,cs),
(113,192,o),
(129,160,o),
(161,161,cs),
(209,162,o),
(252,209,o),
(255,256,cs)
);
}
);
width = 349;
}
);
unicode = 54;
},
{
glyphname = seven;
layers = (
{
layerId = "EC70D3AE-AF6B-4669-B6F7-9C23D381EC59";
name = img;
width = 314;
},
{
layerId = "D6B6D460-257B-488B-8647-D4C61C54A5BD";
shapes = (
{
closed = 1;
nodes = (
(262,600,o),
(215,602,o),
(175,595,c),
(141,591,o),
(106,586,o),
(72,582,c),
(51,579,o),
(14,578,o),
(21,548,c),
(35,510,o),
(87,528,o),
(118,528,c),
(141,531,o),
(163,533,o),
(186,535,cs),
(197,536,o),
(208,538,o),
(219,538,cs),
(220,538,o),
(221,538,o),
(221,537,c),
(222,444,o),
(218,351,o),
(218,258,c),
(217,232,o),
(217,206,o),
(217,181,c),
(215,149,o),
(212,100,o),
(254,96,c),
(300,95,o),
(287,154,o),
(289,184,c),
(290,225,o),
(291,267,o),
(291,308,cs),
(291,360,o),
(292,412,o),
(292,464,c),
(292,496,o),
(298,530,o),
(284,560,c)
);
}
);
width = 314;
}
);
unicode = 55;
},
{
glyphname = eight;
layers = (
{
layerId = "EC70D3AE-AF6B-4669-B6F7-9C23D381EC59";
name = img;
width = 369;
},
{
layerId = "D6B6D460-257B-488B-8647-D4C61C54A5BD";
shapes = (
{
closed = 1;
nodes = (
(49,99,o),
(-23,266,o),
(106,362,c),
(107,363,o),
(107,363,o),
(106,364,c),
(90,374,o),
(75,385,o),
(62,399,cs),
(42,420,o),
(26,446,o),
(22,475,cs),
(11,547,o),
(86,596,o),
(151,599,cs),
(295,606,o),
(391,449,o),
(266,347,c),
(265,346,o),
(265,346,o),
(266,345,c),
(306,319,o),
(343,280,o),
(348,231,cs),
(356,151,o),
(274,97,o),
(202,99,c)
);
},
{
closed = 1;
nodes = (
(229,161,o),
(272,186,o),
(275,228,c),
(275,280,o),
(209,307,o),
(171,328,c),
(143,309,o),
(116,276,o),
(113,240,cs),
(110,195,o),
(145,162,o),
(189,162,c)
);
},
{
closed = 1;
nodes = (
(103,429,o),
(160,406,o),
(198,384,c),
(226,406,o),
(255,439,o),
(248,478,cs),
(240,519,o),
(191,544,o),
(152,532,c),
(127,526,o),
(97,508,o),
(98,479,c)
);
}
);
width = 369;
}
);
unicode = 56;
},
{
glyphname = nine;
layers = (
{
layerId = "EC70D3AE-AF6B-4669-B6F7-9C23D381EC59";
name = img;
width = 395;
},
{
layerId = "D6B6D460-257B-488B-8647-D4C61C54A5BD";
shapes = (
{
closed = 1;
nodes = (
(20,452,o),
(35,508,o),
(73,547,cs),
(124,601,o),
(220,609,o),
(272,552,c),
(273,551,o),
(273,551,o),
(274,552,c),
(280,563,o),
(283,576,o),
(293,584,cs),
(309,596,o),
(332,591,o),
(346,578,c),
(359,564,o),
(358,542,o),
(362,525,cs),
(365,508,o),
(368,492,o),
(369,475,c),
(378,401,o),
(375,325,o),
(362,252,cs),
(354,208,o),
(346,162,o),
(318,125,cs),
(274,65,o),
(184,69,o),
(127,110,cs),
(106,125,o),
(53,172,o),
(76,200,c),
(91,215,o),
(118,212,o),
(132,197,cs),
(155,172,o),
(183,138,o),
(222,146,c),
(296,158,o),
(302,371,o),
(299,432,c),
(273,383,o),
(256,327,o),
(216,288,c),
(129,209,o),
(17,294,o),
(21,399,c)
);
},
{
closed = 1;
nodes = (
(94,359,o),
(115,290,o),
(162,335,c),
(193,369,o),
(206,415,o),
(227,454,c),
(232,465,o),
(237,475,o),
(241,485,c),
(239,502,o),
(226,515,o),
(213,524,c),
(196,534,o),
(175,529,o),
(158,521,cs),
(113,499,o),
(95,445,o),
(96,398,c)
);
}
);
width = 395;
}
);
unicode = 57;
},
{
glyphname = colon;
layers = (
{
layerId = "EC70D3AE-AF6B-4669-B6F7-9C23D381EC59";
name = img;
width = 137;
},
{
layerId = "D6B6D460-257B-488B-8647-D4C61C54A5BD";
shapes = (
{
closed = 1;
nodes = (
(110,398,o),
(85,387,o),
(59,394,cs),
(33,400,o),
(16,422,o),
(21,442,cs),
(26,463,o),
(51,474,o),
(77,468,cs),
(104,461,o),
(121,439,o),
(116,419,cs)
);
},
{
closed = 1;
nodes = (
(110,258,o),
(85,246,o),
(59,253,cs),
(33,259,o),
(16,281,o),
(21,302,cs),
(26,322,o),
(51,333,o),
(77,327,cs),
(104,320,o),
(121,298,o),
(116,278,cs)
);
}
);
width = 137;
}
);
unicode = 58;
},
{
glyphname = semicolon;
layers = (
{
layerId = "EC70D3AE-AF6B-4669-B6F7-9C23D381EC59";
name = img;
width = 137;
},
{
layerId = "D6B6D460-257B-488B-8647-D4C61C54A5BD";
shapes = (
{
closed = 1;
nodes = (
(108,257,o),
(103,235,o),
(88,221,c),
(73,205,o),
(42,210,o),
(32,230,c),
(21,248,o),
(41,263,o),
(40,281,c),
(41,288,o),
(40,295,o),
(41,302,cs),
(44,316,o),
(60,321,o),
(73,320,cs),
(95,317,o),
(106,297,o),
(108,277,c)
);
},
{
closed = 1;
nodes = (
(110,398,o),
(85,387,o),
(59,394,cs),
(33,400,o),
(16,422,o),
(21,442,cs),
(26,463,o),
(51,474,o),
(77,468,cs),
(104,461,o),
(121,439,o),
(116,419,cs)
);
}
);
width = 137;
}
);
unicode = 59;
},
{
glyphname = less;
layers = (
{
layerId = "EC70D3AE-AF6B-4669-B6F7-9C23D381EC59";
name = img;
width = 283;
},
{
layerId = "D6B6D460-257B-488B-8647-D4C61C54A5BD";
shapes = (
{
closed = 1;
nodes = (
(261,554,o),
(256,547,o),
(251,540,cs),
(220,497,o),
(187,455,o),
(155,413,c),
(134,380,o),
(80,334,o),
(91,293,c),
(99,269,o),
(115,250,o),
(129,229,cs),
(153,193,o),
(185,163,o),
(214,130,c),
(230,109,o),
(208,83,o),
(185,87,c),
(167,88,o),
(153,102,o),
(141,114,cs),
(105,152,o),
(72,193,o),
(45,239,c),
(29,264,o),
(17,293,o),
(21,323,c),
(24,357,o),
(46,385,o),
(66,411,cs),
(93,446,o),
(119,480,o),
(146,515,c),
(166,536,o),
(198,594,o),
(225,595,cs),
(243,596,o),
(263,583,o),
(262,563,cs)
);
}
);
width = 283;
}
);
unicode = 60;
},
{
glyphname = equal;
layers = (
{
layerId = "EC70D3AE-AF6B-4669-B6F7-9C23D381EC59";
name = img;
width = 328;
},
{
layerId = "D6B6D460-257B-488B-8647-D4C61C54A5BD";
shapes = (
{
closed = 1;
nodes = (
(225,373,o),
(177,376,o),
(129,376,cs),
(115,376,o),
(101,376,o),
(87,376,cs),
(72,376,o),
(56,373,o),
(42,378,cs),
(16,386,o),
(12,421,o),
(42,427,c),
(55,428,o),
(68,428,o),
(81,429,cs),
(146,431,o),
(213,432,o),
(278,423,c),
(318,414,o),
(319,368,o),
(274,370,cs)
);
},
{
closed = 1;
nodes = (
(225,259,o),
(177,262,o),
(129,262,cs),
(115,262,o),
(101,262,o),
(87,261,c),
(72,262,o),
(56,259,o),
(42,264,cs),
(16,272,o),
(12,307,o),
(42,312,cs),
(55,314,o),
(68,314,o),
(81,315,cs),
(146,317,o),
(213,318,o),
(278,309,c),
(318,300,o),
(319,254,o),
(274,256,cs)
);
}
);
width = 328;
}
);
unicode = 61;
},
{
glyphname = greater;
layers = (
{
layerId = "EC70D3AE-AF6B-4669-B6F7-9C23D381EC59";
name = img;
width = 284;
},
{
layerId = "D6B6D460-257B-488B-8647-D4C61C54A5BD";
shapes = (
{
closed = 1;
nodes = (
(23,554,o),
(27,547,o),
(32,540,cs),
(63,497,o),
(96,455,o),
(128,413,c),
(149,380,o),
(203,334,o),
(192,293,c),
(184,269,o),
(168,250,o),
(154,229,cs),
(130,193,o),
(98,163,o),
(69,130,c),
(53,109,o),
(75,83,o),
(98,87,c),
(116,88,o),
(130,102,o),
(142,114,cs),
(178,152,o),
(212,193,o),
(238,239,c),
(254,264,o),
(266,293,o),
(263,323,cs),
(259,357,o),
(237,385,o),
(217,411,cs),
(191,446,o),
(164,480,o),
(137,515,c),
(118,536,o),
(85,594,o),
(59,595,cs),
(41,596,o),
(20,583,o),
(21,563,c)
);
}
);
width = 284;
}
);
unicode = 62;
},
{
glyphname = question;
layers = (
{
layerId = "EC70D3AE-AF6B-4669-B6F7-9C23D381EC59";
name = img;
width = 317;
},
{
layerId = "D6B6D460-257B-488B-8647-D4C61C54A5BD";
shapes = (
{
closed = 1;
nodes = (
(17,560,o),
(109,609,o),
(183,595,c),
(257,588,o),
(323,515,o),
(285,442,c),
(263,394,o),
(209,371,o),
(185,324,cs),
(165,286,o),
(170,253,o),
(173,212,c),
(166,184,o),
(122,189,o),
(111,213,cs),
(101,234,o),
(99,257,o),
(99,279,c),
(101,338,o),
(135,389,o),
(180,424,c),
(197,440,o),
(215,457,o),
(223,479,cs),
(239,522,o),
(194,545,o),
(157,540,c),
(130,539,o),
(104,524,o),
(92,499,c),
(76,471,o),
(93,455,o),
(80,440,c),
(64,424,o),
(34,432,o),
(25,452,cs),
(22,460,o),
(22,469,o),
(21,477,c)
);
},
{
closed = 1;
nodes = (
(188,99,o),
(162,88,o),
(136,95,cs),
(110,101,o),
(93,123,o),
(98,144,cs),
(103,164,o),
(128,175,o),
(155,169,c),
(181,162,o),
(198,140,o),
(193,120,cs)
);
}
);
width = 317;
}
);
unicode = 63;
},
{
glyphname = underscore;
layers = (
{
layerId = "EC70D3AE-AF6B-4669-B6F7-9C23D381EC59";
name = img;
width = 328;
},
{
layerId = "D6B6D460-257B-488B-8647-D4C61C54A5BD";
shapes = (
{
closed = 1;
nodes = (
(158,148,o),
(189,148,o),
(219,146,c),
(248,142,o),
(300,151,o),
(308,113,c),
(308,80,o),
(266,89,o),
(244,90,cs),
(221,91,o),
(198,92,o),
(175,93,cs),
(133,95,o),
(91,92,o),
(49,93,c),
(21,97,o),
(7,135,o),
(40,144,c),
(69,147,o),
(98,147,o),
(128,148,c)
);
}
);
width = 328;
}
);
unicode = 95;
},
{
glyphname = asciicircum;
layers = (
{
layerId = "EC70D3AE-AF6B-4669-B6F7-9C23D381EC59";
name = img;
width = 228;
},
{
layerId = "D6B6D460-257B-488B-8647-D4C61C54A5BD";
shapes = (
{
closed = 1;
nodes = (
(208,474,o),
(172,469,o),
(155,484,c),
(140,499,o),
(128,517,o),
(113,531,c),
(112,532,o),
(111,532,o),
(111,531,c),
(98,517,o),
(87,503,o),
(76,487,cs),
(70,479,o),
(59,477,o),
(50,478,cs),
(36,480,o),
(23,489,o),
(21,503,c),
(20,521,o),
(43,543,o),
(53,558,c),
(65,571,o),
(77,587,o),
(95,590,cs),
(133,597,o),
(158,560,o),
(182,537,c),
(192,526,o),
(204,516,o),
(207,501,c)
);
}
);
width = 228;
}
);
unicode = 94;
},
{
glyphname = bracketright;
layers = (
{
layerId = "EC70D3AE-AF6B-4669-B6F7-9C23D381EC59";
name = img;
width = 201;
},
{
layerId = "D6B6D460-257B-488B-8647-D4C61C54A5BD";
shapes = (
{
closed = 1;
nodes = (
(19,554,o),
(34,543,o),
(48,544,cs),
(63,545,o),
(77,550,o),
(92,547,cs),
(110,544,o),
(109,524,o),
(111,510,c),
(112,495,o),
(112,480,o),
(113,465,cs),
(116,407,o),
(117,350,o),
(116,292,cs),
(115,263,o),
(114,234,o),
(113,205,cs),
(112,189,o),
(112,172,o),
(109,156,cs),
(108,151,o),
(107,145,o),
(100,146,c),
(87,146,o),
(75,151,o),
(62,151,c),
(46,152,o),
(30,143,o),
(25,127,cs),
(16,94,o),
(67,91,o),
(90,89,c),
(105,89,o),
(121,93,o),
(134,100,c),
(180,121,o),
(178,175,o),
(179,218,cs),
(182,328,o),
(181,439,o),
(171,548,c),
(165,590,o),
(119,609,o),
(81,602,cs),
(59,598,o),
(27,594,o),
(21,569,c)
);
}
);
width = 201;
}
);
unicode = 93;
},
{
glyphname = backslash;
layers = (
{
layerId = "EC70D3AE-AF6B-4669-B6F7-9C23D381EC59";
name = img;
width = 292;
},
{
layerId = "D6B6D460-257B-488B-8647-D4C61C54A5BD";
shapes = (
{
closed = 1;
nodes = (
(250,99,o),
(262,104,o),
(268,115,cs),
(277,131,o),
(264,149,o),
(260,165,c),
(217,282,o),
(169,398,o),
(115,510,cs),
(104,532,o),
(93,553,o),
(82,575,c),
(78,586,o),
(70,595,o),
(58,595,c),
(41,597,o),
(24,586,o),
(21,569,cs),
(20,562,o),
(24,557,o),
(27,551,cs),
(38,527,o),
(50,503,o),
(61,479,cs),
(114,364,o),
(164,247,o),
(205,128,cs),
(211,111,o),
(218,95,o),
(239,97,c)
);
}
);
width = 292;
}
);
unicode = 92;
},
{
glyphname = bracketleft;
layers = (
{
layerId = "EC70D3AE-AF6B-4669-B6F7-9C23D381EC59";
name = img;
width = 200;
},
{
layerId = "D6B6D460-257B-488B-8647-D4C61C54A5BD";
shapes = (
{
closed = 1;
nodes = (
(182,554,o),
(166,543,o),
(152,544,cs),
(138,545,o),
(123,550,o),
(109,547,cs),
(91,544,o),
(91,524,o),
(90,510,cs),
(89,495,o),
(88,480,o),
(87,465,cs),
(84,407,o),
(84,350,o),
(85,292,cs),
(85,263,o),
(86,234,o),
(87,205,cs),
(88,189,o),
(88,172,o),
(91,156,c),
(93,151,o),
(93,145,o),
(100,146,c),
(113,146,o),
(126,151,o),
(139,151,c),
(154,152,o),
(171,143,o),
(176,127,cs),
(185,94,o),
(133,91,o),
(111,89,c),
(95,89,o),
(80,93,o),
(66,100,cs),
(21,121,o),
(23,175,o),
(22,218,cs),
(18,328,o),
(20,439,o),
(30,548,c),
(35,590,o),
(82,609,o),
(120,602,cs),
(141,598,o),
(173,594,o),
(179,569,cs)
);
}
);
width = 200;
}
);
unicode = 91;
},
{
glyphname = braceleft;
layers = (
{
layerId = "EC70D3AE-AF6B-4669-B6F7-9C23D381EC59";
name = img;
width = 222;
},
{
layerId = "D6B6D460-257B-488B-8647-D4C61C54A5BD";
shapes = (
{
closed = 1;
nodes = (
(169,594,o),
(196,587,o),
(201,564,cs),
(203,552,o),
(194,542,o),
(183,539,c),
(177,536,o),
(170,540,o),
(165,538,c),
(148,525,o),
(150,501,o),
(150,483,c),
(152,429,o),
(161,365,o),
(115,325,cs),
(112,323,o),
(110,321,o),
(107,319,c),
(106,318,o),
(107,317,o),
(107,316,c),
(135,279,o),
(125,230,o),
(128,186,c),
(130,177,o),
(131,164,o),
(141,160,c),
(181,164,o),
(210,116,o),
(162,101,c),
(104,89,o),
(54,146,o),
(57,202,c),
(55,230,o),
(65,259,o),
(56,287,cs),
(54,294,o),
(50,301,o),
(43,303,cs),
(29,307,o),
(20,320,o),
(21,335,c),
(27,371,o),
(67,338,o),
(80,403,c),
(85,437,o),
(77,471,o),
(79,505,c),
(80,547,o),
(102,592,o),
(149,593,cs)
);
}
);
width = 222;
}
);
unicode = 123;
},
{
glyphname = bar;
layers = (
{
layerId = "EC70D3AE-AF6B-4669-B6F7-9C23D381EC59";
name = img;
width = 136;
},
{
layerId = "D6B6D460-257B-488B-8647-D4C61C54A5BD";
shapes = (
{
closed = 1;
nodes = (
(115,75,o),
(58,83,o),
(54,114,c),
(24,260,o),
(15,411,o),
(24,559,c),
(26,575,o),
(21,596,o),
(39,603,c),
(51,609,o),
(65,606,o),
(75,598,cs),
(82,592,o),
(87,585,o),
(86,575,cs),
(85,562,o),
(84,549,o),
(84,536,c),
(77,393,o),
(91,251,o),
(116,110,c)
);
}
);
width = 136;
}
);
unicode = 124;
},
{
glyphname = braceright;
layers = (
{
layerId = "EC70D3AE-AF6B-4669-B6F7-9C23D381EC59";
name = img;
width = 222;
},
{
layerId = "D6B6D460-257B-488B-8647-D4C61C54A5BD";
shapes = (
{
closed = 1;
nodes = (
(53,594,o),
(26,587,o),
(21,564,cs),
(19,552,o),
(28,542,o),
(39,539,c),
(45,536,o),
(52,540,o),
(57,538,c),
(74,525,o),
(72,501,o),
(73,483,c),
(70,429,o),
(62,365,o),
(107,325,cs),
(110,323,o),
(112,321,o),
(115,319,c),
(116,318,o),
(115,317,o),
(115,316,c),
(87,279,o),
(97,230,o),
(94,186,c),
(92,177,o),
(91,164,o),
(81,160,c),
(41,164,o),
(12,116,o),
(60,101,c),
(118,89,o),
(168,146,o),
(165,202,c),
(167,230,o),
(157,259,o),
(166,287,cs),
(168,294,o),
(172,301,o),
(179,303,cs),
(193,307,o),
(202,320,o),
(201,335,c),
(195,371,o),
(155,338,o),
(142,403,c),
(137,437,o),
(145,471,o),
(143,505,c),
(143,547,o),
(120,592,o),
(73,593,cs)
);
}
);
width = 222;
}
);
unicode = 125;
},
{
glyphname = asciitilde;
layers = (
{
layerId = "EC70D3AE-AF6B-4669-B6F7-9C23D381EC59";
name = img;
width = 326;
},
{
layerId = "D6B6D460-257B-488B-8647-D4C61C54A5BD";
shapes = (
{
closed = 1;
nodes = (
(304,347,o),
(287,333,o),
(275,320,c),
(258,305,o),
(235,298,o),
(212,299,cs),
(177,301,o),
(150,323,o),
(120,336,c),
(102,341,o),
(86,326,o),
(77,312,c),
(64,288,o),
(22,302,o),
(20,326,c),
(23,384,o),
(98,410,o),
(146,387,c),
(164,382,o),
(201,352,o),
(215,362,cs),
(231,372,o),
(237,394,o),
(257,398,cs),
(278,403,o),
(303,388,o),
(306,366,c)
);
}
);
width = 326;
}
);
unicode = 126;
},
{
glyphname = at;
layers = (
{
layerId = "EC70D3AE-AF6B-4669-B6F7-9C23D381EC59";
name = img;
width = 531;
},
{
layerId = "D6B6D460-257B-488B-8647-D4C61C54A5BD";
shapes = (
{
closed = 1;
nodes = (
(512,355,o),
(509,328,o),
(501,302,cs),
(492,272,o),
(474,242,o),
(444,232,cs),
(423,225,o),
(399,230,o),
(380,242,cs),
(361,254,o),
(348,273,o),
(339,294,c),
(320,272,o),
(301,251,o),
(278,234,cs),
(255,218,o),
(227,206,o),
(199,207,cs),
(171,208,o),
(142,223,o),
(130,249,cs),
(118,275,o),
(124,305,o),
(132,332,c),
(142,361,o),
(154,390,o),
(173,414,cs),
(191,438,o),
(217,457,o),
(246,465,cs),
(281,475,o),
(322,466,o),
(349,441,cs),
(387,406,o),
(393,349,o),
(408,299,cs),
(409,294,o),
(412,289,o),
(416,290,cs),
(418,291,o),
(420,293,o),
(421,295,cs),
(443,341,o),
(446,396,o),
(427,444,cs),
(412,481,o),
(384,513,o),
(347,529,cs),
(302,549,o),
(248,541,o),
(206,515,cs),
(164,489,o),
(134,447,o),
(115,402,cs),
(99,365,o),
(91,324,o),
(96,283,c),
(102,243,o),
(122,204,o),
(155,181,cs),
(181,163,o),
(214,156,o),
(246,158,cs),
(278,160,o),
(309,171,o),
(337,187,cs),
(350,194,o),
(362,202,o),
(376,207,cs),
(389,212,o),
(405,213,o),
(418,207,cs),
(431,201,o),
(441,186,o),
(437,172,cs),
(434,161,o),
(423,153,o),
(413,146,cs),
(354,109,o),
(284,88,o),
(215,96,cs),
(112,109,o),
(33,187,o),
(22,290,cs),
(16,350,o),
(31,411,o),
(60,464,cs),
(87,512,o),
(126,554,o),
(175,578,cs),
(256,619,o),
(361,606,o),
(429,548,cs),
(478,507,o),
(507,445,o),
(510,382,cs)
);
},
{
closed = 1;
nodes = (
(191,239,o),
(277,326,o),
(284,335,cs),
(297,349,o),
(309,364,o),
(321,379,c),
(326,391,o),
(314,404,o),
(303,408,cs),
(268,420,o),
(237,385,o),
(221,357,c),
(209,331,o),
(195,304,o),
(193,275,cs)
);
}
);
width = 531;
}
);
unicode = 64;
},
{
glyphname = Euro;
layers = (
{
layerId = "EC70D3AE-AF6B-4669-B6F7-9C23D381EC59";
name = img;
width = 363;
},
{
layerId = "D6B6D460-257B-488B-8647-D4C61C54A5BD";
shapes = (
{
closed = 1;
nodes = (
(284,199,o),
(265,142,o),
(219,115,c),
(172,85,o),
(107,99,o),
(76,144,cs),
(26,215,o),
(31,323,o),
(41,406,c),
(50,466,o),
(59,532,o),
(106,575,cs),
(159,624,o),
(241,589,o),
(258,523,cs),
(262,507,o),
(264,491,o),
(265,474,c),
(265,464,o),
(267,452,o),
(257,446,cs),
(243,436,o),
(223,438,o),
(211,451,cs),
(202,460,o),
(203,473,o),
(202,485,cs),
(201,501,o),
(199,518,o),
(189,532,cs),
(169,562,o),
(136,504,o),
(130,486,cs),
(113,436,o),
(107,381,o),
(104,328,cs),
(102,280,o),
(107,230,o),
(127,186,c),
(133,175,o),
(141,159,o),
(155,161,c),
(176,166,o),
(191,183,o),
(200,201,cs),
(208,217,o),
(213,234,o),
(217,251,cs),
(219,260,o),
(224,269,o),
(230,276,c),
(251,292,o),
(287,277,o),
(288,250,c)
);
},
{
closed = 1;
nodes = (
(160,427,o),
(188,432,o),
(208,417,cs),
(219,408,o),
(222,390,o),
(211,380,c),
(195,368,o),
(171,376,o),
(153,376,c),
(127,377,o),
(102,375,o),
(76,372,cs),
(65,371,o),
(53,369,o),
(41,367,cs),
(23,363,o),
(4,375,o),
(0,394,c),
(-2,417,o),
(25,419,o),
(42,422,cs),
(73,427,o),
(105,429,o),
(136,429,c)
);
},
{
closed = 1;
nodes = (
(3,328,o),
(40,325,o),
(59,330,c),
(100,335,o),
(142,336,o),
(183,332,cs),
(209,330,o),
(234,302,o),
(207,283,cs),
(196,276,o),
(183,280,o),
(170,280,c),
(149,282,o),
(128,282,o),
(107,280,c),
(84,279,o),
(61,276,o),
(38,272,cs),
(20,269,o),
(-1,285,o),
(0,303,c)
);
}
);
width = 363;
}
);
unicode = 8364;
},
{
glyphname = cent;
layers = (
{
layerId = "EC70D3AE-AF6B-4669-B6F7-9C23D381EC59";
name = img;
width = 298;
},
{
layerId = "D6B6D460-257B-488B-8647-D4C61C54A5BD";
shapes = (
{
closed = 1;
nodes = (
(64,186,o),
(8,281,o),
(23,365,c),
(30,414,o),
(47,469,o),
(94,494,cs),
(128,513,o),
(172,507,o),
(204,486,cs),
(237,465,o),
(256,429,o),
(267,393,c),
(270,386,o),
(268,377,o),
(262,372,cs),
(244,356,o),
(214,367,o),
(208,389,cs),
(205,399,o),
(200,409,o),
(194,418,cs),
(171,456,o),
(136,453,o),
(115,415,c),
(95,370,o),
(81,301,o),
(118,262,cs),
(135,243,o),
(164,252,o),
(184,262,cs),
(208,273,o),
(236,302,o),
(263,283,cs),
(294,262,o),
(269,238,o),
(247,223,c),
(221,203,o),
(189,190,o),
(156,189,cs)
);
},
{
closed = 1;
nodes = (
(102,183,o),
(104,201,o),
(109,218,cs),
(118,248,o),
(170,233,o),
(166,203,cs),
(164,186,o),
(161,170,o),
(161,154,cs),
(161,142,o),
(161,129,o),
(148,125,c),
(133,118,o),
(114,123,o),
(105,137,cs),
(100,146,o),
(102,156,o),
(101,166,c)
);
},
{
closed = 1;
nodes = (
(168,569,o),
(173,546,o),
(169,522,cs),
(168,512,o),
(167,502,o),
(166,492,c),
(166,480,o),
(162,467,o),
(149,464,c),
(133,459,o),
(117,466,o),
(110,478,cs),
(103,492,o),
(109,509,o),
(109,524,c),
(111,547,o),
(107,575,o),
(140,573,c)
);
}
);
width = 298;
}
);
unicode = 162;
},
{
glyphname = sterling;
layers = (
{
layerId = "EC70D3AE-AF6B-4669-B6F7-9C23D381EC59";
name = img;
width = 323;
},
{
layerId = "D6B6D460-257B-488B-8647-D4C61C54A5BD";
shapes = (
{
closed = 1;
nodes = (
(230,601,o),
(259,584,o),
(273,557,cs),
(278,547,o),
(282,535,o),
(281,524,c),
(277,509,o),
(258,505,o),
(245,509,cs),
(234,512,o),
(224,521,o),
(223,532,c),
(219,551,o),
(199,554,o),
(185,544,c),
(136,514,o),
(138,423,o),
(136,371,cs),
(135,305,o),
(136,238,o),
(117,175,cs),
(115,167,o),
(112,160,o),
(109,152,c),
(108,151,o),
(108,151,o),
(110,151,c),
(144,150,o),
(178,151,o),
(212,154,c),
(242,155,o),
(280,172,o),
(299,139,cs),
(307,125,o),
(299,107,o),
(284,104,cs),
(266,100,o),
(247,99,o),
(229,97,cs),
(186,93,o),
(144,93,o),
(101,94,c),
(76,97,o),
(44,89,o),
(26,111,cs),
(18,121,o),
(18,135,o),
(26,145,c),
(36,160,o),
(43,175,o),
(49,192,cs),
(63,230,o),
(66,271,o),
(67,312,cs),
(69,415,o),
(56,599,o),
(200,603,c)
);
},
{
closed = 1;
nodes = (
(224,320,o),
(202,315,o),
(185,316,c),
(163,315,o),
(141,315,o),
(118,315,cs),
(99,315,o),
(80,313,o),
(61,316,cs),
(45,319,o),
(29,337,o),
(39,353,cs),
(44,360,o),
(51,364,o),
(59,364,c),
(74,365,o),
(89,366,o),
(103,366,c),
(125,367,o),
(147,367,o),
(169,368,cs),
(192,369,o),
(216,368,o),
(222,341,c)
);
}
);
width = 323;
}
);
unicode = 163;
},
{
glyphname = currency;
layers = (
{
layerId = "EC70D3AE-AF6B-4669-B6F7-9C23D381EC59";
name = img;
width = 319;
},
{
layerId = "D6B6D460-257B-488B-8647-D4C61C54A5BD";
shapes = (
{
closed = 1;
nodes = (
(303,256,o),
(210,175,o),
(114,207,cs),
(33,232,o),
(12,318,o),
(32,392,cs),
(79,564,o),
(293,527,o),
(298,355,c)
);
},
{
closed = 1;
nodes = (
(231,404,o),
(204,458,o),
(152,446,c),
(107,431,o),
(90,371,o),
(91,327,c),
(90,257,o),
(158,235,o),
(203,285,cs),
(222,305,o),
(230,333,o),
(230,360,c)
);
},
{
closed = 1;
nodes = (
(222,151,o),
(212,198,o),
(196,221,cs),
(166,262,o),
(223,281,o),
(244,246,cs),
(257,225,o),
(270,204,o),
(281,181,cs),
(290,163,o),
(274,144,o),
(254,147,cs)
);
},
{
closed = 1;
nodes = (
(58,540,o),
(67,535,o),
(73,528,cs),
(91,508,o),
(108,487,o),
(123,465,c),
(140,443,o),
(120,421,o),
(95,429,cs),
(77,434,o),
(68,452,o),
(58,466,cs),
(51,476,o),
(43,485,o),
(35,494,cs),
(29,501,o),
(22,508,o),
(21,517,cs),
(19,533,o),
(35,543,o),
(49,541,cs)
);
},
{
closed = 1;
nodes = (
(280,485,o),
(262,467,o),
(248,448,c),
(233,430,o),
(200,441,o),
(193,462,cs),
(191,468,o),
(193,474,o),
(197,480,cs),
(211,498,o),
(222,518,o),
(240,534,c),
(259,549,o),
(292,532,o),
(290,508,c)
);
},
{
closed = 1;
nodes = (
(43,152,o),
(24,165,o),
(26,182,cs),
(27,194,o),
(39,201,o),
(44,211,c),
(54,224,o),
(64,238,o),
(73,252,cs),
(89,274,o),
(136,253,o),
(126,226,c),
(113,202,o),
(98,181,o),
(80,162,c),
(75,155,o),
(68,152,o),
(58,152,cs)
);
}
);
width = 319;
}
);
unicode = 164;
},
{
glyphname = yen;
layers = (
{
layerId = "EC70D3AE-AF6B-4669-B6F7-9C23D381EC59";
name = img;
width = 357;
},
{
layerId = "D6B6D460-257B-488B-8647-D4C61C54A5BD";
shapes = (
{
closed = 1;
nodes = (
(63,602,o),
(75,593,o),
(80,580,cs),
(101,526,o),
(121,471,o),
(141,417,c),
(149,398,o),
(154,379,o),
(163,361,c),
(169,360,o),
(183,386,o),
(187,391,c),
(224,452,o),
(255,518,o),
(279,585,c),
(281,593,o),
(287,597,o),
(295,599,cs),
(315,605,o),
(342,588,o),
(336,565,c),
(322,524,o),
(305,484,o),
(286,445,cs),
(271,415,o),
(255,386,o),
(238,357,cs),
(225,334,o),
(211,317,o),
(188,306,c),
(188,258,o),
(189,211,o),
(192,163,c),
(192,149,o),
(194,135,o),
(195,120,c),
(199,104,o),
(190,89,o),
(172,88,c),
(156,86,o),
(137,97,o),
(135,114,cs),
(133,127,o),
(132,140,o),
(131,153,cs),
(128,185,o),
(126,218,o),
(126,251,c),
(125,274,o),
(128,298,o),
(126,320,c),
(112,332,o),
(104,348,o),
(98,364,cs),
(74,430,o),
(50,495,o),
(26,560,c),
(14,584,o),
(20,604,o),
(49,604,c)
);
},
{
closed = 1;
nodes = (
(135,166,o),
(118,166,o),
(101,167,cs),
(78,169,o),
(61,205,o),
(88,215,cs),
(99,219,o),
(111,216,o),
(123,217,c),
(146,216,o),
(168,217,o),
(191,219,cs),
(205,221,o),
(219,224,o),
(232,220,c),
(251,216,o),
(265,189,o),
(246,177,cs),
(235,170,o),
(221,170,o),
(209,168,c),
(190,167,o),
(171,166,o),
(152,166,cs)
);
},
{
closed = 1;
nodes = (
(257,235,o),
(223,236,o),
(204,234,cs),
(189,233,o),
(175,232,o),
(160,231,c),
(142,231,o),
(124,231,o),
(106,232,c),
(90,232,o),
(76,244,o),
(74,260,c),
(74,284,o),
(99,284,o),
(117,282,c),
(129,282,o),
(140,282,o),
(151,283,c),
(168,283,o),
(185,284,o),
(202,286,c),
(222,290,o),
(251,286,o),
(255,262,c)
);
}
);
width = 357;
}
);
unicode = 165;
},
{
glyphname = section;
layers = (
{
layerId = "EC70D3AE-AF6B-4669-B6F7-9C23D381EC59";
name = img;
width = 231;
},
{
layerId = "D6B6D460-257B-488B-8647-D4C61C54A5BD";
shapes = (
{
closed = 1;
nodes = (
(149,598,o),
(187,579,o),
(207,546,c),
(219,528,o),
(199,508,o),
(180,513,c),
(160,515,o),
(155,537,o),
(136,542,c),
(111,551,o),
(86,526,o),
(84,501,cs),
(82,470,o),
(105,446,o),
(122,422,c),
(134,408,o),
(147,393,o),
(161,380,c),
(172,367,o),
(188,357,o),
(195,341,cs),
(200,329,o),
(197,315,o),
(184,310,cs),
(172,305,o),
(158,309,o),
(148,317,c),
(147,318,o),
(145,319,o),
(143,319,c),
(125,313,o),
(128,289,o),
(136,276,cs),
(148,255,o),
(166,240,o),
(178,220,c),
(209,176,o),
(206,105,o),
(138,93,c),
(94,87,o),
(52,114,o),
(30,150,c),
(14,172,o),
(25,195,o),
(53,192,cs),
(77,190,o),
(87,163,o),
(106,152,cs),
(120,143,o),
(131,157,o),
(131,170,cs),
(131,188,o),
(120,203,o),
(109,216,cs),
(75,253,o),
(43,312,o),
(89,354,cs),
(92,357,o),
(96,360,o),
(100,362,cs),
(103,363,o),
(99,365,o),
(99,366,c),
(68,402,o),
(31,439,o),
(22,488,cs),
(12,542,o),
(57,594,o),
(111,596,cs)
);
}
);
width = 231;
}
);
unicode = 167;
},
{
glyphname = copyright;
layers = (
{
layerId = "EC70D3AE-AF6B-4669-B6F7-9C23D381EC59";
name = img;
width = 452;
},
{
layerId = "D6B6D460-257B-488B-8647-D4C61C54A5BD";
shapes = (
{
closed = 1;
nodes = (
(517,596,o),
(497,68,o),
(196,97,c),
(-44,137,o),
(-38,566,o),
(211,584,c)
);
},
{
closed = 1;
nodes = (
(377,613,o),
(64,602,o),
(69,337,cs),
(72,60,o),
(377,86,o),
(382,349,c)
);
},
{
closed = 1;
nodes = (
(254,493,o),
(281,461,o),
(293,427,cs),
(295,421,o),
(297,415,o),
(299,409,cs),
(304,388,o),
(272,385,o),
(264,406,cs),
(229,506,o),
(185,436,o),
(172,371,c),
(167,336,o),
(163,298,o),
(176,264,c),
(193,228,o),
(224,217,o),
(256,244,c),
(268,251,o),
(276,270,o),
(290,271,cs),
(302,272,o),
(314,265,o),
(317,253,c),
(318,244,o),
(311,237,o),
(305,231,cs),
(291,215,o),
(273,201,o),
(253,195,cs),
(185,175,o),
(128,236,o),
(124,301,cs),
(119,361,o),
(137,492,o),
(216,493,c)
);
}
);
width = 452;
}
);
unicode = 169;
},
{
glyphname = registered;
layers = (
{
layerId = "EC70D3AE-AF6B-4669-B6F7-9C23D381EC59";
name = img;
width = 375;
},
{
layerId = "D6B6D460-257B-488B-8647-D4C61C54A5BD";
shapes = (
{
closed = 1;
nodes = (
(384,617,o),
(425,316,o),
(223,253,cs),
(-8,181,o),
(-59,566,o),
(165,595,c)
);
},
{
closed = 1;
nodes = (
(65,315,o),
(146,246,o),
(240,314,cs),
(380,414,o),
(269,628,o),
(115,529,c),
(83,503,o),
(70,461,o),
(69,420,cs)
);
},
{
closed = 1;
nodes = (
(154,376,o),
(171,373,o),
(179,369,c),
(189,365,o),
(200,363,o),
(210,360,cs),
(213,359,o),
(216,358,o),
(219,355,cs),
(228,348,o),
(221,337,o),
(211,339,c),
(199,340,o),
(155,349,o),
(155,362,c)
);
},
{
closed = 1;
nodes = (
(170,316,o),
(162,314,o),
(156,315,cs),
(149,316,o),
(145,324,o),
(144,331,cs),
(133,387,o),
(131,444,o),
(134,501,c),
(135,506,o),
(133,515,o),
(140,518,cs),
(148,522,o),
(160,515,o),
(158,505,c),
(156,466,o),
(157,427,o),
(161,388,c),
(163,367,o),
(168,345,o),
(170,324,c)
);
},
{
closed = 1;
nodes = (
(150,359,o),
(140,368,o),
(146,377,c),
(151,383,o),
(160,386,o),
(167,391,c),
(192,406,o),
(214,434,o),
(215,464,c),
(214,491,o),
(194,501,o),
(169,500,c),
(159,501,o),
(145,495,o),
(139,506,c),
(134,515,o),
(144,520,o),
(151,520,c),
(170,522,o),
(190,522,o),
(207,514,c),
(246,497,o),
(249,449,o),
(230,417,c),
(218,396,o),
(185,359,o),
(159,359,cs)
);
}
);
width = 375;
}
);
unicode = 174;
},
{
glyphname = degree;
layers = (
{
layerId = "EC70D3AE-AF6B-4669-B6F7-9C23D381EC59";
name = img;
width = 207;
},
{
layerId = "D6B6D460-257B-488B-8647-D4C61C54A5BD";
shapes = (
{
closed = 1;
nodes = (
(52,438,o),
(3,501,o),
(26,556,cs),
(59,636,o),
(170,631,o),
(185,539,cs),
(193,493,o),
(159,443,o),
(111,442,c)
);
},
{
closed = 1;
nodes = (
(140,549,o),
(132,569,o),
(115,573,cs),
(99,576,o),
(81,558,o),
(74,545,c),
(55,517,o),
(77,468,o),
(115,484,c),
(132,493,o),
(139,514,o),
(139,532,c)
);
}
);
width = 207;
}
);
unicode = 176;
},
{
glyphname = quotesinglbase;
layers = (
{
layerId = "EC70D3AE-AF6B-4669-B6F7-9C23D381EC59";
name = img;
width = 121;
},
{
layerId = "D6B6D460-257B-488B-8647-D4C61C54A5BD";
shapes = (
{
closed = 1;
nodes = (
(101,90,o),
(96,68,o),
(81,54,cs),
(65,38,o),
(34,43,o),
(24,63,c),
(13,81,o),
(33,96,o),
(33,114,cs),
(33,121,o),
(33,129,o),
(34,136,cs),
(37,150,o),
(53,155,o),
(65,153,c),
(87,151,o),
(99,130,o),
(101,110,c)
);
}
);
width = 121;
}
);
unicode = 8218;
},
{
glyphname = quotedblbase;
layers = (
{
layerId = "EC70D3AE-AF6B-4669-B6F7-9C23D381EC59";
name = img;
width = 221;
},
{
layerId = "D6B6D460-257B-488B-8647-D4C61C54A5BD";
shapes = (
{
closed = 1;
nodes = (
(101,90,o),
(96,68,o),
(81,54,cs),
(65,38,o),
(34,43,o),
(24,63,c),
(13,81,o),
(33,96,o),
(33,114,cs),
(33,121,o),
(33,129,o),
(34,136,cs),
(37,150,o),
(53,155,o),
(65,153,c),
(87,151,o),
(99,130,o),
(101,110,c)
);
},
{
closed = 1;
nodes = (
(201,90,o),
(196,68,o),
(181,54,cs),
(165,38,o),
(134,43,o),
(124,63,c),
(113,81,o),
(133,96,o),
(133,114,cs),
(133,121,o),
(133,129,o),
(134,136,cs),
(137,150,o),
(153,155,o),
(165,153,c),
(187,151,o),
(199,130,o),
(201,110,c)
);
}
);
width = 221;
}
);
unicode = 8222;
},
{
glyphname = florin;
layers = (
{
layerId = "EC70D3AE-AF6B-4669-B6F7-9C23D381EC59";
name = img;
width = 288;
},
{
layerId = "D6B6D460-257B-488B-8647-D4C61C54A5BD";
shapes = (
{
closed = 1;
nodes = (
(267,481,o),
(230,478,o),
(215,496,c),
(202,508,o),
(214,525,o),
(194,533,c),
(137,532,o),
(129,441,o),
(126,398,cs),
(121,334,o),
(124,170,o),
(131,106,cs),
(133,89,o),
(136,71,o),
(138,54,cs),
(140,37,o),
(146,21,o),
(143,4,c),
(136,-27,o),
(88,-21,o),
(78,5,c),
(72,16,o),
(71,29,o),
(70,42,cs),
(67,64,o),
(63,86,o),
(61,109,c),
(50,202,o),
(41,439,o),
(80,525,c),
(97,560,o),
(131,587,o),
(170,590,cs),
(216,593,o),
(268,559,o),
(267,509,c)
);
},
{
closed = 1;
nodes = (
(250,375,o),
(210,378,o),
(188,377,c),
(159,377,o),
(129,377,o),
(99,378,c),
(83,378,o),
(67,378,o),
(51,380,c),
(32,381,o),
(11,404,o),
(26,422,cs),
(39,437,o),
(90,432,o),
(111,434,cs),
(129,435,o),
(148,435,o),
(166,436,c),
(194,435,o),
(242,442,o),
(250,406,c)
);
}
);
width = 288;
}
);
unicode = 402;
},
{
glyphname = ellipsis;
layers = (
{
layerId = "EC70D3AE-AF6B-4669-B6F7-9C23D381EC59";
name = img;
width = 377;
},
{
layerId = "D6B6D460-257B-488B-8647-D4C61C54A5BD";
shapes = (
{
closed = 1;
nodes = (
(110,99,o),
(85,88,o),
(59,95,cs),
(33,101,o),
(16,123,o),
(21,144,cs),
(26,164,o),
(51,175,o),
(77,169,cs),
(104,162,o),
(121,140,o),
(116,120,cs)
);
},
{
closed = 1;
nodes = (
(230,99,o),
(205,88,o),
(179,95,cs),
(153,101,o),
(136,123,o),
(141,144,cs),
(146,164,o),
(171,175,o),
(197,169,cs),
(224,162,o),
(241,140,o),
(236,120,cs)
);
},
{
closed = 1;
nodes = (
(350,99,o),
(325,88,o),
(299,95,cs),
(273,101,o),
(256,123,o),
(261,144,cs),
(266,164,o),
(291,175,o),
(317,169,cs),
(344,162,o),
(361,140,o),
(356,120,cs)
);
}
);
width = 377;
}
);
unicode = 8230;
},
{
glyphname = dagger;
layers = (
{
layerId = "EC70D3AE-AF6B-4669-B6F7-9C23D381EC59";
name = img;
width = 328;
},
{
layerId = "D6B6D460-257B-488B-8647-D4C61C54A5BD";
shapes = (
{
closed = 1;
nodes = (
(215,75,o),
(158,83,o),
(154,114,c),
(124,260,o),
(115,411,o),
(124,559,c),
(126,575,o),
(121,596,o),
(139,603,c),
(151,609,o),
(165,606,o),
(175,598,cs),
(182,592,o),
(187,585,o),
(186,575,cs),
(185,562,o),
(184,549,o),
(184,536,c),
(177,393,o),
(191,251,o),
(216,110,c)
);
},
{
closed = 1;
nodes = (
(225,434,o),
(177,437,o),
(129,437,cs),
(115,437,o),
(101,437,o),
(87,437,cs),
(72,437,o),
(56,434,o),
(42,439,cs),
(16,448,o),
(12,483,o),
(42,488,c),
(55,489,o),
(68,489,o),
(81,490,cs),
(146,492,o),
(213,493,o),
(278,484,c),
(318,475,o),
(319,429,o),
(274,432,c)
);
}
);
width = 328;
}
);
unicode = 8224;
},
{
glyphname = daggerdbl;
layers = (
{
layerId = "EC70D3AE-AF6B-4669-B6F7-9C23D381EC59";
name = img;
width = 328;
},
{
layerId = "D6B6D460-257B-488B-8647-D4C61C54A5BD";
shapes = (
{
closed = 1;
nodes = (
(215,75,o),
(158,83,o),
(154,114,c),
(124,260,o),
(115,411,o),
(124,559,c),
(126,575,o),
(121,596,o),
(139,603,c),
(151,609,o),
(165,606,o),
(175,598,cs),
(182,592,o),
(187,585,o),
(186,575,cs),
(185,562,o),
(184,549,o),
(184,536,c),
(177,393,o),
(191,251,o),
(216,110,c)
);
},
{
closed = 1;
nodes = (
(225,434,o),
(177,437,o),
(129,437,cs),
(115,437,o),
(101,437,o),
(87,437,cs),
(72,437,o),
(56,434,o),
(42,439,cs),
(16,448,o),
(12,483,o),
(42,488,c),
(55,489,o),
(68,489,o),
(81,490,cs),
(146,492,o),
(213,493,o),
(278,484,c),
(318,475,o),
(319,429,o),
(274,432,c)
);
},
{
closed = 1;
nodes = (
(225,214,o),
(177,217,o),
(129,217,cs),
(115,217,o),
(101,217,o),
(87,217,cs),
(72,217,o),
(56,214,o),
(42,219,cs),
(16,228,o),
(12,263,o),
(42,268,c),
(55,269,o),
(68,269,o),
(81,270,cs),
(146,272,o),
(213,273,o),
(278,264,c),
(318,255,o),
(319,209,o),
(274,212,c)
);
}
);
width = 328;
}
);
unicode = 8225;
},
{
glyphname = guilsinglleft;
layers = (
{
layerId = "EC70D3AE-AF6B-4669-B6F7-9C23D381EC59";
name = img;
width = 283;
},
{
layerId = "D6B6D460-257B-488B-8647-D4C61C54A5BD";
shapes = (
{
closed = 1;
nodes = (
(261,554,o),
(256,547,o),
(251,540,cs),
(220,497,o),
(187,455,o),
(155,413,c),
(134,380,o),
(80,334,o),
(91,293,c),
(99,269,o),
(115,250,o),
(129,229,cs),
(153,193,o),
(185,163,o),
(214,130,c),
(230,109,o),
(208,83,o),
(185,87,c),
(167,88,o),
(153,102,o),
(141,114,cs),
(105,152,o),
(72,193,o),
(45,239,c),
(29,264,o),
(17,293,o),
(21,323,c),
(24,357,o),
(46,385,o),
(66,411,cs),
(93,446,o),
(119,480,o),
(146,515,c),
(166,536,o),
(198,594,o),
(225,595,cs),
(243,596,o),
(263,583,o),
(262,563,cs)
);
}
);
width = 283;
}
);
unicode = 8249;
},
{
glyphname = guilsinglright;
layers = (
{
layerId = "EC70D3AE-AF6B-4669-B6F7-9C23D381EC59";
name = img;
width = 284;
},
{
layerId = "D6B6D460-257B-488B-8647-D4C61C54A5BD";
shapes = (
{
closed = 1;
nodes = (
(23,554,o),
(27,547,o),
(32,540,cs),
(63,497,o),
(96,455,o),
(128,413,c),
(149,380,o),
(203,334,o),
(192,293,c),
(184,269,o),
(168,250,o),
(154,229,cs),
(130,193,o),
(98,163,o),
(69,130,c),
(53,109,o),
(75,83,o),
(98,87,c),
(116,88,o),
(130,102,o),
(142,114,cs),
(178,152,o),
(212,193,o),
(238,239,c),
(254,264,o),
(266,293,o),
(263,323,cs),
(259,357,o),
(237,385,o),
(217,411,cs),
(191,446,o),
(164,480,o),
(137,515,c),
(118,536,o),
(85,594,o),
(59,595,cs),
(41,596,o),
(20,583,o),
(21,563,c)
);
}
);
width = 284;
}
);
unicode = 8250;
},
{
glyphname = guillemotright;
layers = (
{
layerId = "EC70D3AE-AF6B-4669-B6F7-9C23D381EC59";
name = img;
width = 404;
},
{
layerId = "D6B6D460-257B-488B-8647-D4C61C54A5BD";
shapes = (
{
closed = 1;
nodes = (
(23,554,o),
(27,547,o),
(32,540,cs),
(63,497,o),
(96,455,o),
(128,413,c),
(149,380,o),
(203,334,o),
(192,293,c),
(184,269,o),
(168,250,o),
(154,229,cs),
(130,193,o),
(98,163,o),
(69,130,c),
(53,109,o),
(75,83,o),
(98,87,c),
(116,88,o),
(130,102,o),
(142,114,cs),
(178,152,o),
(212,193,o),
(238,239,c),
(254,264,o),
(266,293,o),
(263,323,cs),
(259,357,o),
(237,385,o),
(217,411,cs),
(191,446,o),
(164,480,o),
(137,515,c),
(118,536,o),
(85,594,o),
(59,595,cs),
(41,596,o),
(20,583,o),
(21,563,c)
);
},
{
closed = 1;
nodes = (
(143,554,o),
(147,547,o),
(152,540,cs),
(183,497,o),
(216,455,o),
(248,413,c),
(269,380,o),
(323,334,o),
(312,293,c),
(304,269,o),
(288,250,o),
(274,229,cs),
(250,193,o),
(218,163,o),
(189,130,c),
(173,109,o),
(195,83,o),
(218,87,c),
(236,88,o),
(250,102,o),
(262,114,cs),
(298,152,o),
(332,193,o),
(358,239,c),
(374,264,o),
(386,293,o),
(383,323,cs),
(379,357,o),
(357,385,o),
(337,411,cs),
(311,446,o),
(284,480,o),
(257,515,c),
(238,536,o),
(205,594,o),
(179,595,cs),
(161,596,o),
(140,583,o),
(141,563,c)
);
}
);
width = 404;
}
);
unicode = 187;
},
{
glyphname = guillemotleft;
layers = (
{
layerId = "EC70D3AE-AF6B-4669-B6F7-9C23D381EC59";
name = img;
width = 403;
},
{
layerId = "D6B6D460-257B-488B-8647-D4C61C54A5BD";
shapes = (
{
closed = 1;
nodes = (
(381,554,o),
(376,547,o),
(371,540,cs),
(340,497,o),
(307,455,o),
(275,413,c),
(254,380,o),
(200,334,o),
(211,293,c),
(219,269,o),
(235,250,o),
(249,229,cs),
(273,193,o),
(305,163,o),
(334,130,c),
(350,109,o),
(328,83,o),
(305,87,c),
(287,88,o),
(273,102,o),
(261,114,cs),
(225,152,o),
(192,193,o),
(165,239,c),
(149,264,o),
(137,293,o),
(141,323,c),
(144,357,o),
(166,385,o),
(186,411,cs),
(213,446,o),
(239,480,o),
(266,515,c),
(286,536,o),
(318,594,o),
(345,595,cs),
(363,596,o),
(383,583,o),
(382,563,cs)
);
},
{
closed = 1;
nodes = (
(261,554,o),
(256,547,o),
(251,540,cs),
(220,497,o),
(187,455,o),
(155,413,c),
(134,380,o),
(80,334,o),
(91,293,c),
(99,269,o),
(115,250,o),
(129,229,cs),
(153,193,o),
(185,163,o),
(214,130,c),
(230,109,o),
(208,83,o),
(185,87,c),
(167,88,o),
(153,102,o),
(141,114,cs),
(105,152,o),
(72,193,o),
(45,239,c),
(29,264,o),
(17,293,o),
(21,323,c),
(24,357,o),
(46,385,o),
(66,411,cs),
(93,446,o),
(119,480,o),
(146,515,c),
(166,536,o),
(198,594,o),
(225,595,cs),
(243,596,o),
(263,583,o),
(262,563,cs)
);
}
);
width = 403;
}
);
unicode = 171;
},
{
glyphname = quoteright;
layers = (
{
layerId = "EC70D3AE-AF6B-4669-B6F7-9C23D381EC59";
name = img;
width = 117;
},
{
layerId = "D6B6D460-257B-488B-8647-D4C61C54A5BD";
shapes = (
{
closed = 1;
nodes = (
(53,488,o),
(32,502,o),
(39,519,cs),
(40,522,o),
(48,535,o),
(44,536,c),
(-8,566,o),
(38,627,o),
(83,589,cs),
(99,575,o),
(98,552,o),
(94,532,c),
(90,519,o),
(85,493,o),
(68,491,c)
);
}
);
width = 117;
}
);
unicode = 8217;
},
{
glyphname = quoteleft;
layers = (
{
layerId = "EC70D3AE-AF6B-4669-B6F7-9C23D381EC59";
name = img;
width = 117;
},
{
layerId = "D6B6D460-257B-488B-8647-D4C61C54A5BD";
shapes = (
{
closed = 1;
nodes = (
(64,627,o),
(85,613,o),
(78,596,cs),
(77,593,o),
(69,580,o),
(73,579,c),
(125,549,o),
(79,488,o),
(34,526,cs),
(18,540,o),
(19,563,o),
(23,583,c),
(27,596,o),
(32,622,o),
(49,624,c)
);
}
);
width = 117;
}
);
unicode = 8216;
},
{
glyphname = quotedblright;
layers = (
{
layerId = "EC70D3AE-AF6B-4669-B6F7-9C23D381EC59";
name = img;
width = 217;
},
{
layerId = "D6B6D460-257B-488B-8647-D4C61C54A5BD";
shapes = (
{
closed = 1;
nodes = (
(53,488,o),
(32,502,o),
(39,519,cs),
(40,522,o),
(48,535,o),
(44,536,c),
(-8,566,o),
(38,627,o),
(83,589,cs),
(99,575,o),
(98,552,o),
(94,532,c),
(90,519,o),
(85,493,o),
(68,491,c)
);
},
{
closed = 1;
nodes = (
(153,488,o),
(132,502,o),
(139,519,cs),
(140,522,o),
(148,535,o),
(144,536,c),
(92,566,o),
(138,627,o),
(183,589,cs),
(199,575,o),
(198,552,o),
(194,532,c),
(190,519,o),
(185,493,o),
(168,491,c)
);
}
);
width = 217;
}
);
unicode = 8221;
},
{
glyphname = quotedblleft;
layers = (
{
layerId = "EC70D3AE-AF6B-4669-B6F7-9C23D381EC59";
name = img;
width = 217;
},
{
layerId = "D6B6D460-257B-488B-8647-D4C61C54A5BD";
shapes = (
{
closed = 1;
nodes = (
(64,627,o),
(85,613,o),
(78,596,cs),
(77,593,o),
(69,580,o),
(73,579,c),
(125,549,o),
(79,488,o),
(34,526,cs),
(18,540,o),
(19,563,o),
(23,583,c),
(27,596,o),
(32,622,o),
(49,624,c)
);
},
{
closed = 1;
nodes = (
(164,627,o),
(185,613,o),
(178,596,cs),
(177,593,o),
(169,580,o),
(173,579,c),
(225,549,o),
(179,488,o),
(134,526,cs),
(118,540,o),
(119,563,o),
(123,583,c),
(127,596,o),
(132,622,o),
(149,624,c)
);
}
);
width = 217;
}
);
unicode = 8220;
},
{
glyphname = periodcentered;
layers = (
{
layerId = "EC70D3AE-AF6B-4669-B6F7-9C23D381EC59";
name = img;
width = 137;
},
{
layerId = "D6B6D460-257B-488B-8647-D4C61C54A5BD";
shapes = (
{
closed = 1;
nodes = (
(110,289,o),
(85,278,o),
(59,285,cs),
(33,291,o),
(16,313,o),
(21,334,cs),
(26,354,o),
(51,365,o),
(77,359,cs),
(104,352,o),
(121,330,o),
(116,310,cs)
);
}
);
width = 137;
}
);
unicode = 183;
},
{
glyphname = bullet;
layers = (
{
layerId = "EC70D3AE-AF6B-4669-B6F7-9C23D381EC59";
name = img;
width = 232;
},
{
layerId = "D6B6D460-257B-488B-8647-D4C61C54A5BD";
shapes = (
{
closed = 1;
nodes = (
(198,258,o),
(149,236,o),
(97,250,c),
(46,262,o),
(12,305,o),
(22,347,cs),
(32,386,o),
(81,408,o),
(133,396,c),
(186,382,o),
(220,339,o),
(210,299,c)
);
}
);
width = 232;
}
);
unicode = 8226;
},
{
glyphname = endash;
layers = (
{
layerId = "EC70D3AE-AF6B-4669-B6F7-9C23D381EC59";
name = img;
width = 328;
},
{
layerId = "D6B6D460-257B-488B-8647-D4C61C54A5BD";
shapes = (
{
closed = 1;
nodes = (
(225,324,o),
(177,327,o),
(129,327,cs),
(115,327,o),
(101,327,o),
(87,327,cs),
(72,327,o),
(56,324,o),
(42,329,cs),
(16,338,o),
(12,373,o),
(42,378,c),
(55,379,o),
(68,379,o),
(81,380,cs),
(146,382,o),
(213,383,o),
(278,374,c),
(318,365,o),
(319,319,o),
(274,322,c)
);
}
);
width = 328;
}
);
unicode = 8211;
},
{
glyphname = emdash;
layers = (
{
layerId = "EC70D3AE-AF6B-4669-B6F7-9C23D381EC59";
name = img;
width = 428;
},
{
layerId = "D6B6D460-257B-488B-8647-D4C61C54A5BD";
shapes = (
{
closed = 1;
nodes = (
(325,324,o),
(177,327,o),
(129,327,cs),
(115,327,o),
(101,327,o),
(87,327,cs),
(72,327,o),
(56,324,o),
(42,329,cs),
(16,338,o),
(12,373,o),
(42,378,c),
(55,379,o),
(68,379,o),
(81,380,cs),
(146,382,o),
(313,383,o),
(378,374,c),
(418,365,o),
(419,319,o),
(374,322,c)
);
}
);
width = 428;
}
);
unicode = 8212;
},
{
glyphname = trademark;
layers = (
{
layerId = "EC70D3AE-AF6B-4669-B6F7-9C23D381EC59";
name = img;
width = 566;
},
{
layerId = "D6B6D460-257B-488B-8647-D4C61C54A5BD";
shapes = (
{
closed = 1;
nodes = (
(27,556,o),
(10,579,o),
(28,587,cs),
(68,605,o),
(112,611,o),
(155,613,c),
(172,612,o),
(191,615,o),
(207,608,cs),
(221,602,o),
(225,584,o),
(209,578,cs),
(194,573,o),
(178,577,o),
(163,576,cs),
(122,575,o),
(82,567,o),
(42,558,c)
);
},
{
closed = 1;
nodes = (
(149,297,o),
(137,293,o),
(128,294,cs),
(116,296,o),
(111,307,o),
(109,318,cs),
(93,403,o),
(89,489,o),
(95,575,cs),
(96,584,o),
(93,597,o),
(103,601,c),
(116,608,o),
(134,597,o),
(131,582,c),
(128,523,o),
(130,464,o),
(136,406,c),
(138,372,o),
(145,340,o),
(149,307,c)
);
},
{
closed = 1;
nodes = (
(395,410,o),
(382,421,o),
(373,434,cs),
(356,460,o),
(338,486,o),
(322,512,c),
(307,533,o),
(293,555,o),
(280,577,cs),
(278,581,o),
(277,585,o),
(280,590,cs),
(285,601,o),
(301,599,o),
(309,591,c),
(346,546,o),
(376,493,o),
(411,448,c),
(437,487,o),
(457,530,o),
(478,572,cs),
(481,579,o),
(484,587,o),
(488,593,c),
(491,601,o),
(496,607,o),
(504,607,c),
(517,608,o),
(532,597,o),
(527,584,cs),
(518,559,o),
(506,536,o),
(494,512,cs),
(481,486,o),
(466,459,o),
(451,433,cs),
(443,419,o),
(429,407,o),
(411,409,cs)
);
},
{
closed = 1;
nodes = (
(297,293,o),
(288,303,o),
(286,317,c),
(275,373,o),
(270,430,o),
(268,488,c),
(268,516,o),
(268,544,o),
(270,572,c),
(272,582,o),
(268,596,o),
(279,601,cs),
(287,605,o),
(297,603,o),
(303,596,cs),
(308,591,o),
(308,585,o),
(307,578,c),
(304,510,o),
(306,442,o),
(315,374,cs),
(317,358,o),
(320,341,o),
(323,325,cs),
(325,312,o),
(329,296,o),
(311,294,cs)
);
},
{
closed = 1;
nodes = (
(518,293,o),
(508,303,o),
(506,317,c),
(495,373,o),
(490,430,o),
(489,488,cs),
(489,516,o),
(489,544,o),
(491,572,cs),
(492,582,o),
(489,596,o),
(500,601,cs),
(507,605,o),
(518,603,o),
(524,596,cs),
(529,591,o),
(528,585,o),
(527,578,c),
(524,510,o),
(527,442,o),
(536,374,cs),
(538,358,o),
(541,341,o),
(543,325,c),
(546,312,o),
(550,296,o),
(532,294,cs)
);
}
);
width = 566;
}
);
unicode = 8482;
},
{
glyphname = fraction;
layers = (
{
layerId = "EC70D3AE-AF6B-4669-B6F7-9C23D381EC59";
name = img;
width = 292;
},
{
layerId = "D6B6D460-257B-488B-8647-D4C61C54A5BD";
shapes = (
{
closed = 1;
nodes = (
(42,99,o),
(30,104,o),
(24,115,cs),
(15,131,o),
(28,149,o),
(32,165,c),
(75,282,o),
(123,398,o),
(177,510,cs),
(188,532,o),
(199,553,o),
(209,575,cs),
(214,586,o),
(222,595,o),
(234,595,c),
(251,597,o),
(268,586,o),
(271,569,cs),
(272,562,o),
(268,557,o),
(265,551,cs),
(253,527,o),
(242,503,o),
(231,479,cs),
(178,364,o),
(128,247,o),
(87,128,cs),
(81,111,o),
(74,95,o),
(53,97,c)
);
}
);
width = 292;
}
);
unicode = 8260;
},
{
glyphname = multiply;
layers = (
{
layerId = "EC70D3AE-AF6B-4669-B6F7-9C23D381EC59";
name = img;
width = 379;
},
{
layerId = "D6B6D460-257B-488B-8647-D4C61C54A5BD";
shapes = (
{
closed = 1;
nodes = (
(63,153,o),
(112,137,o),
(126,166,c),
(166,241,o),
(205,317,o),
(247,391,cs),
(269,431,o),
(295,468,o),
(314,509,c),
(315,530,o),
(293,543,o),
(274,542,c),
(266,542,o),
(258,539,o),
(254,532,cs),
(234,503,o),
(215,473,o),
(197,443,cs),
(149,359,o),
(102,274,o),
(65,184,c)
);
},
{
closed = 1;
nodes = (
(287,278,o),
(227,355,o),
(166,430,cs),
(143,457,o),
(120,483,o),
(96,509,cs),
(91,515,o),
(83,517,o),
(74,516,cs),
(56,514,o),
(36,498,o),
(41,477,c),
(65,439,o),
(98,407,o),
(125,370,c),
(178,304,o),
(229,236,o),
(280,168,c),
(298,142,o),
(345,165,o),
(338,195,c)
);
}
);
width = 379;
}
);
unicode = 215;
},
{
glyphname = divide;
layers = (
{
layerId = "EC70D3AE-AF6B-4669-B6F7-9C23D381EC59";
name = img;
width = 328;
},
{
layerId = "D6B6D460-257B-488B-8647-D4C61C54A5BD";
shapes = (
{
closed = 1;
nodes = (
(225,324,o),
(177,327,o),
(129,327,cs),
(115,327,o),
(101,327,o),
(87,327,cs),
(72,327,o),
(56,324,o),
(42,329,cs),
(16,338,o),
(12,373,o),
(42,378,c),
(55,379,o),
(68,379,o),
(81,380,cs),
(146,382,o),
(213,383,o),
(278,374,c),
(318,365,o),
(319,319,o),
(274,322,c)
);
},
{
closed = 1;
nodes = (
(200,428,o),
(175,417,o),
(149,424,cs),
(123,430,o),
(106,452,o),
(111,472,cs),
(116,493,o),
(141,504,o),
(167,498,cs),
(194,491,o),
(211,469,o),
(206,449,cs)
);
},
{
closed = 1;
nodes = (
(200,218,o),
(175,206,o),
(149,213,cs),
(123,219,o),
(106,241,o),
(111,262,cs),
(116,282,o),
(141,293,o),
(167,287,cs),
(194,280,o),
(211,258,o),
(206,238,cs)
);
}
);
width = 328;
}
);
unicode = 247;
},
{
glyphname = minus;
layers = (
{
layerId = "EC70D3AE-AF6B-4669-B6F7-9C23D381EC59";
name = img;
width = 428;
},
{
layerId = "D6B6D460-257B-488B-8647-D4C61C54A5BD";
shapes = (
{
closed = 1;
nodes = (
(325,324,o),
(177,327,o),
(129,327,cs),
(115,327,o),
(101,327,o),
(87,327,cs),
(72,327,o),
(56,324,o),
(42,329,cs),
(16,338,o),
(12,373,o),
(42,378,c),
(55,379,o),
(68,379,o),
(81,380,cs),
(146,382,o),
(313,383,o),
(378,374,c),
(418,365,o),
(419,319,o),
(374,322,c)
);
}
);
width = 428;
}
);
unicode = 8722;
},
{
glyphname = brokenbar;
layers = (
{
layerId = "EC70D3AE-AF6B-4669-B6F7-9C23D381EC59";
name = img;
width = 134;
},
{
layerId = "D6B6D460-257B-488B-8647-D4C61C54A5BD";
shapes = (
{
closed = 1;
nodes = (
(52,338,o),
(35,347,o),
(31,363,cs),
(28,379,o),
(27,396,o),
(25,412,c),
(23,457,o),
(25,441,o),
(23,485,cs),
(21,530,o),
(20,576,o),
(20,621,c),
(23,653,o),
(76,646,o),
(80,615,cs),
(83,585,o),
(85,555,o),
(87,526,cs),
(90,473,o),
(89,481,o),
(92,429,cs),
(93,411,o),
(94,393,o),
(93,375,c),
(94,355,o),
(89,340,o),
(67,339,cs)
);
},
{
closed = 1;
nodes = (
(72,-22,o),
(55,-13,o),
(51,3,cs),
(48,19,o),
(47,36,o),
(45,52,c),
(43,97,o),
(45,81,o),
(43,125,cs),
(41,170,o),
(40,216,o),
(40,261,c),
(43,293,o),
(96,286,o),
(100,255,cs),
(103,225,o),
(105,195,o),
(107,166,cs),
(110,113,o),
(109,121,o),
(112,69,cs),
(113,51,o),
(114,33,o),
(113,15,c),
(114,-5,o),
(109,-20,o),
(87,-21,cs)
);
}
);
width = 134;
}
);
unicode = 166;
},
{
glyphname = circumflex;
layers = (
{
layerId = "EC70D3AE-AF6B-4669-B6F7-9C23D381EC59";
name = img;
width = 228;
},
{
guides = (
{
position = "{0, 1904}";
}
);
layerId = "D6B6D460-257B-488B-8647-D4C61C54A5BD";
shapes = (
{
closed = 1;
nodes = (
(208,626,o),
(172,621,o),
(155,637,cs),
(140,651,o),
(128,669,o),
(113,683,c),
(112,684,o),
(111,684,o),
(111,683,c),
(98,670,o),
(87,655,o),
(76,640,cs),
(70,631,o),
(59,629,o),
(50,631,cs),
(36,633,o),
(23,642,o),
(21,655,c),
(20,673,o),
(43,695,o),
(53,710,c),
(65,723,o),
(77,740,o),
(95,743,cs),
(133,749,o),
(158,712,o),
(182,689,c),
(192,678,o),
(204,668,o),
(207,653,c)
);
}
);
width = 228;
}
);
unicode = 710;
},
{
glyphname = dieresis;
layers = (
{
layerId = "EC70D3AE-AF6B-4669-B6F7-9C23D381EC59";
name = img;
width = 238;
},
{
layerId = "D6B6D460-257B-488B-8647-D4C61C54A5BD";
shapes = (
{
closed = 1;
nodes = (
(110,653,o),
(85,642,o),
(59,649,cs),
(33,655,o),
(16,677,o),
(21,698,cs),
(26,718,o),
(51,729,o),
(77,723,cs),
(104,716,o),
(121,694,o),
(116,674,cs)
);
},
{
closed = 1;
nodes = (
(212,653,o),
(186,642,o),
(160,649,cs),
(134,655,o),
(117,677,o),
(122,698,cs),
(127,718,o),
(152,729,o),
(179,723,c),
(205,716,o),
(222,694,o),
(217,674,cs)
);
}
);
width = 238;
}
);
unicode = 168;
},
{
glyphname = acute;
layers = (
{
layerId = "EC70D3AE-AF6B-4669-B6F7-9C23D381EC59";
name = img;
width = 148;
},
{
layerId = "D6B6D460-257B-488B-8647-D4C61C54A5BD";
shapes = (
{
closed = 1;
nodes = (
(131,729,o),
(94,737,o),
(76,722,cs),
(57,707,o),
(30,697,o),
(22,673,cs),
(15,649,o),
(39,638,o),
(59,643,cs),
(68,645,o),
(76,649,o),
(83,654,c),
(96,667,o),
(125,684,o),
(127,701,cs)
);
}
);
width = 148;
}
);
unicode = 180;
},
{
glyphname = grave;
layers = (
{
layerId = "EC70D3AE-AF6B-4669-B6F7-9C23D381EC59";
name = img;
width = 148;
},
{
layerId = "D6B6D460-257B-488B-8647-D4C61C54A5BD";
shapes = (
{
closed = 1;
nodes = (
(21,684,o),
(50,667,o),
(63,654,c),
(70,649,o),
(78,645,o),
(87,643,cs),
(107,638,o),
(131,649,o),
(124,673,cs),
(116,697,o),
(89,707,o),
(70,722,cs),
(52,737,o),
(15,729,o),
(19,701,cs)
);
}
);
width = 148;
}
);
unicode = 96;
},
{
glyphname = macron;
layers = (
{
layerId = "EC70D3AE-AF6B-4669-B6F7-9C23D381EC59";
name = img;
width = 263;
},
{
layerId = "D6B6D460-257B-488B-8647-D4C61C54A5BD";
shapes = (
{
closed = 1;
nodes = (
(127,716,o),
(150,716,o),
(174,714,c),
(196,710,o),
(236,719,o),
(243,681,c),
(243,648,o),
(210,656,o),
(193,657,cs),
(175,659,o),
(157,660,o),
(139,660,c),
(107,662,o),
(75,660,o),
(43,661,c),
(21,665,o),
(10,703,o),
(36,712,c),
(58,715,o),
(81,715,o),
(103,716,c)
);
}
);
width = 263;
}
);
unicode = 175;
},
{
glyphname = dotlessi;
layers = (
{
layerId = "EC70D3AE-AF6B-4669-B6F7-9C23D381EC59";
name = img;
width = 157;
},
{
layerId = "D6B6D460-257B-488B-8647-D4C61C54A5BD";
shapes = (
{
closed = 1;
nodes = (
(75,78,o),
(58,87,o),
(54,103,cs),
(51,119,o),
(50,136,o),
(48,152,c),
(46,197,o),
(45,241,o),
(43,285,cs),
(41,330,o),
(40,376,o),
(40,421,c),
(43,453,o),
(96,446,o),
(100,415,cs),
(103,385,o),
(105,355,o),
(107,326,cs),
(110,273,o),
(112,221,o),
(115,169,cs),
(116,151,o),
(117,133,o),
(116,115,c),
(117,95,o),
(112,80,o),
(90,79,cs)
);
}
);
width = 157;
}
);
leftKerningGroup = _kern30;
rightKerningGroup = _kern29;
unicode = 305;
},
{
glyphname = caron;
layers = (
{
layerId = "EC70D3AE-AF6B-4669-B6F7-9C23D381EC59";
name = img;
width = 833;
},
{
layerId = "D6B6D460-257B-488B-8647-D4C61C54A5BD";
shapes = (
{
closed = 1;
nodes = (
(-2,757,o),
(35,761,o),
(52,746,cs),
(67,732,o),
(79,714,o),
(94,699,c),
(95,699,o),
(95,699,o),
(96,699,c),
(109,713,o),
(120,728,o),
(131,743,c),
(136,752,o),
(147,754,o),
(157,752,cs),
(170,750,o),
(183,741,o),
(186,727,c),
(186,709,o),
(164,687,o),
(153,673,cs),
(142,659,o),
(130,643,o),
(111,640,cs),
(73,634,o),
(48,670,o),
(24,694,cs),
(15,704,o),
(3,715,o),
(0,729,c)
);
}
);
width = 833;
}
);
unicode = 711;
},
{
glyphname = ogonek;
layers = (
{
layerId = "EC70D3AE-AF6B-4669-B6F7-9C23D381EC59";
name = img;
width = 133;
},
{
layerId = "D6B6D460-257B-488B-8647-D4C61C54A5BD";
shapes = (
{
closed = 1;
nodes = (
(81,106,o),
(102,90,o),
(89,75,c),
(75,67,o),
(63,58,o),
(65,40,cs),
(66,24,o),
(76,58,o),
(93,55,cs),
(131,49,o),
(107,9,o),
(83,1,c),
(11,-20,o),
(-3,93,o),
(66,103,c)
);
}
);
width = 133;
}
);
unicode = 731;
},
{
glyphname = hungarumlaut;
layers = (
{
layerId = "EC70D3AE-AF6B-4669-B6F7-9C23D381EC59";
name = img;
width = 249;
},
{
layerId = "D6B6D460-257B-488B-8647-D4C61C54A5BD";
shapes = (
{
closed = 1;
nodes = (
(131,729,o),
(94,737,o),
(76,722,cs),
(57,707,o),
(30,697,o),
(22,673,cs),
(15,649,o),
(39,638,o),
(59,643,cs),
(68,645,o),
(76,649,o),
(83,654,c),
(96,667,o),
(125,684,o),
(127,701,cs)
);
},
{
closed = 1;
nodes = (
(232,729,o),
(195,737,o),
(177,722,cs),
(158,707,o),
(131,697,o),
(123,673,cs),
(116,649,o),
(140,638,o),
(160,643,cs),
(169,645,o),
(177,649,o),
(184,654,c),
(197,667,o),
(226,684,o),
(228,701,cs)
);
}
);
width = 249;
}
);
unicode = 733;
},
{
glyphname = ring;
layers = (
{
layerId = "EC70D3AE-AF6B-4669-B6F7-9C23D381EC59";
name = img;
width = 194;
},
{
layerId = "D6B6D460-257B-488B-8647-D4C61C54A5BD";
shapes = (
{
closed = 1;
nodes = (
(178,649,o),
(120,608,o),
(70,629,cs),
(12,652,o),
(3,727,o),
(56,761,cs),
(102,789,o),
(169,757,o),
(173,703,cs)
);
},
{
closed = 1;
nodes = (
(83,664,o),
(103,676,o),
(110,693,cs),
(114,701,o),
(115,716,o),
(104,719,c),
(92,716,o),
(80,704,o),
(81,691,cs)
);
}
);
width = 194;
}
);
unicode = 730;
},
{
glyphname = dotaccent;
layers = (
{
layerId = "EC70D3AE-AF6B-4669-B6F7-9C23D381EC59";
name = img;
width = 137;
},
{
layerId = "D6B6D460-257B-488B-8647-D4C61C54A5BD";
shapes = (
{
closed = 1;
nodes = (
(110,653,o),
(85,642,o),
(59,649,cs),
(33,655,o),
(16,677,o),
(21,698,cs),
(26,718,o),
(51,729,o),
(77,723,cs),
(104,716,o),
(121,694,o),
(116,674,cs)
);
}
);
width = 137;
}
);
unicode = 729;
},
{
glyphname = breve;
layers = (
{
layerId = "EC70D3AE-AF6B-4669-B6F7-9C23D381EC59";
name = img;
width = 188;
},
{
layerId = "D6B6D460-257B-488B-8647-D4C61C54A5BD";
shapes = (
{
closed = 1;
nodes = (
(159,632,o),
(40,635,o),
(21,710,cs),
(15,734,o),
(47,743,o),
(63,730,c),
(75,724,o),
(73,712,o),
(81,703,c),
(93,693,o),
(108,707,o),
(111,719,c),
(116,750,o),
(162,744,o),
(168,715,c)
);
}
);
width = 188;
}
);
unicode = 728;
},
{
glyphname = cedilla;
layers = (
{
layerId = "EC70D3AE-AF6B-4669-B6F7-9C23D381EC59";
name = img;
width = 135;
},
{
layerId = "D6B6D460-257B-488B-8647-D4C61C54A5BD";
shapes = (
{
closed = 1;
nodes = (
(21,53,o),
(51,51,o),
(58,36,cs),
(60,33,o),
(63,26,o),
(68,29,c),
(76,32,o),
(80,49,o),
(69,47,c),
(46,46,o),
(43,62,o),
(44,81,c),
(44,95,o),
(39,112,o),
(58,113,cs),
(81,115,o),
(83,97,o),
(83,79,cs),
(83,78,o),
(84,77,o),
(84,77,c),
(90,75,o),
(95,72,o),
(99,68,c),
(126,48,o),
(117,3,o),
(83,-4,c),
(56,-11,o),
(24,5,o),
(20,34,c)
);
}
);
width = 135;
}
);
unicode = 184;
},
{
glyphname = tilde;
layers = (
{
layerId = "EC70D3AE-AF6B-4669-B6F7-9C23D381EC59";
name = img;
width = 326;
},
{
layerId = "D6B6D460-257B-488B-8647-D4C61C54A5BD";
shapes = (
{
closed = 1;
nodes = (
(304,684,o),
(287,670,o),
(275,657,c),
(258,641,o),
(235,634,o),
(212,636,c),
(177,637,o),
(150,660,o),
(120,673,c),
(102,678,o),
(86,663,o),
(77,648,cs),
(64,624,o),
(22,638,o),
(20,662,c),
(23,720,o),
(98,747,o),
(146,723,c),
(164,719,o),
(201,689,o),
(215,699,cs),
(231,709,o),
(237,731,o),
(257,735,cs),
(278,740,o),
(303,725,o),
(306,703,c)
);
}
);
width = 326;
}
);
unicode = 732;
},
{
glyphname = mu;
layers = (
{
layerId = "EC70D3AE-AF6B-4669-B6F7-9C23D381EC59";
name = img;
width = 364;
},
{
layerId = "D6B6D460-257B-488B-8647-D4C61C54A5BD";
shapes = (
{
closed = 1;
nodes = (
(77,-3,o),
(62,5,o),
(58,19,c),
(53,63,l),
(51,98,o),
(50,132,o),
(49,167,c),
(47,171,o),
(46,175,o),
(45,180,cs),
(40,197,o),
(40,216,o),
(40,234,cs),
(41,297,o),
(53,361,o),
(70,422,c),
(74,432,o),
(73,445,o),
(84,450,cs),
(103,459,o),
(130,449,o),
(133,427,c),
(124,366,o),
(109,305,o),
(108,243,c),
(107,234,o),
(107,183,o),
(115,182,c),
(130,191,o),
(139,205,o),
(150,219,cs),
(162,236,o),
(174,253,o),
(184,272,c),
(207,311,o),
(223,354,o),
(241,396,cs),
(247,409,o),
(253,423,o),
(260,436,cs),
(261,438,o),
(262,441,o),
(264,443,c),
(264,443,o),
(265,443,o),
(265,444,c),
(276,461,o),
(303,459,o),
(315,445,c),
(326,435,o),
(322,419,o),
(323,406,c),
(324,337,o),
(322,267,o),
(320,198,c),
(320,169,o),
(320,141,o),
(316,112,c),
(315,99,o),
(305,92,o),
(292,91,cs),
(251,89,o),
(254,130,o),
(254,160,cs),
(256,260,l),
(228,205,o),
(193,155,o),
(153,131,cs),
(140,124,o),
(125,122,o),
(111,124,c),
(111,109,o),
(112,94,o),
(113,79,cs),
(114,63,o),
(115,46,o),
(114,30,c),
(115,12,o),
(111,-1,o),
(91,-2,cs)
);
}
);
width = 364;
}
);
unicode = 181;
},
{
glyphname = paragraph;
layers = (
{
layerId = "EC70D3AE-AF6B-4669-B6F7-9C23D381EC59";
name = img;
width = 425;
},
{
layerId = "D6B6D460-257B-488B-8647-D4C61C54A5BD";
shapes = (
{
closed = 1;
nodes = (
(316,160,o),
(328,213,o),
(332,268,c),
(341,356,o),
(344,445,o),
(341,534,c),
(342,550,o),
(333,570,o),
(346,584,cs),
(356,595,o),
(373,599,o),
(387,592,cs),
(402,585,o),
(398,567,o),
(400,553,c),
(410,414,o),
(402,274,o),
(378,137,c),
(375,115,o),
(370,88,o),
(344,84,c),
(330,81,o),
(310,88,o),
(310,105,c)
);
},
{
closed = 1;
nodes = (
(202,135,o),
(208,166,o),
(212,196,c),
(150,208,o),
(76,289,o),
(50,339,c),
(0,421,o),
(9,541,o),
(105,583,c),
(149,604,o),
(199,604,o),
(246,598,c),
(256,596,o),
(267,596,o),
(276,592,cs),
(292,585,o),
(287,564,o),
(289,549,c),
(298,407,o),
(291,264,o),
(265,123,cs),
(262,105,o),
(253,87,o),
(233,84,c),
(219,81,o),
(199,88,o),
(199,105,c)
);
}
);
width = 425;
}
);
unicode = 182;
},
{
glyphname = plusminus;
layers = (
{
layerId = "EC70D3AE-AF6B-4669-B6F7-9C23D381EC59";
name = img;
width = 328;
},
{
layerId = "D6B6D460-257B-488B-8647-D4C61C54A5BD";
shapes = (
{
closed = 1;
nodes = (
(225,124,o),
(177,127,o),
(129,127,cs),
(87,127,ls),
(72,127,o),
(56,124,o),
(42,129,cs),
(16,138,o),
(12,173,o),
(42,178,c),
(81,180,l),
(98,180,o),
(116,181,o),
(134,181,c),
(131,204,ls),
(126,242,o),
(126,283,o),
(122,319,c),
(101,317,o),
(80,315,o),
(59,312,c),
(33,307,o),
(2,345,o),
(33,361,c),
(62,370,o),
(96,369,o),
(124,377,c),
(124,389,o),
(124,401,o),
(125,414,cs),
(127,445,o),
(129,477,o),
(132,508,c),
(137,537,o),
(181,533,o),
(192,510,cs),
(199,497,o),
(192,477,o),
(192,461,c),
(191,435,o),
(190,409,o),
(190,383,cs),
(190,381,o),
(190,381,o),
(191,381,c),
(222,382,o),
(253,387,o),
(283,380,cs),
(306,374,o),
(317,342,o),
(291,332,cs),
(279,327,o),
(266,328,o),
(253,328,c),
(239,327,o),
(225,326,o),
(211,326,c),
(208,325,o),
(190,326,o),
(190,323,c),
(191,285,o),
(193,247,o),
(195,210,c),
(195,199,o),
(197,189,o),
(197,180,c),
(224,179,o),
(251,177,o),
(278,174,c),
(318,165,o),
(319,119,o),
(274,122,c)
);
}
);
width = 328;
}
);
unicode = 177;
},
{
glyphname = eth;
layers = (
{
layerId = "EC70D3AE-AF6B-4669-B6F7-9C23D381EC59";
name = img;
width = 352;
},
{
layerId = "D6B6D460-257B-488B-8647-D4C61C54A5BD";
shapes = (
{
closed = 1;
nodes = (
(301,498,o),
(293,494,o),
(285,491,c),
(309,445,o),
(323,389,o),
(327,344,cs),
(337,241,o),
(308,102,o),
(183,97,cs),
(100,93,o),
(20,166,o),
(20,249,cs),
(20,311,o),
(74,357,o),
(132,367,cs),
(171,374,o),
(212,366,o),
(249,351,c),
(250,350,o),
(251,351,o),
(250,352,c),
(248,371,o),
(243,390,o),
(237,408,cs),
(231,426,o),
(223,447,o),
(213,466,c),
(206,464,o),
(199,461,o),
(192,458,cs),
(158,444,ls),
(146,439,o),
(134,431,o),
(121,431,c),
(97,430,o),
(83,457,o),
(105,471,c),
(136,485,l),
(184,506,l),
(166,523,o),
(145,533,o),
(118,528,cs),
(114,527,o),
(110,524,o),
(107,520,cs),
(97,509,o),
(78,505,o),
(65,512,c),
(26,541,o),
(102,585,o),
(128,588,cs),
(184,596,o),
(226,572,o),
(258,533,c),
(270,537,o),
(283,541,o),
(296,544,c),
(332,550,o),
(348,513,o),
(310,501,cs)
);
},
{
closed = 1;
nodes = (
(97,209,o),
(140,162,o),
(188,161,cs),
(220,160,o),
(236,192,o),
(243,218,cs),
(247,230,o),
(249,242,o),
(251,255,c),
(251,259,o),
(254,267,o),
(251,270,c),
(226,282,o),
(201,295,o),
(173,302,cs),
(140,310,o),
(92,298,o),
(94,256,cs)
);
}
);
width = 352;
}
);
unicode = 240;
},
{
glyphname = Thorn;
layers = (
{
layerId = "EC70D3AE-AF6B-4669-B6F7-9C23D381EC59";
name = img;
width = 403;
},
{
layerId = "D6B6D460-257B-488B-8647-D4C61C54A5BD";
shapes = (
{
closed = 1;
nodes = (
(135,72,o),
(80,79,o),
(73,108,c),
(61,151,o),
(58,197,o),
(52,241,cs),
(40,344,o),
(38,448,o),
(45,551,c),
(46,576,o),
(45,597,o),
(77,595,cs),
(90,594,o),
(102,585,o),
(105,572,cs),
(107,562,o),
(105,553,o),
(105,543,c),
(100,445,o),
(104,346,o),
(115,247,cs),
(119,201,o),
(130,154,o),
(135,108,c)
);
},
{
closed = 1;
nodes = (
(360,306,o),
(237,229,o),
(140,233,c),
(119,235,o),
(86,238,o),
(75,258,cs),
(72,263,o),
(71,269,o),
(72,275,c),
(72,276,o),
(72,277,o),
(72,277,c),
(65,285,o),
(65,295,o),
(67,304,c),
(70,339,o),
(82,372,o),
(101,401,cs),
(137,455,o),
(201,490,o),
(266,493,cs),
(314,495,o),
(361,461,o),
(363,411,c)
);
},
{
closed = 1;
nodes = (
(293,440,o),
(278,434,o),
(260,431,cs),
(231,425,o),
(205,411,o),
(183,391,cs),
(155,365,o),
(135,332,o),
(127,296,c),
(124,291,o),
(159,297,o),
(162,298,cs),
(217,310,o),
(285,355,o),
(293,415,c)
);
}
);
width = 403;
}
);
unicode = 222;
},
{
glyphname = thorn;
layers = (
{
layerId = "EC70D3AE-AF6B-4669-B6F7-9C23D381EC59";
name = img;
width = 403;
},
{
layerId = "D6B6D460-257B-488B-8647-D4C61C54A5BD";
shapes = (
{
closed = 1;
nodes = (
(135,72,o),
(80,79,o),
(73,108,c),
(61,151,o),
(58,197,o),
(52,241,cs),
(40,344,o),
(38,448,o),
(45,551,c),
(46,576,o),
(45,597,o),
(77,595,cs),
(90,594,o),
(102,585,o),
(105,572,cs),
(107,562,o),
(105,553,o),
(105,543,c),
(100,445,o),
(104,346,o),
(115,247,cs),
(119,201,o),
(130,154,o),
(135,108,c)
);
},
{
closed = 1;
nodes = (
(360,306,o),
(237,229,o),
(140,233,c),
(119,235,o),
(86,238,o),
(75,258,cs),
(72,263,o),
(71,269,o),
(72,275,c),
(72,276,o),
(72,277,o),
(72,277,c),
(65,285,o),
(65,295,o),
(67,304,c),
(70,339,o),
(82,372,o),
(101,401,cs),
(137,455,o),
(201,490,o),
(266,493,cs),
(314,495,o),
(361,461,o),
(363,411,c)
);
},
{
closed = 1;
nodes = (
(293,440,o),
(278,434,o),
(260,431,cs),
(231,425,o),
(205,411,o),
(183,391,cs),
(155,365,o),
(135,332,o),
(127,296,c),
(124,291,o),
(159,297,o),
(162,298,cs),
(217,310,o),
(285,355,o),
(293,415,c)
);
}
);
width = 403;
}
);
unicode = 254;
},
{
glyphname = exclamdbl;
layers = (
{
layerId = "EC70D3AE-AF6B-4669-B6F7-9C23D381EC59";
name = img;
width = 303;
},
{
layerId = "D6B6D460-257B-488B-8647-D4C61C54A5BD";
shapes = (
{
closed = 1;
nodes = (
(80,582,o),
(80,563,o),
(83,538,cs),
(85,522,o),
(87,505,o),
(90,489,cs),
(99,431,o),
(105,372,o),
(112,314,cs),
(116,282,o),
(122,250,o),
(121,218,c),
(121,207,o),
(121,194,o),
(110,189,c),
(93,179,o),
(67,188,o),
(62,208,cs),
(46,265,o),
(46,325,o),
(38,384,cs),
(33,428,o),
(30,472,o),
(26,516,cs),
(24,532,o),
(22,548,o),
(21,563,c),
(18,579,o),
(36,588,o),
(50,587,c)
);
},
{
closed = 1;
nodes = (
(45,98,o),
(30,177,o),
(100,177,c),
(160,173,o),
(176,93,o),
(106,93,c)
);
},
{
closed = 1;
nodes = (
(210,582,o),
(210,563,o),
(213,538,cs),
(215,522,o),
(217,505,o),
(220,489,cs),
(229,431,o),
(235,372,o),
(242,314,cs),
(246,282,o),
(252,250,o),
(251,218,c),
(251,207,o),
(251,194,o),
(240,189,c),
(223,179,o),
(197,188,o),
(192,208,cs),
(176,265,o),
(176,325,o),
(168,384,cs),
(163,428,o),
(160,472,o),
(156,516,cs),
(154,532,o),
(152,548,o),
(151,563,c),
(148,579,o),
(166,588,o),
(180,587,c)
);
},
{
closed = 1;
nodes = (
(175,98,o),
(160,177,o),
(230,177,c),
(290,173,o),
(306,93,o),
(236,93,c)
);
}
);
width = 303;
}
);
unicode = 8252;
},
{
glyphname = greaterequal;
layers = (
{
layerId = "EC70D3AE-AF6B-4669-B6F7-9C23D381EC59";
name = img;
width = 328;
},
{
layerId = "D6B6D460-257B-488B-8647-D4C61C54A5BD";
shapes = (
{
closed = 1;
nodes = (
(43,564,o),
(47,557,o),
(52,550,cs),
(83,507,o),
(116,465,o),
(148,423,c),
(169,390,o),
(223,344,o),
(212,303,c),
(204,279,o),
(188,260,o),
(174,239,cs),
(150,203,o),
(118,173,o),
(89,140,c),
(73,119,o),
(95,93,o),
(118,97,c),
(136,98,o),
(150,112,o),
(162,124,cs),
(198,162,o),
(232,203,o),
(258,249,c),
(274,274,o),
(286,303,o),
(283,333,cs),
(279,367,o),
(257,395,o),
(237,421,cs),
(211,456,o),
(184,490,o),
(157,525,c),
(138,546,o),
(105,604,o),
(79,605,cs),
(61,606,o),
(40,593,o),
(41,573,c)
);
},
{
closed = 1;
nodes = (
(225,24,o),
(177,27,o),
(129,27,cs),
(115,27,o),
(101,27,o),
(87,27,cs),
(72,27,o),
(56,24,o),
(42,29,cs),
(16,38,o),
(12,73,o),
(42,78,c),
(55,79,o),
(68,79,o),
(81,80,cs),
(146,82,o),
(213,83,o),
(278,74,c),
(318,65,o),
(319,19,o),
(274,22,c)
);
}
);
width = 328;
}
);
unicode = 8805;
},
{
glyphname = lessequal;
layers = (
{
layerId = "EC70D3AE-AF6B-4669-B6F7-9C23D381EC59";
name = img;
width = 328;
},
{
layerId = "D6B6D460-257B-488B-8647-D4C61C54A5BD";
shapes = (
{
closed = 1;
nodes = (
(285,564,o),
(281,557,o),
(276,550,cs),
(245,507,o),
(212,465,o),
(180,423,c),
(159,390,o),
(105,344,o),
(116,303,c),
(124,279,o),
(140,260,o),
(154,239,cs),
(178,203,o),
(210,173,o),
(239,140,c),
(255,119,o),
(233,93,o),
(210,97,c),
(192,98,o),
(178,112,o),
(166,124,cs),
(130,162,o),
(96,203,o),
(70,249,c),
(54,274,o),
(42,303,o),
(45,333,cs),
(49,367,o),
(71,395,o),
(91,421,cs),
(117,456,o),
(144,490,o),
(171,525,c),
(190,546,o),
(223,604,o),
(249,605,cs),
(267,606,o),
(288,593,o),
(287,573,c)
);
},
{
closed = 1;
nodes = (
(103,24,o),
(151,27,o),
(199,27,cs),
(213,27,o),
(227,27,o),
(241,27,cs),
(256,27,o),
(272,24,o),
(286,29,cs),
(312,38,o),
(316,73,o),
(286,78,c),
(273,79,o),
(260,79,o),
(247,80,cs),
(182,82,o),
(115,83,o),
(50,74,c),
(10,65,o),
(9,19,o),
(54,22,c)
);
}
);
width = 328;
}
);
unicode = 8804;
},
{
glyphname = notequal;
layers = (
{
layerId = "EC70D3AE-AF6B-4669-B6F7-9C23D381EC59";
name = img;
width = 328;
},
{
layerId = "D6B6D460-257B-488B-8647-D4C61C54A5BD";
shapes = (
{
closed = 1;
nodes = (
(72,99,o),
(60,104,o),
(54,115,cs),
(45,131,o),
(58,149,o),
(62,165,c),
(105,282,o),
(153,398,o),
(207,510,cs),
(218,532,o),
(229,553,o),
(239,575,cs),
(244,586,o),
(252,595,o),
(264,595,c),
(281,597,o),
(298,586,o),
(301,569,cs),
(302,562,o),
(298,557,o),
(295,551,cs),
(283,527,o),
(272,503,o),
(261,479,cs),
(208,364,o),
(158,247,o),
(117,128,cs),
(111,111,o),
(104,95,o),
(83,97,c)
);
},
{
closed = 1;
nodes = (
(225,373,o),
(177,376,o),
(129,376,cs),
(115,376,o),
(101,376,o),
(87,376,cs),
(72,376,o),
(56,373,o),
(42,378,cs),
(16,386,o),
(12,421,o),
(42,427,c),
(55,428,o),
(68,428,o),
(81,429,cs),
(146,431,o),
(213,432,o),
(278,423,c),
(318,414,o),
(319,368,o),
(274,370,cs)
);
},
{
closed = 1;
nodes = (
(225,259,o),
(177,262,o),
(129,262,cs),
(115,262,o),
(101,262,o),
(87,261,c),
(72,262,o),
(56,259,o),
(42,264,cs),
(16,272,o),
(12,307,o),
(42,312,cs),
(55,314,o),
(68,314,o),
(81,315,cs),
(146,317,o),
(213,318,o),
(278,309,c),
(318,300,o),
(319,254,o),
(274,256,cs)
);
}
);
width = 328;
}
);
unicode = 8800;
},
{
glyphname = logicalnot;
layers = (
{
layerId = "EC70D3AE-AF6B-4669-B6F7-9C23D381EC59";
name = img;
width = 437;
},
{
layerId = "D6B6D460-257B-488B-8647-D4C61C54A5BD";
shapes = (
{
closed = 1;
nodes = (
(402,135,o),
(401,161,o),
(401,177,c),
(402,213,o),
(405,248,o),
(411,284,c),
(412,295,o),
(414,305,o),
(415,316,c),
(419,333,o),
(416,350,o),
(398,356,cs),
(374,364,o),
(350,366,o),
(326,370,c),
(296,373,o),
(265,377,o),
(234,379,cs),
(185,383,o),
(135,383,o),
(84,380,c),
(70,380,o),
(56,380,o),
(42,378,c),
(27,379,o),
(19,368,o),
(21,354,c),
(24,336,o),
(36,329,o),
(53,332,c),
(70,333,o),
(87,333,o),
(103,334,c),
(159,335,o),
(214,332,o),
(269,327,cs),
(296,324,o),
(324,321,o),
(352,316,cs),
(357,315,o),
(363,315,o),
(369,313,c),
(370,313,o),
(370,313,o),
(370,312,c),
(364,285,o),
(361,258,o),
(360,231,c),
(358,215,o),
(357,198,o),
(357,181,c),
(354,164,o),
(359,141,o),
(379,137,c)
);
}
);
width = 437;
}
);
unicode = 172;
},
{
glyphname = estimated;
layers = (
{
layerId = "EC70D3AE-AF6B-4669-B6F7-9C23D381EC59";
name = img;
width = 338;
},
{
layerId = "D6B6D460-257B-488B-8647-D4C61C54A5BD";
shapes = (
{
closed = 1;
nodes = (
(87,99,o),
(29,192,o),
(43,279,c),
(49,341,o),
(82,416,o),
(153,421,cs),
(195,424,o),
(237,401,o),
(261,366,cs),
(285,333,o),
(300,283,o),
(269,250,c),
(232,214,o),
(163,218,o),
(117,231,cs),
(114,232,o),
(116,226,o),
(116,225,c),
(119,207,o),
(125,190,o),
(138,178,c),
(155,159,o),
(182,168,o),
(202,177,cs),
(223,186,o),
(247,210,o),
(271,205,c),
(286,201,o),
(299,189,o),
(297,173,c),
(292,154,o),
(272,143,o),
(257,131,c),
(234,117,o),
(208,107,o),
(181,105,cs)
);
},
{
closed = 1;
nodes = (
(218,327,o),
(203,341,o),
(192,355,c),
(170,374,o),
(142,347,o),
(133,326,cs),
(129,317,o),
(125,307,o),
(123,297,c),
(122,296,o),
(123,296,o),
(124,296,c),
(133,293,o),
(141,288,o),
(151,287,c),
(170,283,o),
(221,279,o),
(219,308,cs)
);
}
);
width = 338;
}
);
unicode = 8494;
},
{
glyphname = partialdiff;
layers = (
{
layerId = "EC70D3AE-AF6B-4669-B6F7-9C23D381EC59";
name = img;
width = 340;
},
{
layerId = "D6B6D460-257B-488B-8647-D4C61C54A5BD";
shapes = (
{
closed = 1;
nodes = (
(3,-101,o),
(7,64,o),
(44,159,cs),
(67,219,o),
(143,251,o),
(185,213,cs),
(210,191,o),
(220,159,o),
(230,128,c),
(243,197,o),
(269,308,o),
(225,357,c),
(205,382,o),
(166,386,o),
(143,347,cs),
(131,328,o),
(102,320,o),
(87,333,cs),
(76,343,o),
(87,363,o),
(94,376,c),
(116,406,o),
(152,425,o),
(186,432,cs),
(244,443,o),
(293,409,o),
(309,361,c),
(336,289,o),
(305,148,o),
(281,66,cs),
(273,39,o),
(263,13,o),
(251,-13,c),
(248,-23,o),
(239,-27,o),
(232,-34,c),
(209,-78,o),
(164,-120,o),
(115,-116,c)
);
},
{
closed = 1;
nodes = (
(88,54,o),
(87,-37,o),
(142,-60,c),
(156,-59,o),
(177,-24,o),
(184,-13,c),
(175,48,o),
(168,113,o),
(133,161,cs),
(131,163,o),
(124,172,o),
(120,169,c),
(107,151,o),
(103,131,o),
(99,111,cs)
);
}
);
width = 340;
}
);
unicode = 8706;
},
{
glyphname = afii61352;
layers = (
{
layerId = "EC70D3AE-AF6B-4669-B6F7-9C23D381EC59";
name = img;
width = 788;
},
{
layerId = "D6B6D460-257B-488B-8647-D4C61C54A5BD";
shapes = (
{
closed = 1;
nodes = (
(336,88,o),
(306,138,o),
(284,162,c),
(199,264,o),
(126,376,o),
(64,494,cs),
(50,520,o),
(37,546,o),
(27,573,c),
(25,594,o),
(50,603,o),
(66,596,cs),
(74,593,o),
(80,588,o),
(85,580,cs),
(98,556,o),
(112,534,o),
(125,510,cs),
(167,435,o),
(212,362,o),
(262,292,cs),
(293,248,o),
(326,204,o),
(361,162,c),
(373,145,o),
(396,127,o),
(400,107,c),
(401,91,o),
(384,81,o),
(369,83,cs)
);
},
{
closed = 1;
nodes = (
(68,81,o),
(53,99,o),
(50,121,c),
(32,214,o),
(23,309,o),
(21,404,cs),
(20,451,o),
(21,497,o),
(24,543,c),
(27,560,o),
(21,583,o),
(38,592,cs),
(52,599,o),
(69,595,o),
(79,584,cs),
(87,576,o),
(86,565,o),
(85,554,cs),
(80,441,o),
(84,328,o),
(99,216,cs),
(102,189,o),
(107,161,o),
(111,134,cs),
(115,113,o),
(121,87,o),
(92,83,c)
);
},
{
closed = 1;
nodes = (
(353,81,o),
(337,99,o),
(334,121,c),
(316,214,o),
(307,309,o),
(305,404,cs),
(305,451,o),
(306,497,o),
(308,543,c),
(311,560,o),
(305,583,o),
(323,592,cs),
(336,599,o),
(353,595,o),
(363,584,c),
(372,576,o),
(370,565,o),
(369,554,cs),
(364,441,o),
(369,328,o),
(383,216,cs),
(386,189,o),
(391,161,o),
(396,134,cs),
(399,113,o),
(406,87,o),
(376,83,c)
);
},
{
closed = 1;
nodes = (
(765,313,o),
(744,258,o),
(698,226,cs),
(597,158,o),
(463,225,o),
(438,339,cs),
(422,410,o),
(447,489,o),
(497,540,cs),
(530,572,o),
(578,587,o),
(622,577,cs),
(715,557,o),
(758,453,o),
(761,368,c)
);
},
{
closed = 1;
nodes = (
(668,407,o),
(646,479,o),
(612,498,c),
(554,497,o),
(528,411,o),
(528,363,cs),
(527,322,o),
(544,282,o),
(589,278,c),
(640,275,o),
(670,324,o),
(668,369,c)
);
},
{
closed = 1;
nodes = (
(685,84,o),
(637,87,o),
(589,87,cs),
(575,87,o),
(561,87,o),
(547,87,cs),
(532,87,o),
(516,84,o),
(502,89,cs),
(476,98,o),
(472,133,o),
(502,138,c),
(515,139,o),
(528,139,o),
(541,140,cs),
(606,142,o),
(673,143,o),
(738,134,c),
(778,125,o),
(779,79,o),
(734,82,c)
);
}
);
width = 788;
}
);
unicode = 8470;
},
{
glyphname = infinity;
layers = (
{
layerId = "EC70D3AE-AF6B-4669-B6F7-9C23D381EC59";
name = img;
width = 542;
},
{
layerId = "D6B6D460-257B-488B-8647-D4C61C54A5BD";
shapes = (
{
closed = 1;
nodes = (
(521,216,o),
(354,144,o),
(258,273,c),
(257,274,o),
(257,274,o),
(256,273,c),
(246,257,o),
(235,242,o),
(221,229,cs),
(200,209,o),
(174,193,o),
(145,189,cs),
(73,178,o),
(24,253,o),
(21,318,cs),
(14,462,o),
(171,558,o),
(273,433,c),
(274,432,o),
(274,432,o),
(275,433,c),
(301,473,o),
(340,510,o),
(389,515,cs),
(469,523,o),
(523,441,o),
(521,369,c)
);
},
{
closed = 1;
nodes = (
(459,396,o),
(434,439,o),
(392,442,c),
(340,442,o),
(313,376,o),
(292,338,c),
(311,310,o),
(344,283,o),
(380,280,cs),
(425,277,o),
(458,312,o),
(458,356,c)
);
},
{
closed = 1;
nodes = (
(191,270,o),
(214,327,o),
(236,365,c),
(214,393,o),
(181,422,o),
(142,415,cs),
(101,407,o),
(76,358,o),
(88,319,c),
(94,294,o),
(112,264,o),
(141,265,c)
);
}
);
width = 542;
}
);
unicode = 8734;
},
{
glyphname = franc;
layers = (
{
layerId = "EC70D3AE-AF6B-4669-B6F7-9C23D381EC59";
name = img;
width = 312;
},
{
layerId = "D6B6D460-257B-488B-8647-D4C61C54A5BD";
shapes = (
{
closed = 1;
nodes = (
(287,493,o),
(251,494,o),
(238,512,cs),
(231,523,o),
(219,532,o),
(206,534,cs),
(155,540,o),
(125,485,o),
(118,442,cs),
(110,396,o),
(116,350,o),
(119,304,cs),
(123,247,o),
(131,191,o),
(146,135,c),
(147,122,o),
(149,105,o),
(132,98,cs),
(115,92,o),
(92,98,o),
(84,115,c),
(74,130,o),
(69,148,o),
(65,166,cs),
(60,187,o),
(56,208,o),
(53,230,cs),
(48,270,o),
(45,310,o),
(42,350,cs),
(36,413,o),
(37,482,o),
(75,536,cs),
(98,569,o),
(136,593,o),
(177,595,cs),
(225,598,o),
(285,570,o),
(292,518,c)
);
},
{
closed = 1;
nodes = (
(25,341,o),
(69,336,o),
(91,341,c),
(107,342,o),
(123,344,o),
(139,345,cs),
(162,347,o),
(186,351,o),
(208,341,cs),
(223,335,o),
(234,316,o),
(223,302,c),
(201,280,o),
(165,287,o),
(136,283,c),
(121,282,o),
(106,282,o),
(91,281,c),
(67,281,o),
(33,279,o),
(26,309,c)
);
},
{
closed = 1;
nodes = (
(144,115,o),
(115,116,o),
(86,116,cs),
(78,116,o),
(69,116,o),
(61,116,cs),
(51,116,o),
(42,115,o),
(33,118,cs),
(17,123,o),
(15,144,o),
(33,147,cs),
(41,148,o),
(49,148,o),
(57,149,c),
(96,150,o),
(137,150,o),
(177,145,c),
(201,140,o),
(202,112,o),
(174,113,cs)
);
}
);
width = 312;
}
);
unicode = 8355;
},
{
glyphname = lira;
layers = (
{
layerId = "EC70D3AE-AF6B-4669-B6F7-9C23D381EC59";
name = img;
width = 323;
},
{
layerId = "D6B6D460-257B-488B-8647-D4C61C54A5BD";
shapes = (
{
closed = 1;
nodes = (
(230,601,o),
(259,584,o),
(273,557,cs),
(278,547,o),
(282,535,o),
(281,524,c),
(277,509,o),
(258,505,o),
(245,509,cs),
(234,512,o),
(224,521,o),
(223,532,c),
(219,551,o),
(199,554,o),
(185,544,c),
(136,514,o),
(138,423,o),
(136,371,cs),
(135,305,o),
(136,238,o),
(117,175,cs),
(115,167,o),
(112,160,o),
(109,152,c),
(108,151,o),
(108,151,o),
(110,151,c),
(144,150,o),
(178,151,o),
(212,154,c),
(242,155,o),
(280,172,o),
(299,139,cs),
(307,125,o),
(299,107,o),
(284,104,cs),
(266,100,o),
(247,99,o),
(229,97,cs),
(186,93,o),
(144,93,o),
(101,94,c),
(76,97,o),
(44,89,o),
(26,111,cs),
(18,121,o),
(18,135,o),
(26,145,c),
(36,160,o),
(43,175,o),
(49,192,cs),
(63,230,o),
(66,271,o),
(67,312,cs),
(69,415,o),
(56,599,o),
(200,603,c)
);
},
{
closed = 1;
nodes = (
(224,370,o),
(202,365,o),
(185,366,c),
(163,365,o),
(141,365,o),
(118,365,cs),
(99,365,o),
(80,363,o),
(61,366,cs),
(45,369,o),
(29,387,o),
(39,403,cs),
(44,410,o),
(51,414,o),
(59,414,c),
(74,415,o),
(89,416,o),
(103,416,c),
(125,417,o),
(147,417,o),
(169,418,cs),
(192,419,o),
(216,418,o),
(222,391,c)
);
},
{
closed = 1;
nodes = (
(224,270,o),
(202,265,o),
(185,266,c),
(163,265,o),
(141,265,o),
(118,265,cs),
(99,265,o),
(80,263,o),
(61,266,cs),
(45,269,o),
(29,287,o),
(39,303,cs),
(44,310,o),
(51,314,o),
(59,314,c),
(74,315,o),
(89,316,o),
(103,316,c),
(125,317,o),
(147,317,o),
(169,318,cs),
(192,319,o),
(216,318,o),
(222,291,c)
);
}
);
width = 323;
}
);
unicode = 8356;
},
{
glyphname = peseta;
layers = (
{
layerId = "EC70D3AE-AF6B-4669-B6F7-9C23D381EC59";
name = img;
width = 557;
},
{
layerId = "D6B6D460-257B-488B-8647-D4C61C54A5BD";
shapes = (
{
closed = 1;
nodes = (
(114,88,o),
(94,81,o),
(80,84,c),
(60,87,o),
(51,105,o),
(48,123,cs),
(22,264,o),
(15,407,o),
(24,549,c),
(26,564,o),
(21,585,o),
(37,592,cs),
(59,603,o),
(90,585,o),
(84,560,c),
(79,463,o),
(82,365,o),
(92,268,c),
(96,213,o),
(108,159,o),
(114,105,c)
);
},
{
closed = 1;
nodes = (
(65,194,o),
(37,218,o),
(55,239,c),
(67,256,o),
(89,261,o),
(106,273,c),
(171,311,o),
(225,381,o),
(226,458,c),
(224,526,o),
(174,549,o),
(113,547,c),
(87,550,o),
(52,535,o),
(35,563,c),
(23,586,o),
(47,599,o),
(67,598,c),
(114,604,o),
(164,604,o),
(208,583,c),
(304,541,o),
(313,421,o),
(263,339,c),
(235,286,o),
(151,195,o),
(87,195,c)
);
},
{
closed = 1;
nodes = (
(342,387,o),
(349,383,o),
(352,376,cs),
(356,368,o),
(349,353,o),
(349,344,c),
(348,335,o),
(346,325,o),
(345,315,cs),
(340,275,o),
(338,234,o),
(340,193,c),
(342,172,o),
(340,123,o),
(372,129,c),
(383,129,o),
(396,120,o),
(394,109,cs),
(390,92,o),
(367,91,o),
(353,95,cs),
(314,106,o),
(300,144,o),
(299,182,c),
(296,233,o),
(299,285,o),
(308,336,c),
(311,349,o),
(314,363,o),
(318,376,c),
(318,384,o),
(326,388,o),
(334,387,c)
);
},
{
closed = 1;
nodes = (
(273,305,o),
(295,302,o),
(308,303,cs),
(324,304,o),
(342,305,o),
(359,306,c),
(369,306,o),
(380,307,o),
(390,308,c),
(399,308,o),
(408,309,o),
(417,306,cs),
(429,303,o),
(438,286,o),
(427,277,c),
(414,269,o),
(383,274,o),
(367,272,c),
(343,272,o),
(320,272,o),
(296,272,cs),
(286,272,o),
(275,277,o),
(274,287,cs)
);
},
{
closed = 1;
nodes = (
(439,120,o),
(449,126,o),
(457,126,c),
(465,127,o),
(474,125,o),
(480,130,c),
(494,139,o),
(496,158,o),
(486,170,cs),
(478,180,o),
(467,187,o),
(460,198,c),
(434,229,o),
(442,278,o),
(479,297,cs),
(491,303,o),
(504,305,o),
(518,304,cs),
(538,303,o),
(545,274,o),
(522,274,c),
(512,273,o),
(503,268,o),
(496,261,cs),
(488,252,o),
(485,238,o),
(488,226,cs),
(490,218,o),
(496,211,o),
(503,205,cs),
(513,196,o),
(522,187,o),
(528,176,cs),
(541,152,o),
(536,120,o),
(514,103,cs),
(496,88,o),
(446,81,o),
(440,111,c)
);
}
);
width = 557;
}
);
unicode = 8359;
},
{
glyphname = colonmonetary;
layers = (
{
layerId = "EC70D3AE-AF6B-4669-B6F7-9C23D381EC59";
name = img;
width = 403;
},
{
layerId = "D6B6D460-257B-488B-8647-D4C61C54A5BD";
shapes = (
{
closed = 1;
nodes = (
(257,589,o),
(303,536,o),
(322,480,cs),
(326,470,o),
(329,460,o),
(332,450,cs),
(341,416,o),
(287,411,o),
(275,445,cs),
(217,611,o),
(143,496,o),
(122,388,c),
(113,329,o),
(107,266,o),
(129,210,c),
(157,150,o),
(208,132,o),
(261,176,c),
(281,188,o),
(295,220,o),
(318,222,cs),
(337,224,o),
(358,212,o),
(362,192,c),
(364,177,o),
(352,166,o),
(343,155,cs),
(319,129,o),
(290,105,o),
(256,95,cs),
(143,62,o),
(48,163,o),
(42,271,c),
(33,371,o),
(64,588,o),
(194,590,c)
);
},
{
closed = 1;
nodes = (
(119,76,o),
(109,82,o),
(103,96,c),
(94,113,o),
(102,134,o),
(103,153,c),
(122,290,o),
(145,426,o),
(174,558,c),
(179,584,o),
(186,608,o),
(190,633,cs),
(192,647,o),
(198,657,o),
(208,657,c),
(220,660,o),
(235,647,o),
(239,627,cs),
(241,618,o),
(239,613,o),
(237,606,cs),
(231,577,o),
(225,549,o),
(220,521,c),
(192,387,o),
(168,250,o),
(150,111,c),
(149,89,o),
(145,72,o),
(128,73,c)
);
},
{
closed = 1;
nodes = (
(194,41,o),
(184,47,o),
(177,59,c),
(169,79,o),
(176,100,o),
(177,119,c),
(197,256,o),
(220,390,o),
(247,523,c),
(254,548,o),
(260,573,o),
(265,599,cs),
(267,611,o),
(272,623,o),
(282,623,c),
(295,624,o),
(309,611,o),
(314,592,cs),
(316,584,o),
(313,577,o),
(311,570,c),
(306,543,o),
(299,515,o),
(294,486,c),
(267,352,o),
(243,214,o),
(225,74,cs),
(223,55,o),
(220,36,o),
(202,39,cs)
);
}
);
width = 403;
}
);
unicode = 8353;
},
{
glyphname = Eng;
layers = (
{
layerId = "EC70D3AE-AF6B-4669-B6F7-9C23D381EC59";
name = img;
width = 461;
},
{
layerId = "D6B6D460-257B-488B-8647-D4C61C54A5BD";
shapes = (
{
closed = 1;
nodes = (
(88,81,o),
(73,99,o),
(70,121,c),
(52,214,o),
(43,309,o),
(41,404,cs),
(40,451,o),
(41,497,o),
(44,543,c),
(46,554,o),
(44,568,o),
(47,578,c),
(49,595,o),
(71,602,o),
(86,596,cs),
(94,593,o),
(100,588,o),
(105,580,cs),
(118,556,o),
(132,534,o),
(145,510,cs),
(187,435,o),
(232,362,o),
(282,292,cs),
(300,266,o),
(319,240,o),
(338,214,c),
(330,277,o),
(326,340,o),
(325,404,cs),
(325,451,o),
(326,497,o),
(328,543,c),
(331,560,o),
(325,583,o),
(343,592,cs),
(356,599,o),
(373,595,o),
(383,584,c),
(392,576,o),
(390,565,o),
(389,554,cs),
(384,441,o),
(389,328,o),
(403,216,cs),
(421,57,o),
(405,12,o),
(380,-35,c),
(360,-77,o),
(315,-107,o),
(267,-104,cs),
(215,-101,o),
(162,-69,o),
(129,-29,c),
(109,6,o),
(156,22,o),
(180,4,cs),
(211,-18,o),
(249,-61,o),
(288,-34,c),
(323,-8,o),
(330,38,o),
(334,79,c),
(336,123,l),
(324,137,o),
(313,152,o),
(304,162,cs),
(227,253,o),
(160,353,o),
(103,458,c),
(103,377,o),
(108,296,o),
(119,216,cs),
(122,189,o),
(127,161,o),
(131,134,cs),
(135,113,o),
(141,87,o),
(112,83,c)
);
}
);
width = 461;
}
);
unicode = 330;
},
{
glyphname = eng;
layers = (
{
layerId = "EC70D3AE-AF6B-4669-B6F7-9C23D381EC59";
name = img;
width = 393;
},
{
layerId = "D6B6D460-257B-488B-8647-D4C61C54A5BD";
shapes = (
{
closed = 1;
nodes = (
(329,277,o),
(324,322,o),
(307,364,cs),
(296,390,o),
(280,415,o),
(255,426,cs),
(231,436,o),
(203,433,o),
(180,422,cs),
(157,410,o),
(138,391,o),
(122,371,cs),
(117,364,o),
(111,356,o),
(109,347,cs),
(108,343,o),
(108,338,o),
(108,333,c),
(107,338,o),
(107,343,o),
(107,348,c),
(106,358,o),
(105,368,o),
(104,377,cs),
(102,406,o),
(106,444,o),
(65,443,c),
(34,439,o),
(42,416,o),
(41,393,c),
(42,380,o),
(42,366,o),
(42,353,cs),
(43,303,o),
(45,253,o),
(47,203,cs),
(48,177,o),
(49,150,o),
(52,124,c),
(54,114,o),
(52,101,o),
(60,93,c),
(74,76,o),
(107,73,o),
(116,96,c),
(119,127,o),
(118,159,o),
(115,190,c),
(115,191,o),
(115,191,o),
(115,191,c),
(135,258,o),
(163,326,o),
(216,371,cs),
(220,375,o),
(226,379,o),
(232,377,cs),
(236,376,o),
(238,372,o),
(240,368,cs),
(249,349,o),
(254,329,o),
(257,309,c),
(267,257,o),
(271,205,o),
(281,153,cs),
(286,126,o),
(293,98,o),
(287,70,cs),
(282,43,o),
(260,17,o),
(232,17,cs),
(208,17,o),
(188,36,o),
(165,42,cs),
(155,45,o),
(144,45,o),
(136,40,c),
(127,36,o),
(121,25,o),
(123,16,cs),
(125,7,o),
(132,2,o),
(140,-3,cs),
(182,-31,o),
(237,-45,o),
(284,-26,c),
(320,-10,o),
(338,17,o),
(347,48,c),
(361,105,o),
(343,179,o),
(335,232,cs)
);
}
);
width = 393;
}
);
unicode = 331;
},
{
glyphname = longs;
layers = (
{
layerId = "EC70D3AE-AF6B-4669-B6F7-9C23D381EC59";
name = img;
width = 399;
},
{
layerId = "D6B6D460-257B-488B-8647-D4C61C54A5BD";
shapes = (
{
closed = 1;
nodes = (
(360,576,o),
(327,574,o),
(306,574,c),
(260,576,o),
(214,580,o),
(168,587,cs),
(154,589,o),
(140,591,o),
(126,592,c),
(104,597,o),
(82,594,o),
(74,570,cs),
(64,540,o),
(62,508,o),
(57,477,c),
(52,438,o),
(47,399,o),
(45,359,c),
(40,295,o),
(40,230,o),
(43,165,cs),
(44,147,o),
(44,128,o),
(46,110,c),
(45,91,o),
(59,81,o),
(77,83,c),
(100,87,o),
(109,102,o),
(105,124,c),
(104,146,o),
(104,168,o),
(103,189,c),
(102,261,o),
(105,332,o),
(112,403,cs),
(116,439,o),
(120,475,o),
(126,511,cs),
(127,518,o),
(128,525,o),
(130,533,c),
(130,534,o),
(130,534,o),
(131,534,c),
(166,527,o),
(201,523,o),
(236,521,cs),
(257,519,o),
(279,518,o),
(301,517,c),
(323,514,o),
(353,520,o),
(358,546,c)
);
}
);
width = 399;
}
);
unicode = 383;
},
{
glyphname = Gcommaaccent;
layers = (
{
layerId = "EC70D3AE-AF6B-4669-B6F7-9C23D381EC59";
name = img;
width = 408;
},
{
layerId = "D6B6D460-257B-488B-8647-D4C61C54A5BD";
shapes = (
{
closed = 1;
nodes = (
(231,-10,o),
(226,-32,o),
(211,-46,cs),
(195,-62,o),
(164,-57,o),
(154,-37,c),
(143,-19,o),
(163,-4,o),
(163,14,cs),
(163,21,o),
(163,29,o),
(164,36,cs),
(167,50,o),
(183,55,o),
(195,53,c),
(217,51,o),
(229,30,o),
(231,10,c)
);
},
{
alignment = -1;
ref = G;
}
);
width = 408;
}
);
leftKerningGroup = _kern6;
rightKerningGroup = _kern5;
unicode = 290;
},
{
glyphname = Kcommaaccent;
layers = (
{
layerId = "EC70D3AE-AF6B-4669-B6F7-9C23D381EC59";
name = img;
width = 390;
},
{
layerId = "D6B6D460-257B-488B-8647-D4C61C54A5BD";
shapes = (
{
closed = 1;
nodes = (
(231,-10,o),
(226,-32,o),
(211,-46,cs),
(195,-62,o),
(164,-57,o),
(154,-37,c),
(143,-19,o),
(163,-4,o),
(163,14,cs),
(163,21,o),
(163,29,o),
(164,36,cs),
(167,50,o),
(183,55,o),
(195,53,c),
(217,51,o),
(229,30,o),
(231,10,c)
);
},
{
alignment = -1;
ref = K;
}
);
width = 390;
}
);
leftKerningGroup = _kern4;
rightKerningGroup = _kern13;
unicode = 310;
},
{
glyphname = Lcommaaccent;
layers = (
{
layerId = "EC70D3AE-AF6B-4669-B6F7-9C23D381EC59";
name = img;
width = 399;
},
{
layerId = "D6B6D460-257B-488B-8647-D4C61C54A5BD";
shapes = (
{
closed = 1;
nodes = (
(231,-10,o),
(226,-32,o),
(211,-46,cs),
(195,-62,o),
(164,-57,o),
(154,-37,c),
(143,-19,o),
(163,-4,o),
(163,14,cs),
(163,21,o),
(163,29,o),
(164,36,cs),
(167,50,o),
(183,55,o),
(195,53,c),
(217,51,o),
(229,30,o),
(231,10,c)
);
},
{
alignment = -1;
ref = L;
}
);
width = 399;
}
);
leftKerningGroup = _kern4;
rightKerningGroup = _kern14;
unicode = 315;
},
{
glyphname = Ncommaaccent;
layers = (
{
layerId = "EC70D3AE-AF6B-4669-B6F7-9C23D381EC59";
name = img;
width = 461;
},
{
layerId = "D6B6D460-257B-488B-8647-D4C61C54A5BD";
shapes = (
{
closed = 1;
nodes = (
(271,-10,o),
(266,-32,o),
(251,-46,cs),
(235,-62,o),
(204,-57,o),
(194,-37,c),
(183,-19,o),
(203,-4,o),
(203,14,cs),
(203,21,o),
(203,29,o),
(204,36,cs),
(207,50,o),
(223,55,o),
(235,53,c),
(257,51,o),
(269,30,o),
(271,10,c)
);
},
{
alignment = -1;
ref = N;
}
);
width = 461;
}
);
leftKerningGroup = _kern4;
rightKerningGroup = _kern10;
unicode = 325;
},
{
glyphname = Rcommaaccent;
layers = (
{
layerId = "EC70D3AE-AF6B-4669-B6F7-9C23D381EC59";
name = img;
width = 353;
},
{
layerId = "D6B6D460-257B-488B-8647-D4C61C54A5BD";
shapes = (
{
closed = 1;
nodes = (
(231,-10,o),
(226,-32,o),
(211,-46,cs),
(195,-62,o),
(164,-57,o),
(154,-37,c),
(143,-19,o),
(163,-4,o),
(163,14,cs),
(163,21,o),
(163,29,o),
(164,36,cs),
(167,50,o),
(183,55,o),
(195,53,c),
(217,51,o),
(229,30,o),
(231,10,c)
);
},
{
alignment = -1;
ref = R;
}
);
width = 353;
}
);
leftKerningGroup = _kern4;
rightKerningGroup = _kern15;
unicode = 342;
},
{
glyphname = Tcommaaccent;
layers = (
{
layerId = "EC70D3AE-AF6B-4669-B6F7-9C23D381EC59";
name = img;
width = 410;
},
{
layerId = "D6B6D460-257B-488B-8647-D4C61C54A5BD";
shapes = (
{
closed = 1;
nodes = (
(261,-10,o),
(256,-32,o),
(241,-46,cs),
(225,-62,o),
(194,-57,o),
(184,-37,c),
(173,-19,o),
(193,-4,o),
(193,14,cs),
(193,21,o),
(193,29,o),
(194,36,cs),
(197,50,o),
(213,55,o),
(225,53,c),
(247,51,o),
(259,30,o),
(261,10,c)
);
},
{
alignment = -1;
ref = T;
}
);
width = 410;
}
);
leftKerningGroup = _kern17;
rightKerningGroup = _kern17;
unicode = 354;
},
{
glyphname = Lslash;
layers = (
{
layerId = "EC70D3AE-AF6B-4669-B6F7-9C23D381EC59";
name = img;
width = 399;
},
{
layerId = "D6B6D460-257B-488B-8647-D4C61C54A5BD";
shapes = (
{
closed = 1;
nodes = (
(285,387,o),
(262,427,o),
(223,416,c),
(161,393,o),
(103,360,o),
(46,328,c),
(35,321,o),
(24,315,o),
(13,308,c),
(-11,289,o),
(9,260,o),
(36,264,cs),
(51,267,o),
(63,277,o),
(77,284,cs),
(89,291,o),
(101,297,o),
(114,304,cs),
(156,327,o),
(200,347,o),
(244,368,cs)
);
},
{
closed = 1;
nodes = (
(353,158,o),
(323,164,o),
(301,161,c),
(279,160,o),
(257,159,o),
(236,157,cs),
(201,155,o),
(166,151,o),
(131,144,c),
(130,144,o),
(130,144,o),
(130,145,c),
(128,153,o),
(127,160,o),
(126,167,cs),
(120,203,o),
(116,239,o),
(112,275,cs),
(105,346,o),
(102,417,o),
(103,489,c),
(104,510,o),
(104,532,o),
(105,554,c),
(109,576,o),
(100,591,o),
(77,595,c),
(59,597,o),
(45,587,o),
(46,568,c),
(44,550,o),
(44,531,o),
(43,513,cs),
(40,448,o),
(40,383,o),
(45,319,c),
(47,279,o),
(52,240,o),
(57,201,c),
(62,170,o),
(64,138,o),
(74,108,cs),
(82,84,o),
(104,81,o),
(126,86,c),
(140,87,o),
(154,89,o),
(168,91,cs),
(214,98,o),
(260,102,o),
(306,104,c),
(327,104,o),
(360,102,o),
(358,132,c)
);
}
);
width = 399;
}
);
leftKerningGroup = _kern4;
rightKerningGroup = _kern14;
unicode = 321;
},
{
glyphname = Scommaaccent;
layers = (
{
layerId = "EC70D3AE-AF6B-4669-B6F7-9C23D381EC59";
name = img;
width = 333;
},
{
layerId = "D6B6D460-257B-488B-8647-D4C61C54A5BD";
shapes = (
{
closed = 1;
nodes = (
(221,-10,o),
(216,-32,o),
(201,-46,cs),
(185,-62,o),
(154,-57,o),
(144,-37,c),
(133,-19,o),
(153,-4,o),
(153,14,cs),
(153,21,o),
(153,29,o),
(154,36,cs),
(157,50,o),
(173,55,o),
(185,53,c),
(207,51,o),
(219,30,o),
(221,10,c)
);
},
{
alignment = -1;
ref = S;
}
);
width = 333;
}
);
leftKerningGroup = _kern16;
rightKerningGroup = _kern16;
unicode = 536;
},
{
glyphname = ff;
layers = (
{
layerId = "EC70D3AE-AF6B-4669-B6F7-9C23D381EC59";
name = img;
width = 427;
},
{
layerId = "D6B6D460-257B-488B-8647-D4C61C54A5BD";
shapes = (
{
closed = 1;
nodes = (
(247,481,o),
(210,478,o),
(195,496,c),
(182,508,o),
(194,525,o),
(174,533,c),
(117,532,o),
(109,441,o),
(106,398,cs),
(101,334,o),
(104,270,o),
(111,206,cs),
(113,189,o),
(116,171,o),
(118,154,cs),
(120,137,o),
(126,121,o),
(123,104,c),
(116,73,o),
(68,79,o),
(58,105,c),
(52,116,o),
(51,129,o),
(50,142,cs),
(47,164,o),
(43,186,o),
(41,209,c),
(30,302,o),
(21,439,o),
(60,525,c),
(77,560,o),
(111,587,o),
(150,590,cs),
(196,593,o),
(248,559,o),
(247,509,c)
);
},
{
closed = 1;
nodes = (
(369,375,o),
(329,378,o),
(307,377,c),
(278,377,o),
(109,377,o),
(79,378,c),
(63,378,o),
(47,378,o),
(31,380,c),
(12,381,o),
(-9,404,o),
(6,422,cs),
(19,437,o),
(70,432,o),
(91,434,cs),
(109,435,o),
(267,435,o),
(285,436,c),
(313,435,o),
(361,442,o),
(369,406,c)
);
},
{
closed = 1;
nodes = (
(386,481,o),
(349,478,o),
(334,496,c),
(321,508,o),
(333,525,o),
(313,533,c),
(256,532,o),
(248,441,o),
(245,398,cs),
(240,334,o),
(243,270,o),
(250,206,cs),
(252,189,o),
(255,171,o),
(257,154,cs),
(259,137,o),
(265,121,o),
(262,104,c),
(255,73,o),
(207,79,o),
(197,105,c),
(191,116,o),
(190,129,o),
(189,142,cs),
(186,164,o),
(182,186,o),
(180,209,c),
(169,302,o),
(160,439,o),
(199,525,c),
(216,560,o),
(250,587,o),
(289,590,cs),
(335,593,o),
(387,559,o),
(386,509,c)
);
}
);
width = 427;
}
);
leftKerningGroup = _kern27;
rightKerningGroup = _kern44;
unicode = 64256;
},
{
glyphname = ffi;
layers = (
{
layerId = "EC70D3AE-AF6B-4669-B6F7-9C23D381EC59";
name = img;
width = 758;
},
{
layerId = "D6B6D460-257B-488B-8647-D4C61C54A5BD";
shapes = (
{
closed = 1;
nodes = (
(247,481,o),
(210,478,o),
(195,496,c),
(182,508,o),
(194,525,o),
(174,533,c),
(117,532,o),
(109,441,o),
(106,398,cs),
(101,334,o),
(104,270,o),
(111,206,cs),
(113,189,o),
(116,171,o),
(118,154,cs),
(120,137,o),
(126,121,o),
(123,104,c),
(116,73,o),
(68,79,o),
(58,105,c),
(52,116,o),
(51,129,o),
(50,142,cs),
(47,164,o),
(43,186,o),
(41,209,c),
(30,302,o),
(21,439,o),
(60,525,c),
(77,560,o),
(111,587,o),
(150,590,cs),
(196,593,o),
(248,559,o),
(247,509,c)
);
},
{
closed = 1;
nodes = (
(369,375,o),
(329,378,o),
(307,377,c),
(278,377,o),
(109,377,o),
(79,378,c),
(63,378,o),
(47,378,o),
(31,380,c),
(12,381,o),
(-9,404,o),
(6,422,cs),
(19,437,o),
(70,432,o),
(91,434,cs),
(109,435,o),
(267,435,o),
(285,436,c),
(313,435,o),
(361,442,o),
(369,406,c)
);
},
{
closed = 1;
nodes = (
(386,481,o),
(349,478,o),
(334,496,c),
(321,508,o),
(333,525,o),
(313,533,c),
(256,532,o),
(248,441,o),
(245,398,cs),
(240,334,o),
(243,270,o),
(250,206,cs),
(252,189,o),
(255,171,o),
(257,154,cs),
(259,137,o),
(265,121,o),
(262,104,c),
(255,73,o),
(207,79,o),
(197,105,c),
(191,116,o),
(190,129,o),
(189,142,cs),
(186,164,o),
(182,186,o),
(180,209,c),
(169,302,o),
(160,439,o),
(199,525,c),
(216,560,o),
(250,587,o),
(289,590,cs),
(335,593,o),
(387,559,o),
(386,509,c)
);
},
{
closed = 1;
nodes = (
(347,78,o),
(330,87,o),
(326,103,cs),
(323,119,o),
(322,136,o),
(320,152,c),
(318,197,o),
(317,241,o),
(315,285,cs),
(313,330,o),
(312,366,o),
(312,411,c),
(315,443,o),
(368,436,o),
(372,405,cs),
(375,375,o),
(377,355,o),
(379,326,cs),
(382,273,o),
(384,221,o),
(387,169,cs),
(388,151,o),
(389,133,o),
(388,115,c),
(389,95,o),
(384,80,o),
(362,79,cs)
);
}
);
width = 758;
}
);
leftKerningGroup = _kern27;
rightKerningGroup = _kern29;
unicode = 64259;
},
{
glyphname = ffl;
layers = (
{
layerId = "EC70D3AE-AF6B-4669-B6F7-9C23D381EC59";
name = img;
width = 435;
},
{
layerId = "D6B6D460-257B-488B-8647-D4C61C54A5BD";
shapes = (
{
closed = 1;
nodes = (
(247,481,o),
(210,478,o),
(195,496,c),
(182,508,o),
(194,525,o),
(174,533,c),
(117,532,o),
(109,441,o),
(106,398,cs),
(101,334,o),
(104,270,o),
(111,206,cs),
(113,189,o),
(116,171,o),
(118,154,cs),
(120,137,o),
(126,121,o),
(123,104,c),
(116,73,o),
(68,79,o),
(58,105,c),
(52,116,o),
(51,129,o),
(50,142,cs),
(47,164,o),
(43,186,o),
(41,209,c),
(30,302,o),
(21,439,o),
(60,525,c),
(77,560,o),
(111,587,o),
(150,590,cs),
(196,593,o),
(248,559,o),
(247,509,c)
);
},
{
closed = 1;
nodes = (
(309,375,o),
(269,378,o),
(247,377,c),
(218,377,o),
(109,377,o),
(79,378,c),
(63,378,o),
(47,378,o),
(31,380,c),
(12,381,o),
(-9,404,o),
(6,422,cs),
(19,437,o),
(70,432,o),
(91,434,cs),
(109,435,o),
(207,435,o),
(225,436,c),
(253,435,o),
(301,442,o),
(309,406,c)
);
},
{
closed = 1;
nodes = (
(386,481,o),
(349,478,o),
(334,496,c),
(321,508,o),
(333,525,o),
(313,533,c),
(256,532,o),
(248,441,o),
(245,398,cs),
(240,334,o),
(243,270,o),
(250,206,cs),
(252,189,o),
(255,171,o),
(257,154,cs),
(259,137,o),
(265,121,o),
(262,104,c),
(255,73,o),
(207,79,o),
(197,105,c),
(191,116,o),
(190,129,o),
(189,142,cs),
(186,164,o),
(182,186,o),
(180,209,c),
(169,302,o),
(160,439,o),
(199,525,c),
(216,560,o),
(250,587,o),
(289,590,cs),
(335,593,o),
(387,559,o),
(386,509,c)
);
},
{
closed = 1;
nodes = (
(395,88,o),
(375,81,o),
(361,84,c),
(335,88,o),
(329,115,o),
(327,137,cs),
(317,278,o),
(321,357,o),
(325,494,c),
(325,508,o),
(323,526,o),
(338,533,cs),
(352,540,o),
(369,536,o),
(379,525,cs),
(392,511,o),
(383,491,o),
(384,475,c),
(381,386,o),
(388,349,o),
(388,269,cs),
(388,214,o),
(389,160,o),
(395,105,c)
);
}
);
width = 435;
}
);
leftKerningGroup = _kern27;
rightKerningGroup = _kern32;
unicode = 64260;
},
{
glyphname = fi;
layers = (
{
layerId = "EC70D3AE-AF6B-4669-B6F7-9C23D381EC59";
name = img;
width = 299;
},
{
layerId = "D6B6D460-257B-488B-8647-D4C61C54A5BD";
shapes = (
{
closed = 1;
nodes = (
(247,481,o),
(210,478,o),
(195,496,c),
(182,508,o),
(194,525,o),
(174,533,c),
(130,532,o),
(115,479,o),
(109,435,c),
(121,435,o),
(134,435,o),
(146,436,c),
(177,433,o),
(229,445,o),
(242,405,c),
(245,375,o),
(247,355,o),
(249,326,cs),
(257,169,ls),
(258,151,o),
(259,133,o),
(258,115,c),
(259,95,o),
(254,80,o),
(232,79,cs),
(217,78,o),
(200,87,o),
(196,103,cs),
(193,119,o),
(192,136,o),
(190,152,c),
(185,285,l),
(183,318,o),
(182,346,o),
(182,377,c),
(168,377,ls),
(147,377,o),
(126,376,o),
(104,377,c),
(101,320,o),
(105,263,o),
(111,206,c),
(118,154,ls),
(120,137,o),
(126,121,o),
(123,104,c),
(116,73,o),
(68,79,o),
(58,105,c),
(52,116,o),
(51,129,o),
(50,142,cs),
(47,164,o),
(43,186,o),
(41,209,c),
(35,258,o),
(30,320,o),
(32,380,c),
(31,380,l),
(12,381,o),
(-9,404,o),
(6,422,cs),
(11,428,o),
(23,431,o),
(36,432,c),
(40,466,o),
(48,498,o),
(60,525,c),
(77,560,o),
(111,587,o),
(150,590,cs),
(196,593,o),
(248,559,o),
(247,509,c)
);
}
);
width = 299;
}
);
leftKerningGroup = _kern27;
rightKerningGroup = _kern29;
unicode = 64257;
},
{
glyphname = jcircumflex;
layers = (
{
layerId = "EC70D3AE-AF6B-4669-B6F7-9C23D381EC59";
name = img;
width = 185;
},
{
layerId = "D6B6D460-257B-488B-8647-D4C61C54A5BD";
shapes = (
{
closed = 1;
nodes = (
(103,-52,o),
(86,-43,o),
(82,-27,cs),
(79,-11,o),
(78,6,o),
(76,22,c),
(74,67,o),
(70,241,o),
(68,285,cs),
(66,330,o),
(65,376,o),
(65,421,c),
(68,453,o),
(121,446,o),
(125,415,cs),
(128,385,o),
(130,355,o),
(132,326,cs),
(135,273,o),
(140,91,o),
(143,39,cs),
(144,21,o),
(145,3,o),
(144,-15,c),
(145,-35,o),
(140,-50,o),
(118,-51,cs)
);
},
{
closed = 1;
nodes = (
(187,526,o),
(151,521,o),
(134,537,cs),
(119,551,o),
(107,569,o),
(92,583,c),
(91,584,o),
(90,584,o),
(90,583,c),
(77,570,o),
(66,555,o),
(55,540,cs),
(49,531,o),
(38,529,o),
(29,531,cs),
(15,533,o),
(2,542,o),
(0,555,c),
(-1,573,o),
(22,595,o),
(32,610,c),
(44,623,o),
(56,640,o),
(74,643,cs),
(112,649,o),
(137,612,o),
(161,589,c),
(171,578,o),
(183,568,o),
(186,553,c)
);
}
);
width = 185;
}
);
leftKerningGroup = _kern30;
rightKerningGroup = _kern29;
unicode = 309;
},
{
glyphname = kcommaaccent;
layers = (
{
layerId = "EC70D3AE-AF6B-4669-B6F7-9C23D381EC59";
name = img;
width = 349;
},
{
layerId = "D6B6D460-257B-488B-8647-D4C61C54A5BD";
shapes = (
{
closed = 1;
nodes = (
(231,-10,o),
(226,-32,o),
(211,-46,cs),
(195,-62,o),
(164,-57,o),
(154,-37,c),
(143,-19,o),
(163,-4,o),
(163,14,cs),
(163,21,o),
(163,29,o),
(164,36,cs),
(167,50,o),
(183,55,o),
(195,53,c),
(217,51,o),
(229,30,o),
(231,10,c)
);
},
{
alignment = -1;
ref = k;
}
);
width = 349;
}
);
leftKerningGroup = _kern23;
rightKerningGroup = _kern31;
unicode = 311;
},
{
glyphname = lcommaaccent;
layers = (
{
layerId = "EC70D3AE-AF6B-4669-B6F7-9C23D381EC59";
name = img;
width = 175;
},
{
layerId = "D6B6D460-257B-488B-8647-D4C61C54A5BD";
shapes = (
{
closed = 1;
nodes = (
(141,-10,o),
(136,-32,o),
(121,-46,cs),
(105,-62,o),
(74,-57,o),
(64,-37,c),
(53,-19,o),
(73,-4,o),
(73,14,cs),
(73,21,o),
(73,29,o),
(74,36,cs),
(77,50,o),
(93,55,o),
(105,53,c),
(127,51,o),
(139,30,o),
(141,10,c)
);
},
{
alignment = -1;
ref = l;
}
);
width = 175;
}
);
leftKerningGroup = _kern23;
rightKerningGroup = _kern32;
unicode = 316;
},
{
glyphname = napostrophe;
layers = (
{
layerId = "EC70D3AE-AF6B-4669-B6F7-9C23D381EC59";
name = img;
width = 382;
},
{
layerId = "D6B6D460-257B-488B-8647-D4C61C54A5BD";
shapes = (
{
closed = 1;
nodes = (
(231,-10,o),
(226,-32,o),
(211,-46,cs),
(195,-62,o),
(164,-57,o),
(154,-37,c),
(143,-19,o),
(163,-4,o),
(163,14,cs),
(163,21,o),
(163,29,o),
(164,36,cs),
(167,50,o),
(183,55,o),
(195,53,c),
(217,51,o),
(229,30,o),
(231,10,c)
);
},
{
alignment = -1;
ref = n;
}
);
width = 382;
}
);
leftKerningGroup = _kern30;
rightKerningGroup = _kern28;
unicode = 329;
},
{
glyphname = ncommaaccent;
layers = (
{
layerId = "EC70D3AE-AF6B-4669-B6F7-9C23D381EC59";
name = img;
width = 382;
},
{
layerId = "D6B6D460-257B-488B-8647-D4C61C54A5BD";
shapes = (
{
closed = 1;
nodes = (
(231,590,o),
(226,568,o),
(211,554,cs),
(195,538,o),
(164,543,o),
(154,563,c),
(143,581,o),
(163,596,o),
(163,614,cs),
(163,621,o),
(163,629,o),
(164,636,cs),
(167,650,o),
(183,655,o),
(195,653,c),
(217,651,o),
(229,630,o),
(231,610,c)
);
},
{
alignment = -1;
ref = n;
}
);
width = 382;
}
);
leftKerningGroup = _kern30;
rightKerningGroup = _kern28;
unicode = 326;
},
{
glyphname = rcommaaccent;
layers = (
{
layerId = "EC70D3AE-AF6B-4669-B6F7-9C23D381EC59";
name = img;
width = 306;
},
{
layerId = "D6B6D460-257B-488B-8647-D4C61C54A5BD";
shapes = (
{
closed = 1;
nodes = (
(201,-10,o),
(196,-32,o),
(181,-46,cs),
(165,-62,o),
(134,-57,o),
(124,-37,c),
(113,-19,o),
(133,-4,o),
(133,14,cs),
(133,21,o),
(133,29,o),
(134,36,cs),
(137,50,o),
(153,55,o),
(165,53,c),
(187,51,o),
(199,30,o),
(201,10,c)
);
},
{
alignment = -1;
ref = r;
}
);
width = 306;
}
);
leftKerningGroup = _kern30;
rightKerningGroup = _kern43;
unicode = 343;
},
{
glyphname = scommaaccent;
layers = (
{
layerId = "EC70D3AE-AF6B-4669-B6F7-9C23D381EC59";
name = img;
width = 242;
},
{
layerId = "D6B6D460-257B-488B-8647-D4C61C54A5BD";
shapes = (
{
closed = 1;
nodes = (
(161,-10,o),
(156,-32,o),
(141,-46,cs),
(125,-62,o),
(94,-57,o),
(84,-37,c),
(73,-19,o),
(93,-4,o),
(93,14,cs),
(93,21,o),
(93,29,o),
(94,36,cs),
(97,50,o),
(113,55,o),
(125,53,c),
(147,51,o),
(159,30,o),
(161,10,c)
);
},
{
alignment = -1;
ref = s;
}
);
width = 242;
}
);
leftKerningGroup = _kern36;
rightKerningGroup = _kern35;
unicode = 537;
},
{
glyphname = tcommaaccent;
layers = (
{
layerId = "EC70D3AE-AF6B-4669-B6F7-9C23D381EC59";
name = img;
width = 307;
},
{
layerId = "D6B6D460-257B-488B-8647-D4C61C54A5BD";
shapes = (
{
closed = 1;
nodes = (
(161,-10,o),
(156,-32,o),
(141,-46,cs),
(125,-62,o),
(94,-57,o),
(84,-37,c),
(73,-19,o),
(93,-4,o),
(93,14,cs),
(93,21,o),
(93,29,o),
(94,36,cs),
(97,50,o),
(113,55,o),
(125,53,c),
(147,51,o),
(159,30,o),
(161,10,c)
);
},
{
alignment = -1;
ref = t;
}
);
width = 307;
}
);
leftKerningGroup = _kern38;
rightKerningGroup = _kern37;
unicode = 355;
},
{
glyphname = lslash;
layers = (
{
layerId = "EC70D3AE-AF6B-4669-B6F7-9C23D381EC59";
name = img;
width = 175;
},
{
layerId = "D6B6D460-257B-488B-8647-D4C61C54A5BD";
shapes = (
{
closed = 1;
nodes = (
(153,353,o),
(108,335,o),
(65,314,c),
(53,307,o),
(40,301,o),
(27,295,cs),
(14,289,o),
(1,279,o),
(-14,277,cs),
(-41,274,o),
(-60,304,o),
(-35,321,cs),
(-24,328,o),
(-12,334,o),
(-1,340,cs),
(56,370,o),
(116,401,o),
(178,421,c),
(218,431,o),
(239,390,o),
(198,373,cs)
);
},
{
closed = 1;
nodes = (
(135,88,o),
(115,81,o),
(101,84,c),
(75,88,o),
(70,115,o),
(67,137,c),
(43,274,o),
(35,414,o),
(45,553,c),
(47,567,o),
(43,585,o),
(58,592,cs),
(72,599,o),
(89,595,o),
(99,584,cs),
(112,570,o),
(103,550,o),
(104,534,c),
(101,445,o),
(104,356,o),
(113,268,c),
(117,213,o),
(129,160,o),
(135,105,c)
);
}
);
width = 175;
}
);
leftKerningGroup = _kern23;
rightKerningGroup = _kern32;
unicode = 322;
},
{
glyphname = s_t;
layers = (
{
layerId = "EC70D3AE-AF6B-4669-B6F7-9C23D381EC59";
name = img;
width = 509;
},
{
layerId = "D6B6D460-257B-488B-8647-D4C61C54A5BD";
shapes = (
{
closed = 1;
nodes = (
(317,595,o),
(329,588,o),
(335,576,cs),
(341,563,o),
(330,538,o),
(329,523,cs),
(327,507,o),
(325,491,o),
(323,474,cs),
(314,406,o),
(311,338,o),
(314,269,c),
(318,233,o),
(315,152,o),
(368,161,c),
(386,162,o),
(408,147,o),
(405,128,c),
(398,99,o),
(360,98,o),
(337,104,cs),
(270,123,o),
(248,187,o),
(246,250,c),
(240,336,o),
(245,423,o),
(261,508,c),
(266,531,o),
(271,554,o),
(277,576,c),
(278,590,o),
(291,596,o),
(304,595,c)
);
},
{
closed = 1;
nodes = (
(39,147,o),
(55,157,o),
(69,157,c),
(82,158,o),
(97,155,o),
(108,164,c),
(130,178,o),
(135,211,o),
(118,230,cs),
(104,247,o),
(86,259,o),
(73,277,c),
(30,329,o),
(43,412,o),
(105,443,c),
(125,454,o),
(148,457,o),
(171,455,c),
(200,456,o),
(317,457,o),
(346,458,cs),
(398,461,l),
(413,461,o),
(429,464,o),
(444,459,cs),
(464,453,o),
(479,425,o),
(460,410,c),
(439,396,o),
(387,404,o),
(360,402,c),
(323,401,o),
(212,402,o),
(164,402,c),
(153,398,o),
(143,392,o),
(135,383,cs),
(121,368,o),
(116,345,o),
(121,325,cs),
(124,310,o),
(135,299,o),
(146,289,cs),
(162,274,o),
(178,259,o),
(188,240,cs),
(210,200,o),
(201,146,o),
(164,118,c),
(134,92,o),
(51,81,o),
(41,131,c)
);
}
);
width = 509;
}
);
leftKerningGroup = _kern36;
rightKerningGroup = _kern37;
unicode = 64262;
},
{
glyphname = Ohorn;
layers = (
{
layerId = "EC70D3AE-AF6B-4669-B6F7-9C23D381EC59";
name = img;
width = 410;
},
{
layerId = "D6B6D460-257B-488B-8647-D4C61C54A5BD";
shapes = (
{
closed = 1;
nodes = (
(264,520,o),
(243,534,o),
(250,551,cs),
(251,554,o),
(259,567,o),
(255,568,c),
(203,598,o),
(249,659,o),
(294,621,cs),
(310,607,o),
(309,584,o),
(305,564,c),
(301,551,o),
(296,525,o),
(279,523,c)
);
},
{
alignment = -1;
ref = O;
}
);
width = 410;
}
);
leftKerningGroup = _kern6;
rightKerningGroup = _kern5;
unicode = 416;
},
{
glyphname = ohorn;
layers = (
{
layerId = "EC70D3AE-AF6B-4669-B6F7-9C23D381EC59";
name = img;
width = 340;
},
{
layerId = "D6B6D460-257B-488B-8647-D4C61C54A5BD";
shapes = (
{
closed = 1;
nodes = (
(234,360,o),
(213,374,o),
(220,391,cs),
(221,394,o),
(229,407,o),
(225,408,c),
(173,438,o),
(219,499,o),
(264,461,cs),
(280,447,o),
(279,424,o),
(275,404,c),
(271,391,o),
(266,365,o),
(249,363,c)
);
},
{
alignment = -1;
ref = o;
}
);
width = 340;
}
);
unicode = 417;
},
{
glyphname = Uhorn;
layers = (
{
layerId = "EC70D3AE-AF6B-4669-B6F7-9C23D381EC59";
name = img;
width = 401;
},
{
layerId = "D6B6D460-257B-488B-8647-D4C61C54A5BD";
shapes = (
{
closed = 1;
nodes = (
(314,570,o),
(293,584,o),
(300,601,cs),
(301,604,o),
(309,617,o),
(305,618,c),
(253,648,o),
(299,709,o),
(344,671,cs),
(360,657,o),
(359,634,o),
(355,614,c),
(351,601,o),
(346,575,o),
(329,573,c)
);
},
{
alignment = -1;
ref = U;
}
);
width = 401;
}
);
leftKerningGroup = _kern18;
rightKerningGroup = _kern18;
unicode = 431;
},
{
glyphname = uhorn;
layers = (
{
layerId = "EC70D3AE-AF6B-4669-B6F7-9C23D381EC59";
name = img;
width = 364;
},
{
layerId = "D6B6D460-257B-488B-8647-D4C61C54A5BD";
shapes = (
{
closed = 1;
nodes = (
(251,89,o),
(254,130,o),
(254,160,cs),
(256,260,l),
(228,205,o),
(193,155,o),
(153,131,c),
(111,110,o),
(55,133,o),
(45,180,c),
(40,197,o),
(40,216,o),
(40,234,cs),
(41,297,o),
(53,361,o),
(70,422,c),
(74,432,o),
(73,445,o),
(84,450,cs),
(103,459,o),
(130,449,o),
(133,427,c),
(124,366,o),
(109,305,o),
(108,243,c),
(107,234,o),
(107,183,o),
(115,182,c),
(130,191,o),
(139,205,o),
(150,219,cs),
(162,236,o),
(174,253,o),
(184,272,c),
(207,311,o),
(223,354,o),
(241,396,cs),
(247,409,o),
(253,423,o),
(260,436,cs),
(261,438,o),
(262,441,o),
(264,443,c),
(264,443,o),
(265,443,o),
(265,444,c),
(269,449,l),
(269,449,o),
(269,450,o),
(270,451,c),
(271,454,o),
(279,467,o),
(275,468,c),
(223,498,o),
(269,559,o),
(314,521,cs),
(330,507,o),
(329,484,o),
(325,464,c),
(323,458,o),
(321,449,o),
(318,441,c),
(325,431,o),
(322,417,o),
(323,406,c),
(324,337,o),
(322,267,o),
(320,198,c),
(320,169,o),
(320,141,o),
(316,112,c),
(315,99,o),
(305,92,o),
(292,91,cs)
);
}
);
width = 364;
}
);
leftKerningGroup = _kern39;
rightKerningGroup = _kern39;
unicode = 432;
},
{
glyphname = gravecomb;
layers = (
{
layerId = "EC70D3AE-AF6B-4669-B6F7-9C23D381EC59";
name = img;
width = 148;
},
{
layerId = "D6B6D460-257B-488B-8647-D4C61C54A5BD";
shapes = (
{
closed = 1;
nodes = (
(21,684,o),
(50,667,o),
(63,654,c),
(70,649,o),
(78,645,o),
(87,643,cs),
(107,638,o),
(131,649,o),
(124,673,cs),
(116,697,o),
(89,707,o),
(70,722,cs),
(52,737,o),
(15,729,o),
(19,701,cs)
);
}
);
width = 148;
}
);
unicode = 768;
},
{
glyphname = acutecomb;
layers = (
{
layerId = "EC70D3AE-AF6B-4669-B6F7-9C23D381EC59";
name = img;
width = 148;
},
{
layerId = "D6B6D460-257B-488B-8647-D4C61C54A5BD";
shapes = (
{
closed = 1;
nodes = (
(131,729,o),
(94,737,o),
(76,722,cs),
(57,707,o),
(30,697,o),
(22,673,cs),
(15,649,o),
(39,638,o),
(59,643,cs),
(68,645,o),
(76,649,o),
(83,654,c),
(96,667,o),
(125,684,o),
(127,701,cs)
);
}
);
width = 148;
}
);
unicode = 769;
},
{
glyphname = uni2206;
layers = (
{
layerId = "EC70D3AE-AF6B-4669-B6F7-9C23D381EC59";
name = img;
width = 366;
},
{
layerId = "D6B6D460-257B-488B-8647-D4C61C54A5BD";
shapes = (
{
closed = 1;
nodes = (
(283,601,o),
(296,338,o),
(308,264,c),
(313,227,o),
(317,190,o),
(321,153,c),
(322,133,o),
(328,113,o),
(325,93,cs),
(322,66,o),
(290,63,o),
(271,77,c),
(236,86,o),
(161,103,o),
(90,89,c),
(65,87,o),
(55,91,o),
(48,99,cs),
(36,113,o),
(43,136,o),
(42,153,c),
(45,197,o),
(51,240,o),
(58,283,cs),
(73,372,o),
(96,458,o),
(127,542,c),
(135,568,o),
(150,594,o),
(181,594,c)
);
},
{
closed = 1;
nodes = (
(228,331,o),
(224,426,o),
(193,513,c),
(158,415,o),
(132,314,o),
(116,211,cs),
(113,189,o),
(110,169,o),
(108,148,c),
(140,152,o),
(197,158,o),
(249,158,c),
(245,185,o),
(243,212,o),
(240,239,cs)
);
}
);
width = 366;
}
);
unicode = 8710;
},
{
glyphname = product;
layers = (
{
layerId = "EC70D3AE-AF6B-4669-B6F7-9C23D381EC59";
name = img;
width = 384;
},
{
layerId = "D6B6D460-257B-488B-8647-D4C61C54A5BD";
shapes = (
{
closed = 1;
nodes = (
(362,72,o),
(358,64,o),
(349,59,cs),
(338,54,o),
(324,59,o),
(316,68,cs),
(308,77,o),
(304,89,o),
(301,101,cs),
(295,125,o),
(291,150,o),
(288,175,cs),
(273,289,o),
(268,404,o),
(273,520,c),
(219,522,o),
(166,528,o),
(113,536,c),
(89,409,o),
(81,280,o),
(88,151,cs),
(89,138,o),
(89,125,o),
(85,112,cs),
(81,99,o),
(72,88,o),
(59,86,cs),
(5,77,o),
(23,272,o),
(24,304,cs),
(27,391,o),
(37,479,o),
(54,565,c),
(55,573,o),
(57,582,o),
(63,588,cs),
(72,596,o),
(85,595,o),
(97,594,cs),
(167,588,o),
(237,581,o),
(308,575,cs),
(315,574,o),
(322,573,o),
(327,570,cs),
(342,561,o),
(341,540,o),
(339,523,cs),
(322,386,o),
(340,246,o),
(362,110,cs),
(364,101,o),
(364,91,o),
(363,82,cs)
);
}
);
width = 384;
}
);
unicode = 8719;
},
{
glyphname = summation;
layers = (
{
layerId = "EC70D3AE-AF6B-4669-B6F7-9C23D381EC59";
name = img;
width = 561;
},
{
layerId = "D6B6D460-257B-488B-8647-D4C61C54A5BD";
shapes = (
{
closed = 1;
nodes = (
(348,290,o),
(329,268,o),
(307,253,cs),
(265,225,o),
(222,196,o),
(179,168,cs),
(143,144,o),
(108,121,o),
(71,100,cs),
(64,96,o),
(57,95,o),
(50,99,cs),
(32,108,o),
(34,134,o),
(48,147,c),
(122,208,o),
(210,259,o),
(285,316,c),
(220,359,o),
(149,393,o),
(79,427,c),
(67,432,o),
(55,437,o),
(44,443,c),
(32,448,o),
(22,457,o),
(21,470,cs),
(19,491,o),
(38,516,o),
(60,508,cs),
(101,493,o),
(139,473,o),
(178,454,cs),
(222,432,o),
(266,408,o),
(309,383,cs),
(333,370,o),
(353,346,o),
(350,317,cs)
);
},
{
closed = 1;
nodes = (
(542,127,o),
(524,112,o),
(502,109,c),
(409,91,o),
(314,82,o),
(219,80,cs),
(172,79,o),
(126,80,o),
(80,83,c),
(63,86,o),
(40,80,o),
(31,97,cs),
(24,111,o),
(28,128,o),
(39,138,cs),
(47,146,o),
(58,145,o),
(69,144,cs),
(182,139,o),
(295,143,o),
(407,158,cs),
(434,161,o),
(462,166,o),
(489,170,cs),
(510,174,o),
(536,180,o),
(540,151,c)
);
},
{
closed = 1;
nodes = (
(542,493,o),
(524,477,o),
(502,474,c),
(409,456,o),
(314,447,o),
(219,445,cs),
(172,445,o),
(126,445,o),
(80,448,c),
(63,451,o),
(40,445,o),
(31,463,cs),
(24,476,o),
(28,493,o),
(39,503,cs),
(47,511,o),
(58,510,o),
(69,509,cs),
(182,504,o),
(295,508,o),
(407,523,cs),
(434,526,o),
(462,531,o),
(489,535,cs),
(510,539,o),
(536,546,o),
(540,516,c)
);
}
);
width = 561;
}
);
unicode = 8721;
},
